<?xml version="1.0" encoding="utf-8"?>
<!-- Generator: Adobe Illustrator 27.5.0, SVG Export Plug-In . SVG Version: 6.00 Build 0)  -->
<svg version="1.1" id="Layer_1" xmlns="http://www.w3.org/2000/svg" xmlns:xlink="http://www.w3.org/1999/xlink" x="0px" y="0px"
	 viewBox="0 0 2025 1259" style="enable-background:new 0 0 2025 1259;" xml:space="preserve">
<style type="text/css">
	.st0{fill:#303D4E;}
</style>
<g>
	<path class="st0" d="M1210.2,621.8c-2.5-2.1-5.1-3.1-7.9-3.1c-1.5,0-2.9,0.3-4.4,0.8c-1.4,0.6-2.8,1.4-4,2.5
		c-1.2,1.1-2.2,2.4-3.1,4c-0.8,1.6-1.4,3.3-1.6,5.2h25.1C1214,627,1212.6,623.9,1210.2,621.8z"/>
	<path class="st0" d="M1262.4,642.1c-3.6,0.7-6.2,1.9-7.6,3.6c-1.4,1.7-2.1,3.5-2.1,5.5c0,2.1,0.8,3.8,2.3,5
		c1.6,1.3,3.9,1.9,6.9,1.9c2.2,0,4.3-0.4,6.3-1.3c2-0.9,3.8-2,5.3-3.2v-12.7c-1.7,0.1-3.6,0.2-5.5,0.5
		C1265.9,641.5,1264.1,641.8,1262.4,642.1z"/>
	<path class="st0" d="M821.3,621.8c-2.5-2.1-5.1-3.1-7.9-3.1c-1.5,0-2.9,0.3-4.4,0.8c-1.4,0.6-2.8,1.4-4,2.5c-1.2,1.1-2.2,2.4-3.1,4
		c-0.8,1.6-1.4,3.3-1.6,5.2h25.1C825.2,627,823.8,623.9,821.3,621.8z"/>
	<path class="st0" d="M757,621.8c-2.5-2.1-5.1-3.1-7.9-3.1c-1.5,0-2.9,0.3-4.4,0.8c-1.4,0.6-2.8,1.4-4,2.5c-1.2,1.1-2.2,2.4-3.1,4
		c-0.8,1.6-1.4,3.3-1.6,5.2h25.1C760.9,627,759.5,623.9,757,621.8z"/>
	<path class="st0" d="M1066.8,621.8c-2.5-2.1-5.1-3.1-7.9-3.1c-1.5,0-2.9,0.3-4.4,0.8c-1.4,0.6-2.8,1.4-4,2.5
		c-1.2,1.1-2.2,2.4-3.1,4c-0.8,1.6-1.4,3.3-1.6,5.2h25.1C1070.6,627,1069.2,623.9,1066.8,621.8z"/>
	<path class="st0" d="M-67-78.5v1397h2187v-1397H-67z M708,670.1h-17.3v-48.5l-20.9,49h-6.2l-23-49.5v49h-17.3v-86.7h17.9l25.6,57.7
		l23.1-57.7H708V670.1z M740.6,654.2c2.8,2.3,6,3.5,9.4,3.5c3,0,5.8-0.5,8.2-1.6c2.4-1.1,4.9-3.4,7.5-7.1l12.6,7.7
		c-3.6,5.5-7.7,9.3-12.4,11.5c-4.7,2.2-10.2,3.3-16.5,3.3c-4.2,0-8.1-0.7-11.8-2c-3.7-1.3-7-3.3-9.8-6c-2.8-2.7-5-6.1-6.7-10.2
		c-1.6-4.1-2.5-8.9-2.5-14.6c0-5.3,0.8-10,2.4-14c1.6-4.1,3.8-7.5,6.6-10.3c2.8-2.8,6-4.9,9.7-6.4c3.7-1.5,7.6-2.2,11.8-2.2
		c8.8,0,15.8,3.1,21.1,9.2c5.3,6.1,8.1,15.4,8.3,27.8h-42.8C736.2,648.1,737.8,651.9,740.6,654.2z M805,654.2c2.8,2.3,6,3.5,9.4,3.5
		c3,0,5.8-0.5,8.2-1.6c2.4-1.1,4.9-3.4,7.5-7.1l12.6,7.7c-3.6,5.5-7.7,9.3-12.4,11.5c-4.7,2.2-10.2,3.3-16.5,3.3
		c-4.2,0-8.1-0.7-11.8-2c-3.7-1.3-7-3.3-9.8-6c-2.8-2.7-5-6.1-6.7-10.2c-1.6-4.1-2.5-8.9-2.5-14.6c0-5.3,0.8-10,2.4-14
		c1.6-4.1,3.8-7.5,6.6-10.3c2.8-2.8,6-4.9,9.7-6.4c3.7-1.5,7.6-2.2,11.8-2.2c8.8,0,15.8,3.1,21.1,9.2c5.3,6.1,8.1,15.4,8.3,27.8
		h-42.8C800.5,648.1,802.1,651.9,805,654.2z M881.4,669.8c-3.2,1.2-6.5,1.8-10.1,1.8c-2.2,0-4.3-0.3-6.4-0.9s-3.9-1.6-5.5-2.9
		c-1.6-1.3-2.9-3-3.9-5.1c-1-2.1-1.5-4.7-1.5-7.7v-34.5h-9.2v-13h9.2v-16.2h16.9v16.2h15.2v13h-15.2v32c0,2,0.5,3.4,1.4,4.1
		c0.9,0.7,1.8,1.1,2.7,1.1c1.7,0,3.4-0.4,5.1-1.3c1.6-0.9,3.1-1.8,4.3-2.7l6.1,11.6C887.6,667,884.6,668.6,881.4,669.8z
		 M947.4,669.8c-3.2,1.2-6.5,1.8-10.1,1.8c-2.2,0-4.3-0.3-6.4-0.9s-3.9-1.6-5.5-2.9c-1.6-1.3-2.9-3-3.9-5.1c-1-2.1-1.5-4.7-1.5-7.7
		v-34.5h-9.2v-13h9.2v-16.2H937v16.2h15.2v13H937v32c0,2,0.5,3.4,1.4,4.1c0.9,0.7,1.8,1.1,2.7,1.1c1.7,0,3.4-0.4,5.1-1.3
		c1.6-0.9,3.1-1.8,4.3-2.7l6.1,11.6C953.6,667,950.6,668.6,947.4,669.8z M1019.8,670.1h-17v-36c0-5.2-1.1-8.9-3.2-11.2
		c-2.1-2.3-4.6-3.4-7.3-3.4c-2.8,0-5.4,0.7-7.9,2.1c-2.5,1.4-4.5,2.8-6,4v44.6h-17v-86.7h17v28.2c2.1-1.6,4.6-2.9,7.5-4
		c2.9-1.1,6.4-1.7,10.5-1.7c4.2,0,7.8,0.7,10.8,2c2.9,1.3,5.4,3.1,7.3,5.5c1.9,2.3,3.3,5.2,4.2,8.5c0.9,3.3,1.3,7,1.3,11.1V670.1z
		 M1050.4,654.2c2.8,2.3,6,3.5,9.4,3.5c3,0,5.8-0.5,8.2-1.6c2.4-1.1,4.9-3.4,7.5-7.1l12.6,7.7c-3.6,5.5-7.7,9.3-12.3,11.5
		c-4.7,2.2-10.2,3.3-16.5,3.3c-4.2,0-8.1-0.7-11.8-2c-3.7-1.3-7-3.3-9.8-6c-2.8-2.7-5-6.1-6.7-10.2c-1.6-4.1-2.5-8.9-2.5-14.6
		c0-5.3,0.8-10,2.4-14c1.6-4.1,3.8-7.5,6.6-10.3c2.8-2.8,6-4.9,9.7-6.4c3.7-1.5,7.6-2.2,11.8-2.2c8.8,0,15.8,3.1,21.1,9.2
		c5.3,6.1,8.1,15.4,8.3,27.8h-42.8C1045.9,648.1,1047.6,651.9,1050.4,654.2z M1154.6,670.1h-17.7v-71H1111v-15.7h69.3v15.7h-25.7
		V670.1z M1193.8,654.2c2.8,2.3,6,3.5,9.4,3.5c3,0,5.8-0.5,8.2-1.6c2.4-1.1,4.9-3.4,7.5-7.1l12.6,7.7c-3.6,5.5-7.7,9.3-12.4,11.5
		c-4.7,2.2-10.2,3.3-16.5,3.3c-4.2,0-8.1-0.7-11.8-2c-3.7-1.3-7-3.3-9.8-6c-2.8-2.7-5-6.1-6.7-10.2c-1.6-4.1-2.5-8.9-2.5-14.6
		c0-5.3,0.8-10,2.4-14c1.6-4.1,3.8-7.5,6.6-10.3c2.8-2.8,6-4.9,9.7-6.4c3.7-1.5,7.6-2.2,11.8-2.2c8.8,0,15.8,3.1,21.1,9.2
		c5.3,6.1,8.1,15.4,8.3,27.8h-42.8C1189.3,648.1,1191,651.9,1193.8,654.2z M1290.4,670.1h-15.6l-0.8-4.7c-1.8,1.9-4.1,3.4-7,4.5
		c-2.8,1.1-5.9,1.6-9.3,1.6c-2.8,0-5.5-0.5-8.1-1.4c-2.6-0.9-5-2.2-7-3.9c-2-1.7-3.6-3.8-4.8-6.2c-1.2-2.5-1.8-5.3-1.8-8.4
		s0.6-5.9,2-8.3c1.3-2.4,3-4.4,5.2-6c2.2-1.6,4.7-3,7.5-4c2.8-1,5.8-1.8,8.9-2.3c2.2-0.4,4.5-0.8,7.1-1c2.6-0.2,4.8-0.4,6.5-0.6
		v-2.1c0-2.5-0.9-4.5-2.6-6.1c-1.7-1.6-3.8-2.3-6.1-2.3c-1.5,0-3.3,0.4-5.6,1.2c-2.3,0.8-4.4,2.3-6.5,4.4l-11.6-8.1
		c1.6-2.1,3.5-3.8,5.7-5.2c2.1-1.4,4.3-2.5,6.5-3.2c2.2-0.8,4.4-1.3,6.6-1.6c2.2-0.3,4.2-0.5,6-0.5c3.6,0,7,0.5,10,1.4
		c3,0.9,5.7,2.3,7.9,4.3c2.2,1.9,3.9,4.4,5.1,7.4c1.2,3,1.8,6.6,1.8,10.9V670.1z M1401.1,670.1h-16.9v-36.8c0-4.2-0.8-7.5-2.5-10.1
		c-1.6-2.6-4.7-3.8-9.1-3.8c-1.3,0-2.6,0.2-3.9,0.6c-1.3,0.4-2.5,0.8-3.7,1.4s-2.2,1.1-3.2,1.6c-1,0.6-1.7,1.1-2.2,1.5
		c0.2,1,0.3,2.2,0.5,3.5c0.2,1.3,0.3,2.7,0.3,4.3v37.8h-16.9v-36.8c0-1.9-0.2-3.7-0.5-5.4c-0.3-1.7-0.9-3.2-1.7-4.4
		c-0.8-1.3-1.8-2.3-3.2-3c-1.3-0.7-3-1.1-5-1.1c-2.5,0-4.9,0.7-7.3,2c-2.3,1.3-4.2,2.7-5.7,4.2v44.6h-17v-62.7h15.6l0.7,4.7
		c2-1.7,4.5-3.2,7.5-4.4c3-1.2,6-1.8,9-1.8c3,0,6.1,0.5,9.2,1.4s6,2.5,8.6,4.7c3-1.7,6.3-3.2,9.9-4.4c3.6-1.2,7.4-1.8,11.6-1.8
		c4.9,0,9.1,0.6,12.4,1.8c3.3,1.2,6,2.9,8,5.2c2,2.3,3.5,5,4.4,8.3c0.9,3.3,1.3,7.1,1.3,11.3V670.1z"/>
</g>
</svg>
