<?xml version="1.0" encoding="utf-8"?>
<!-- Generator: Adobe Illustrator 27.5.0, SVG Export Plug-In . SVG Version: 6.00 Build 0)  -->
<svg version="1.1" id="Layer_1" xmlns="http://www.w3.org/2000/svg" xmlns:xlink="http://www.w3.org/1999/xlink" x="0px" y="0px"
	 viewBox="0 0 2025 1259" style="enable-background:new 0 0 2025 1259;" xml:space="preserve">
<style type="text/css">
	.st0{fill:#303D4E;}
</style>
<g>
	<path class="st0" d="M1162.9,591.5c1.5,1.8,3.3,3.2,5.5,4.3c2.1,1.1,4.7,1.7,7.6,1.7c2.8,0,5.2-0.6,7.4-1.8
		c2.2-1.2,4.1-2.7,5.6-4.4c1.5-1.8,2.7-3.8,3.5-6c0.8-2.2,1.2-4.4,1.2-6.6c0-2.1-0.4-4.1-1.2-6.2c-0.8-2.1-2-3.9-3.5-5.6
		c-1.5-1.7-3.4-3-5.6-4c-2.2-1-4.7-1.6-7.4-1.6c-2.8,0-5.2,0.5-7.3,1.6c-2.1,1-4,2.4-5.5,4c-1.5,1.7-2.7,3.6-3.5,5.7
		c-0.8,2.1-1.2,4.2-1.2,6.3c0,2.2,0.4,4.4,1.1,6.6C1160.2,587.8,1161.4,589.8,1162.9,591.5z"/>
	<path class="st0" d="M1175.7,619.1c-6.2,0-11,1.9-14.5,5.7c-3.4,3.8-5.2,8.2-5.2,13.3c0,5.2,1.7,9.8,5,13.7
		c3.4,3.7,8.5,5.6,15.1,5.6c6.6,0,11.6-1.8,14.9-5.5c3.3-3.7,5-8.1,5-13.3c0-5.2-1.8-9.8-5.4-13.7
		C1187,621,1182.1,619.1,1175.7,619.1z"/>
	<path class="st0" d="M-2.5-1.8v1262.5h2030V-1.8H-2.5z M681.1,678.4h-17.6L632.1,586l-31.2,92.5h-17.6l-31.4-138h27.9l17,81.9
		l26.9-81.9h17.2l26.9,81.9l17.4-81.9h27.7L681.1,678.4z M813.1,678.4H786v-57.3c0-8.3-1.7-14.2-5.1-17.9c-3.4-3.7-7.3-5.5-11.7-5.5
		c-4.4,0-8.6,1.1-12.6,3.4c-4,2.3-7.2,4.4-9.5,6.3v71H720v-138h27.1v44.9c3.3-2.5,7.3-4.6,11.9-6.4c4.6-1.8,10.2-2.7,16.7-2.7
		c6.8,0,12.5,1,17.2,3.1c4.7,2.1,8.5,5,11.6,8.7c3,3.7,5.2,8.2,6.6,13.5c1.4,5.3,2.1,11.2,2.1,17.7V678.4z M870.8,702
		c-1.5,3.4-3.3,6.3-5.4,8.7c-2.1,2.3-4.3,4.2-6.8,5.6c-2.5,1.4-5.1,2.3-8,2.9c-2.8,0.5-5.6,0.8-8.4,0.8c-3.6,0-7.6-0.5-11.9-1.3
		c-4.3-0.9-8.8-2.3-13.3-4.2l8.5-19.2c2.6,1.2,5.2,2.1,7.8,2.7c2.5,0.6,4.7,0.8,6.5,0.8c1.7,0,3.3-0.5,5-1.4c1.7-1,3.2-2.9,4.6-5.8
		l7.7-17.2l-41.4-95.6h28.8l26.1,68.1l24.8-68.1h27.3L870.8,702z M1066.9,678.4h-99.5v-138h94.7v25h-66.8v31.4h55.2v25h-55.2v31.4
		h71.6V678.4z M1110.3,678.4h-27.9v-138h27.9V678.4z M1220.2,654.8c-2.1,5-5.1,9.4-9.2,13.2c-4.1,3.8-9,6.9-14.9,9.2
		c-5.9,2.3-12.6,3.5-20.2,3.5c-7.6,0-14.3-1.1-20.2-3.4c-5.9-2.3-10.8-5.4-14.9-9.2c-4.1-3.9-7.1-8.3-9.2-13.2
		c-2.1-4.9-3.1-10-3.1-15.2c0-2.9,0.4-5.9,1.1-8.9c0.8-3,1.9-6,3.4-8.9c1.5-2.9,3.4-5.6,5.6-8.1c2.2-2.5,4.8-4.6,7.7-6.2
		c-5.5-4-9.5-8.6-11.9-13.9c-2.4-5.3-3.6-10.4-3.6-15.4c0-5.1,1.1-10,3.2-14.7c2.1-4.7,5.2-8.8,9.1-12.5c3.9-3.6,8.7-6.6,14.3-8.8
		c5.6-2.2,11.8-3.3,18.7-3.3c6.8,0,12.9,1.1,18.5,3.2c5.6,2.1,10.3,5,14.3,8.6c3.9,3.6,7,7.7,9.1,12.4c2.1,4.7,3.2,9.6,3.2,14.7
		c0,5-1.3,10.2-3.8,15.8c-2.6,5.6-6.4,10.2-11.7,13.7c5.8,3.5,10.2,8.2,13.1,14.3c3,6.1,4.4,12,4.4,17.8
		C1223.3,644.7,1222.3,649.8,1220.2,654.8z M1352.2,678.4h-27.9v-58.3h-54.8v58.3h-27.9v-138h27.9v54.6h54.8v-54.6h27.9V678.4z
		 M1473.2,565.5h-41v112.9h-28.1V565.5h-41.2v-25h110.3V565.5z"/>
</g>
<rect x="-233.3" y="-260.8" style="fill:none;" width="610.3" height="91.8"/>
<text transform="matrix(1 0 0 1 -233.332 -174.0894)" style="font-family:'InterFace-Bold'; font-size:130px; letter-spacing:-3;">Why Ei8ht</text>
</svg>
