<?xml version="1.0" encoding="utf-8"?>
<!-- Generator: Adobe Illustrator 27.5.0, SVG Export Plug-In . SVG Version: 6.00 Build 0)  -->
<svg version="1.1" id="Layer_1" xmlns="http://www.w3.org/2000/svg" xmlns:xlink="http://www.w3.org/1999/xlink" x="0px" y="0px"
	 viewBox="0 0 2025 768" style="enable-background:new 0 0 2025 768;" xml:space="preserve">
<style type="text/css">
	.st0{fill:#303D4E;}
</style>
<g>
	<path class="st0" d="M762.6,393.1c2.3,1.8,5.3,2.7,8.9,2.7c3.6,0,6.7-0.9,9-2.7c2.4-1.8,3.6-4.3,3.6-7.6c0-3.3-1.2-5.9-3.6-7.9
		c-2.4-2-5.4-3-9-3c-3.6,0-6.6,1-8.9,2.9c-2.3,2-3.4,4.6-3.4,7.9C759.1,388.8,760.3,391.4,762.6,393.1z"/>
	<path class="st0" d="M787.3,429.3c-1.4-0.5-3.4-0.9-6-1.2c-2.6-0.3-6.1-0.5-10.5-0.6c-1.7-0.1-3.5-0.3-5.3-0.5
		c-1.8-0.2-3.6-0.4-5.3-0.7c-0.8,0.5-1.6,1.3-2.3,2.3c-0.8,1-1.2,2.2-1.2,3.6c0,5.4,5.9,8.1,17.5,8.1c5.2,0,9.3-0.5,12.2-1.6
		c2.9-1,4.4-2.6,4.4-4.5c0-1.1-0.2-2.1-0.6-2.9C789.6,430.5,788.7,429.9,787.3,429.3z"/>
	<path class="st0" d="M1318.3,377.2c-2.1,1-3.9,2.4-5.3,4.2c-1.4,1.8-2.4,3.8-3.1,6c-0.7,2.2-1,4.5-1,6.8c0,2.6,0.3,5.1,0.9,7.5
		c0.6,2.4,1.5,4.5,2.7,6.2c1.2,1.8,2.8,3.2,4.6,4.3c1.9,1.1,4.1,1.6,6.7,1.6c2.1,0,4.2-0.5,6.4-1.6c2.2-1.1,3.7-2.4,4.7-3.8v-30.9
		c-3.2-1.2-6.2-1.8-9.1-1.8S1320.4,376.2,1318.3,377.2z"/>
	<path class="st0" d="M1071,391.1c-1.4-0.7-3-1.2-4.7-1.5c-1.8-0.3-3.7-0.5-5.9-0.5h-12.2v22.2h12.5c3,0,5.4-0.1,7.1-0.4
		c1.7-0.3,3.2-0.7,4.3-1.3c1.9-1,3.3-2.3,4.2-3.8c0.9-1.5,1.3-3.1,1.3-4.7c0-1.9-0.5-3.8-1.6-5.6
		C1074.8,393.7,1073.2,392.3,1071,391.1z"/>
	<path class="st0" d="M1062.4,374.7c1.8-0.2,3.1-0.5,3.9-0.9c2.3-1,3.9-2.4,4.9-4c1-1.6,1.5-3.3,1.5-5c0-2.1-0.7-4-2-5.8
		c-1.3-1.8-3.4-3.1-6-4c-0.4-0.1-1-0.2-1.8-0.3c-0.7-0.1-1.6-0.2-2.5-0.3c-0.9,0-1.8-0.1-2.7-0.1c-0.9,0-1.7-0.1-2.4-0.1h-7.2V375
		h8.6C1058.7,375,1060.6,374.9,1062.4,374.7z"/>
	<path class="st0" d="M932.4,393c-1.8,3.1-2.7,6.1-2.7,9c0,1.6,0.2,3,0.7,4.4c0.5,1.4,1.2,2.6,2.1,3.7c1,1.1,2.1,2,3.5,2.6
		c1.4,0.7,2.9,1,4.7,1c2.9,0,5.4-1,7.5-3.1c2-2.1,4-4.6,6-7.7L940.6,385C936.9,387.3,934.1,389.9,932.4,393z"/>
	<path class="st0" d="M1176.2,398.3c-3.6,0.7-6.2,1.9-7.6,3.6c-1.4,1.7-2.1,3.5-2.1,5.5c0,2.1,0.8,3.8,2.3,5
		c1.6,1.3,3.9,1.9,6.9,1.9c2.2,0,4.3-0.4,6.3-1.3c2-0.9,3.8-2,5.3-3.2V397c-1.7,0.1-3.6,0.2-5.5,0.5
		C1179.7,397.6,1177.9,397.9,1176.2,398.3z"/>
	<path class="st0" d="M537.5,359c-2-1.3-4.5-2.3-7.4-2.9c-2.9-0.7-5.9-1-9-1h-7.4v55.5h7c6.3,0,11.6-1.1,15.7-3.2
		c4.2-2.2,7.2-5.5,9.2-9.9c2-4.5,3-9.2,3-14.2c0-4.9-0.9-9.6-2.7-14C544.1,364.8,541.3,361.4,537.5,359z"/>
	<path class="st0" d="M614.9,378c-2.5-2.1-5.1-3.1-7.9-3.1c-1.5,0-2.9,0.3-4.4,0.8c-1.4,0.6-2.8,1.4-4,2.5c-1.2,1.1-2.2,2.4-3.1,4
		c-0.8,1.6-1.4,3.3-1.6,5.2h25.1C618.8,383.2,617.4,380.1,614.9,378z"/>
	<path class="st0" d="M-142.5-390.5v1549h2310v-1549H-142.5z M565.1,394.4c-0.9,3.9-2.3,7.7-4.2,11.2c-1.9,3.5-4.2,6.7-7,9.4
		c-2.8,2.8-6.1,5-9.8,6.8c-6.3,2.9-13.5,4.4-21.6,4.4h-26.4v-86.7h25.7c3.3,0,6.9,0.3,10.9,0.8c4,0.5,7.8,1.6,11.4,3.1
		c3.7,1.7,7,4,9.8,6.7c2.8,2.7,5.1,5.8,7,9.2c1.8,3.4,3.2,7.1,4.1,11c0.9,3.9,1.4,8,1.4,12C566.5,386.5,566,390.5,565.1,394.4z
		 M598.5,410.4c2.8,2.3,6,3.5,9.4,3.5c3,0,5.8-0.5,8.2-1.6c2.4-1.1,4.9-3.4,7.5-7.1l12.6,7.7c-3.6,5.5-7.7,9.3-12.4,11.5
		c-4.7,2.2-10.2,3.3-16.5,3.3c-4.2,0-8.1-0.7-11.8-2c-3.7-1.3-7-3.3-9.8-6c-2.8-2.7-5-6.1-6.7-10.2c-1.6-4.1-2.5-8.9-2.5-14.6
		c0-5.3,0.8-10,2.4-14c1.6-4.1,3.8-7.5,6.6-10.3c2.8-2.8,6-4.9,9.7-6.4c3.7-1.5,7.6-2.2,11.8-2.2c8.8,0,15.8,3.1,21.1,9.2
		c5.3,6.1,8.1,15.4,8.3,27.8h-42.8C594.1,404.2,595.7,408,598.5,410.4z M697.6,416.8c-1.4,2.5-3.3,4.5-5.7,6.1
		c-2.4,1.6-5.3,2.8-8.6,3.6c-3.3,0.8-6.8,1.2-10.5,1.2c-7.5,0-13.5-1.4-18.1-4.2c-4.6-2.8-8.2-6.3-10.6-10.6l12.6-7.7
		c1.5,2.8,3.5,5.1,6.2,7c2.6,1.9,6,2.8,9.9,2.8c3.5,0,6.2-0.5,8.1-1.6c2-1.1,2.9-2.6,2.9-4.5c0-1.8-1-3.4-3.1-4.8
		c-2.1-1.4-5.9-2.6-11.6-3.6c-3.3-0.6-6.3-1.4-9-2.4c-2.7-1-5-2.3-7-3.8c-1.9-1.6-3.4-3.4-4.4-5.6c-1-2.2-1.6-4.8-1.6-7.8
		c0-5.5,2.3-10.1,7-13.5c4.6-3.5,10.9-5.2,18.8-5.2c7.1,0,12.7,1.1,16.9,3.4c4.2,2.3,7.4,5.1,9.6,8.4l-12,8.2
		c-1.6-2.1-3.6-3.8-6-5.2c-2.4-1.4-5.3-2.1-8.6-2.1c-3.6,0-6.2,0.5-7.5,1.6c-1.4,1.1-2.1,2.5-2.1,4.2c0,2,0.9,3.4,2.6,4.3
		c1.7,0.9,4.9,1.8,9.6,2.7c3.8,0.8,7.2,1.7,10.2,2.7c3,1,5.5,2.4,7.6,4c2.1,1.6,3.7,3.5,4.7,5.8c1.1,2.3,1.6,4.9,1.6,7.9
		C699.7,411.4,699,414.3,697.6,416.8z M728.7,426.2h-16.9v-62.7h16.9V426.2z M727.9,353.6c-1.7,1.9-4.2,2.9-7.6,2.9s-5.9-1-7.6-2.9
		c-1.7-1.9-2.5-4-2.5-6.4c0-2.3,0.8-4.3,2.5-6.2c1.7-1.9,4.2-2.9,7.6-2.9s5.9,1,7.6,2.9c1.7,1.9,2.5,4,2.5,6.2
		C730.4,349.5,729.6,351.7,727.9,353.6z M802.8,442.3c-1.8,2.5-4.2,4.5-7.1,6c-2.9,1.5-6.3,2.6-10.2,3.2c-3.9,0.6-7.8,0.9-11.8,0.9
		c-4,0-7.9-0.3-11.8-0.9c-3.9-0.6-7.3-1.6-10.3-3.1c-3-1.4-5.5-3.3-7.3-5.7c-1.9-2.4-2.8-5.4-2.8-9c0-3,0.6-5.5,2-7.3
		c1.3-1.9,3.1-3.4,5.3-4.6c-1.2-1-2.3-2.2-3.2-3.8c-0.9-1.6-1.4-3.3-1.4-5.2c0-2.3,0.6-4.3,2-6c1.3-1.8,3-3.3,5.2-4.5
		c-2.5-2-4.5-4.4-6-7.3c-1.5-2.9-2.3-6.1-2.3-9.6c0-3.9,0.8-7.3,2.4-10.2c1.6-2.9,3.7-5.3,6.4-7.3c2.6-1.9,5.7-3.4,9.1-4.4
		c3.4-1,7-1.4,10.6-1.4c2.5,0,4.8,0.2,6.8,0.7c2,0.4,4.1,1.1,6.4,1.9l10-10.5l9.5,7.8l-9.1,9.6c1.6,1.8,2.9,3.9,3.8,6.4
		c0.9,2.4,1.4,4.9,1.4,7.4c0,3.9-0.8,7.3-2.4,10.2c-1.6,2.9-3.7,5.3-6.4,7.2c-2.7,1.9-5.8,3.3-9.2,4.3c-3.5,1-7,1.4-10.7,1.4
		c-1.6,0-3.3-0.1-4.9-0.3c-1.6-0.2-3-0.5-4.1-0.7c-0.4,0.3-0.9,0.7-1.3,1.3c-0.4,0.6-0.6,1.2-0.6,1.7c0,0.6,0.2,1.1,0.6,1.6
		c0.4,0.4,1.3,0.8,2.5,1.2c1.3,0.3,3,0.7,5.3,0.9c2.3,0.3,5.2,0.4,9,0.5c4.5,0.2,8.5,0.6,12,1.2c3.5,0.7,6.3,1.7,8.6,3.1
		c2.3,1.4,4,3.3,5.2,5.6c1.2,2.3,1.8,5.1,1.8,8.5C805.5,436.7,804.6,439.8,802.8,442.3z M873.9,426.2h-17v-35.8c0-4.8-1-8.4-3.1-11
		c-2.1-2.6-5-3.9-8.7-3.9c-2.6,0-5,0.7-7.3,2c-2.3,1.3-4.2,2.7-5.9,4.3v44.5h-17v-62.7h15.5l0.8,4.9c2.6-2.1,5.6-3.7,9-4.8
		c3.4-1.1,6.8-1.7,10.1-1.7c3.5,0,6.7,0.5,9.6,1.5c2.9,1,5.4,2.6,7.5,4.7c2.1,2.2,3.7,5,4.9,8.5c1.2,3.5,1.8,7.6,1.8,12.5V426.2z
		 M972.2,426.2l-8.6-11.2c-1.5,1.8-2.9,3.5-4.4,5.1c-1.4,1.6-3.1,2.9-4.9,4c-1.8,1.1-3.9,2-6.2,2.6s-5.2,0.9-8.5,0.9
		c-4.2,0-7.9-0.7-11.2-2.1c-3.3-1.4-6.2-3.3-8.4-5.7c-2.3-2.3-4.1-5.1-5.3-8.2c-1.2-3.1-1.8-6.4-1.8-9.8c0-5.2,1.5-10.4,4.5-15.5
		c3-5.1,7.7-9.5,14.2-13.1c-1.7-2.2-3.3-4.5-4.6-7c-1.3-2.5-2-5.3-2-8.4c0-2.9,0.6-5.4,1.8-7.7c1.2-2.3,2.8-4.2,4.7-5.8
		c2-1.6,4.4-2.8,7.1-3.6c2.8-0.9,5.8-1.3,9-1.3c3.2,0,6,0.3,8.4,0.9c2.4,0.6,4.5,1.5,6.3,2.6c1.8,1.1,3.4,2.4,4.7,4
		c1.3,1.5,2.5,3.2,3.6,5.1l-13.3,7.4c-1.1-2.2-2.5-3.9-4.1-5.3c-1.6-1.4-3.5-2.1-5.7-2.1c-1.8,0-3.3,0.5-4.6,1.4
		c-1.2,1-1.8,2.3-1.8,3.9c0,1.2,0.3,2.4,1,3.7c0.7,1.3,1.6,2.6,2.8,4.1l17.8,23c2.4-4.4,5-8.6,7.9-12.6c2.8-4,6.2-7.3,10.1-9.9
		l8.8,12c-3.6,2.9-6.6,6.4-9.2,10.5c-2.6,4.2-5.2,8.5-7.7,12.9l19.2,25.1H972.2z M1091.4,414.9c-2.6,4.2-6.5,7.2-11.8,9.2
		c-2,0.7-4.1,1.2-6.4,1.6c-2.3,0.3-4.5,0.5-6.7,0.5h-35.6v-86.7h30.9c4.2,0,8,0.5,11.5,1.6c3.5,1,6.5,2.6,9,4.6
		c2.5,2,4.5,4.5,5.9,7.4c1.4,2.9,2.1,6.2,2.1,9.8c0,3.9-0.9,7.3-2.8,10.1c-1.9,2.9-4.4,5.3-7.7,7.3c4.7,1.6,8.4,4.3,11.2,7.9
		c2.8,3.6,4.2,8.1,4.2,13.6C1095.3,406.4,1094,410.7,1091.4,414.9z M1144.6,378.9c-1.7-0.7-3.4-1.2-4.9-1.6c-1.5-0.4-3-0.6-4.5-0.6
		c-2.4,0-4.6,0.6-6.6,1.7c-2,1.1-3.5,2.4-4.6,3.9v43.9h-17v-62.7h15.5l0.8,5.5c2.3-2.5,4.7-4.3,7.1-5.3c2.4-1,4.9-1.5,7.5-1.5
		c1.5,0,3,0.2,4.7,0.5c1.6,0.3,3.3,0.8,5.1,1.4L1144.6,378.9z M1204.2,426.2h-15.6l-0.8-4.7c-1.8,1.9-4.1,3.4-7,4.5
		c-2.8,1.1-5.9,1.6-9.3,1.6c-2.8,0-5.5-0.5-8.1-1.4c-2.6-0.9-5-2.2-7-3.9c-2-1.7-3.6-3.8-4.8-6.2c-1.2-2.5-1.8-5.3-1.8-8.4
		s0.7-5.9,2-8.3c1.3-2.4,3-4.4,5.2-6c2.2-1.6,4.7-3,7.5-4c2.8-1,5.8-1.8,8.9-2.3c2.2-0.4,4.5-0.8,7.1-1c2.6-0.2,4.8-0.4,6.5-0.6
		v-2.1c0-2.5-0.9-4.5-2.6-6.1c-1.7-1.6-3.8-2.3-6.1-2.3c-1.5,0-3.3,0.4-5.6,1.2c-2.3,0.8-4.4,2.3-6.5,4.4l-11.6-8.1
		c1.6-2.1,3.5-3.8,5.7-5.2c2.1-1.4,4.3-2.5,6.5-3.2c2.2-0.8,4.4-1.3,6.6-1.6c2.2-0.3,4.2-0.5,6-0.5c3.6,0,7,0.5,10,1.4
		c3,0.9,5.7,2.3,7.9,4.3c2.2,1.9,3.9,4.4,5.1,7.4c1.2,3,1.8,6.6,1.8,10.9V426.2z M1279.8,426.2h-17v-35.8c0-4.8-1-8.4-3.1-11
		c-2.1-2.6-5-3.9-8.7-3.9c-2.6,0-5,0.7-7.3,2c-2.3,1.3-4.2,2.7-5.8,4.3v44.5h-17v-62.7h15.5l0.8,4.9c2.6-2.1,5.6-3.7,9-4.8
		c3.4-1.1,6.8-1.7,10.1-1.7c3.5,0,6.7,0.5,9.6,1.5c2.9,1,5.4,2.6,7.5,4.7c2.1,2.2,3.7,5,4.9,8.5c1.2,3.5,1.8,7.6,1.8,12.5V426.2z
		 M1351.8,426.2h-15.5l-0.8-4.8c-1.6,1.6-3.6,3.1-6.1,4.4c-2.5,1.3-5.5,1.9-9,1.9c-4.5,0-8.5-0.9-12-2.7c-3.5-1.8-6.5-4.2-8.8-7.3
		c-2.4-3-4.2-6.5-5.4-10.5c-1.2-4-1.8-8.1-1.8-12.5c0-4.1,0.7-8.1,2-12c1.3-3.9,3.2-7.4,5.8-10.5c2.6-3.1,5.9-5.5,9.8-7.4
		c3.9-1.9,8.5-2.8,13.8-2.8c3.6,0,7.3,0.6,11.2,1.8v-24.3h16.9V426.2z M1385.6,426.2h-16.9v-62.7h16.9V426.2z M1384.8,353.6
		c-1.7,1.9-4.2,2.9-7.6,2.9c-3.4,0-5.9-1-7.6-2.9c-1.7-1.9-2.5-4-2.5-6.4c0-2.3,0.8-4.3,2.5-6.2c1.7-1.9,4.2-2.9,7.6-2.9
		c3.4,0,5.9,1,7.6,2.9c1.7,1.9,2.5,4,2.5,6.2C1387.3,349.5,1386.4,351.7,1384.8,353.6z M1461.5,426.2h-17v-35.8c0-4.8-1-8.4-3.1-11
		c-2.1-2.6-5-3.9-8.7-3.9c-2.6,0-5,0.7-7.3,2c-2.3,1.3-4.2,2.7-5.8,4.3v44.5h-17v-62.7h15.5l0.8,4.9c2.6-2.1,5.6-3.7,9-4.8
		c3.4-1.1,6.8-1.7,10.1-1.7c3.5,0,6.7,0.5,9.6,1.5c2.9,1,5.4,2.6,7.5,4.7c2.1,2.2,3.7,5,4.9,8.5c1.2,3.5,1.8,7.6,1.8,12.5V426.2z
		 M1535.2,442.3c-1.8,2.5-4.2,4.5-7.2,6c-2.9,1.5-6.3,2.6-10.2,3.2c-3.9,0.6-7.8,0.9-11.8,0.9c-4,0-7.9-0.3-11.8-0.9
		c-3.9-0.6-7.3-1.6-10.3-3.1c-3-1.4-5.5-3.3-7.3-5.7c-1.9-2.4-2.8-5.4-2.8-9c0-3,0.7-5.5,2-7.3c1.3-1.9,3.1-3.4,5.3-4.6
		c-1.2-1-2.3-2.2-3.2-3.8c-0.9-1.6-1.4-3.3-1.4-5.2c0-2.3,0.7-4.3,2-6c1.3-1.8,3-3.3,5.2-4.5c-2.5-2-4.5-4.4-6-7.3
		c-1.5-2.9-2.3-6.1-2.3-9.6c0-3.9,0.8-7.3,2.4-10.2c1.6-2.9,3.7-5.3,6.4-7.3c2.6-1.9,5.7-3.4,9.1-4.4c3.4-1,7-1.4,10.6-1.4
		c2.5,0,4.8,0.2,6.8,0.7c2,0.4,4.1,1.1,6.4,1.9l10-10.5l9.5,7.8l-9.1,9.6c1.6,1.8,2.9,3.9,3.8,6.4c0.9,2.4,1.4,4.9,1.4,7.4
		c0,3.9-0.8,7.3-2.4,10.2c-1.6,2.9-3.7,5.3-6.4,7.2c-2.7,1.9-5.8,3.3-9.2,4.3c-3.5,1-7,1.4-10.7,1.4c-1.6,0-3.3-0.1-4.9-0.3
		c-1.6-0.2-3-0.5-4.1-0.7c-0.4,0.3-0.9,0.7-1.3,1.3c-0.4,0.6-0.6,1.2-0.6,1.7c0,0.6,0.2,1.1,0.6,1.6c0.4,0.4,1.3,0.8,2.5,1.2
		c1.3,0.3,3,0.7,5.3,0.9c2.3,0.3,5.2,0.4,9,0.5c4.5,0.2,8.5,0.6,12,1.2c3.5,0.7,6.3,1.7,8.6,3.1c2.3,1.4,4,3.3,5.2,5.6
		c1.2,2.3,1.8,5.1,1.8,8.5C1538,436.7,1537,439.8,1535.2,442.3z"/>
	<path class="st0" d="M1495,393.1c2.3,1.8,5.3,2.7,8.9,2.7c3.6,0,6.7-0.9,9-2.7c2.4-1.8,3.6-4.3,3.6-7.6c0-3.3-1.2-5.9-3.6-7.9
		c-2.4-2-5.4-3-9-3c-3.6,0-6.6,1-8.9,2.9c-2.3,2-3.4,4.6-3.4,7.9C1491.5,388.8,1492.7,391.4,1495,393.1z"/>
	<path class="st0" d="M1519.7,429.3c-1.4-0.5-3.4-0.9-6-1.2c-2.6-0.3-6.1-0.5-10.5-0.6c-1.7-0.1-3.5-0.3-5.3-0.5
		c-1.8-0.2-3.6-0.4-5.3-0.7c-0.8,0.5-1.6,1.3-2.3,2.3c-0.8,1-1.2,2.2-1.2,3.6c0,5.4,5.8,8.1,17.5,8.1c5.2,0,9.3-0.5,12.2-1.6
		c2.9-1,4.4-2.6,4.4-4.5c0-1.1-0.2-2.1-0.6-2.9C1522.1,430.5,1521.1,429.9,1519.7,429.3z"/>
</g>
</svg>
