<?xml version="1.0" encoding="UTF-8"?><svg id="Layer_1" xmlns="http://www.w3.org/2000/svg" viewBox="0 0 950 950"><defs><style>.cls-1{fill:#95a5a6;}</style></defs><path class="cls-1" d="m127.03,661.57c-2.29-1.14-4.91-1.97-7.84-2.47-2.94-.5-6.19-.75-9.77-.75h-20.19v36.72h20.61c5.01,0,8.95-.21,11.81-.64,2.86-.43,5.22-1.14,7.09-2.15,3.15-1.72,5.44-3.83,6.87-6.33,1.43-2.5,2.15-5.12,2.15-7.84,0-3.15-.9-6.23-2.68-9.23-1.79-3.01-4.48-5.44-8.05-7.3Z"/><path class="cls-1" d="m535.56,638.6c-3.51,1.72-6.41,4.05-8.7,6.98-2.29,2.94-4.01,6.23-5.15,9.88-1.15,3.65-1.72,7.41-1.72,11.27,0,4.29.5,8.41,1.5,12.35,1,3.94,2.5,7.37,4.51,10.31,2,2.94,4.54,5.3,7.62,7.09,3.08,1.79,6.76,2.68,11.06,2.68,3.44,0,6.94-.89,10.52-2.68,3.58-1.79,6.15-3.9,7.73-6.33v-51.11c-5.3-2-10.31-3.01-15.03-3.01s-8.84.86-12.35,2.58Z"/><path class="cls-1" d="m601.7,303.24c3.79,2.94,8.7,4.4,14.71,4.4s10.98-1.47,14.92-4.4c3.94-2.93,5.91-7.12,5.91-12.56s-1.97-9.8-5.91-13.1c-3.94-3.29-8.91-4.94-14.92-4.94s-10.92,1.61-14.71,4.83c-3.79,3.22-5.69,7.55-5.69,12.99s1.9,9.84,5.69,12.78Z"/><path class="cls-1" d="m357.76,278.22c-4.08-3.44-8.41-5.15-12.99-5.15-2.44,0-4.83.47-7.19,1.4-2.36.93-4.55,2.29-6.55,4.08-2.01,1.79-3.69,3.97-5.05,6.55-1.36,2.58-2.25,5.44-2.68,8.59h41.44c-.57-6.87-2.9-12.03-6.98-15.46Z"/><path class="cls-1" d="m300.75,673.38c-6.01,1.15-10.2,3.11-12.56,5.91-2.36,2.79-3.54,5.83-3.54,9.13s1.29,6.19,3.87,8.27c2.58,2.08,6.37,3.11,11.38,3.11,3.58,0,7.05-.71,10.41-2.15,3.36-1.43,6.26-3.22,8.7-5.37v-21.04c-2.87.14-5.91.4-9.13.75-3.22.36-6.26.83-9.13,1.4Z"/><path class="cls-1" d="m642.5,363.04c-2.36-.86-5.69-1.54-9.99-2.04-4.29-.5-10.09-.83-17.39-.97-2.87-.14-5.8-.43-8.8-.86-3.01-.29-5.94-.64-8.8-1.07-1.29.86-2.58,2.11-3.87,3.76-1.29,1.64-1.93,3.61-1.93,5.91,0,8.88,9.66,13.31,28.99,13.31,8.59,0,15.32-.86,20.19-2.58,4.87-1.72,7.3-4.22,7.3-7.52,0-1.86-.36-3.44-1.07-4.72-.72-1.29-2.25-2.36-4.62-3.22Z"/><path class="cls-1" d="m438.31,479.96c-3.14,5.44-4.71,10.77-4.71,15.99,0,2.76.42,5.37,1.26,7.82.84,2.45,2.11,4.64,3.8,6.55,1.69,1.92,3.76,3.45,6.21,4.6,2.45,1.15,5.21,1.72,8.28,1.72,5.21,0,9.62-1.84,13.23-5.52,3.6-3.68,7.17-8.2,10.69-13.57l-24.15-31.74c-6.59,3.99-11.46,8.7-14.6,14.15Z"/><path class="cls-1" d="m229.89,246.87c-3.29-2.15-7.38-3.76-12.24-4.83-4.87-1.07-9.81-1.61-14.82-1.61h-12.24v91.69h11.6c10.45,0,19.11-1.79,25.98-5.37,6.87-3.58,11.95-9.05,15.25-16.43,3.29-7.37,4.94-15.21,4.94-23.51s-1.5-15.85-4.51-23.08c-3.01-7.23-7.66-12.85-13.96-16.86Z"/><path class="cls-1" d="m112.86,634.52c3.01-.29,5.15-.79,6.44-1.5,3.72-1.72,6.41-3.9,8.05-6.55,1.64-2.65,2.47-5.4,2.47-8.27,0-3.44-1.11-6.62-3.33-9.56-2.22-2.93-5.55-5.12-9.99-6.55-.72-.14-1.68-.32-2.9-.54-1.22-.21-2.58-.36-4.08-.43-1.5-.07-3.01-.14-4.51-.21-1.5-.07-2.83-.11-3.97-.11h-11.81v34.14h14.17c3.29,0,6.44-.14,9.45-.43Z"/><path class="cls-1" d="m868.19,724.71c-2.36-.86-5.69-1.54-9.99-2.04-4.29-.5-10.09-.83-17.39-.97-2.87-.14-5.8-.43-8.8-.86-3.01-.29-5.94-.64-8.8-1.07-1.29.86-2.58,2.11-3.87,3.76-1.29,1.64-1.93,3.61-1.93,5.91,0,8.88,9.66,13.31,28.99,13.31,8.59,0,15.32-.86,20.19-2.58,4.87-1.72,7.3-4.22,7.3-7.52,0-1.86-.36-3.44-1.07-4.72-.72-1.29-2.25-2.36-4.62-3.22Z"/><path class="cls-1" d="m827.39,664.9c3.79,2.94,8.7,4.4,14.71,4.4s10.98-1.47,14.92-4.4c3.94-2.93,5.91-7.12,5.91-12.56s-1.97-9.8-5.91-13.1c-3.94-3.29-8.91-4.94-14.92-4.94s-10.92,1.61-14.71,4.83c-3.79,3.22-5.69,7.55-5.69,12.99s1.9,9.84,5.69,12.78Z"/><path class="cls-1" d="m917.56,0H32.44C14.52,0,0,14.52,0,32.44v885.13c0,17.91,14.52,32.44,32.44,32.44h885.13c17.91,0,32.44-14.52,32.44-32.44V32.44c0-17.91-14.52-32.44-32.44-32.44Zm-398.32,217.02c2.79-3.15,6.98-4.72,12.56-4.72s9.77,1.58,12.56,4.72c2.79,3.15,4.19,6.59,4.19,10.31s-1.4,7.38-4.19,10.52c-2.79,3.15-6.98,4.72-12.56,4.72s-9.77-1.57-12.56-4.72c-2.79-3.15-4.19-6.66-4.19-10.52s1.4-7.16,4.19-10.31Zm26.52,37.36v103.5h-27.92v-103.5h27.92Zm-79.24,66.78c-3.44-2.29-9.81-4.29-19.11-6.01-5.44-1-10.42-2.33-14.92-3.97-4.51-1.64-8.34-3.76-11.49-6.33-3.15-2.58-5.58-5.65-7.3-9.23-1.72-3.58-2.58-7.87-2.58-12.88,0-9.16,3.83-16.6,11.49-22.33,7.66-5.72,18-8.59,31.03-8.59,11.74,0,21.04,1.9,27.92,5.69,6.87,3.79,12.17,8.41,15.89,13.85l-19.76,13.53c-2.58-3.44-5.87-6.3-9.88-8.59-4.01-2.29-8.73-3.44-14.17-3.44-6.01,0-10.17.9-12.45,2.68-2.29,1.79-3.44,4.12-3.44,6.98,0,3.29,1.43,5.66,4.29,7.09,2.86,1.43,8.16,2.94,15.89,4.51,6.3,1.29,11.92,2.79,16.86,4.51s9.13,3.9,12.56,6.55c3.44,2.65,6.05,5.83,7.84,9.56,1.79,3.72,2.68,8.09,2.68,13.1,0,5.58-1.15,10.42-3.44,14.5-2.29,4.08-5.44,7.45-9.45,10.09-4.01,2.65-8.73,4.62-14.17,5.91-5.44,1.29-11.24,1.93-17.39,1.93-12.31,0-22.3-2.33-29.96-6.98-7.66-4.65-13.5-10.49-17.5-17.5l20.83-12.67c2.43,4.58,5.83,8.41,10.2,11.49,4.37,3.08,9.84,4.62,16.43,4.62,5.72,0,10.2-.89,13.42-2.68,3.22-1.79,4.83-4.26,4.83-7.41s-1.72-5.65-5.15-7.95Zm-305.78,379.67c-4.29,6.88-10.81,11.97-19.54,15.27-3.29,1.15-6.84,2.01-10.63,2.58-3.79.57-7.48.86-11.06.86h-58.84v-143.23h51.11c6.87,0,13.21.86,19,2.57,5.8,1.72,10.77,4.25,14.92,7.61,4.15,3.36,7.41,7.43,9.77,12.22,2.36,4.79,3.54,10.18,3.54,16.19,0,6.43-1.54,12-4.62,16.72-3.08,4.72-7.34,8.72-12.78,12,7.73,2.72,13.92,7.06,18.57,13.01,4.65,5.95,6.98,13.44,6.98,22.47,0,7.6-2.15,14.84-6.44,21.72Zm87.83-59.46c-2.87-1.14-5.55-2.04-8.05-2.68-2.51-.64-4.98-.97-7.41-.97-4.01,0-7.62.93-10.84,2.79-3.22,1.86-5.76,4.01-7.62,6.44v72.58h-28.13v-103.5h25.55l1.29,9.02c3.87-4.15,7.76-7.05,11.7-8.7,3.94-1.64,8.05-2.47,12.35-2.47,2.43,0,5.01.29,7.73.86,2.72.57,5.51,1.36,8.38,2.36l-4.94,24.27Zm-7.73-290.8c-10.45,4.87-22.33,7.3-35.65,7.3h-43.59v-143.23h42.52c5.44,0,11.45.43,18.04,1.29,6.58.86,12.88,2.58,18.9,5.15,6.15,2.87,11.56,6.55,16.21,11.06,4.65,4.51,8.48,9.59,11.49,15.25,3.01,5.66,5.26,11.74,6.76,18.25,1.5,6.52,2.25,13.14,2.25,19.86s-.75,13.35-2.25,19.86c-1.5,6.52-3.79,12.67-6.87,18.47-3.08,5.8-6.95,10.99-11.6,15.57-4.65,4.58-10.06,8.3-16.21,11.17Zm106.29,368.96h-25.77l-1.29-7.73c-3.01,3.15-6.84,5.62-11.49,7.41-4.65,1.79-9.77,2.68-15.35,2.68-4.58,0-9.06-.75-13.42-2.25-4.37-1.5-8.2-3.65-11.49-6.44-3.29-2.79-5.94-6.23-7.94-10.31-2.01-4.08-3.01-8.7-3.01-13.85s1.07-9.7,3.22-13.64c2.15-3.94,5.01-7.26,8.59-9.99,3.58-2.72,7.69-4.94,12.35-6.66,4.65-1.72,9.56-3.01,14.71-3.87,3.58-.71,7.52-1.25,11.81-1.61,4.29-.36,7.87-.68,10.74-.97v-3.44c0-4.15-1.43-7.52-4.29-10.09-2.87-2.58-6.23-3.87-10.09-3.87-2.44,0-5.51.64-9.23,1.93-3.72,1.29-7.3,3.72-10.74,7.3l-19.11-13.31c2.72-3.44,5.83-6.3,9.34-8.59,3.51-2.29,7.09-4.08,10.74-5.37s7.26-2.18,10.84-2.68c3.58-.5,6.87-.75,9.88-.75,6.01,0,11.52.75,16.53,2.25,5.01,1.5,9.34,3.87,12.99,7.09,3.65,3.22,6.48,7.3,8.48,12.24,2,4.94,3.01,10.92,3.01,17.93v66.57Zm-1.72-359.3c-6.87,0-13.39-1.07-19.54-3.22-6.16-2.15-11.56-5.48-16.21-9.99-4.65-4.51-8.34-10.13-11.06-16.86-2.72-6.73-4.08-14.74-4.08-24.05,0-8.73,1.32-16.46,3.97-23.19,2.65-6.73,6.26-12.38,10.84-16.96s9.91-8.09,16-10.52c6.08-2.43,12.56-3.65,19.43-3.65,14.46,0,26.09,5.05,34.9,15.14s13.35,25.38,13.64,45.85h-70.65c.71,8.73,3.4,15.03,8.05,18.9,4.65,3.87,9.84,5.8,15.57,5.8,5.01,0,9.52-.89,13.53-2.68,4.01-1.79,8.16-5.69,12.46-11.7l20.83,12.67c-5.87,9.02-12.67,15.35-20.4,19s-16.82,5.48-27.27,5.48Zm126.48,359.3h-28.13v-59.05c0-7.87-1.72-13.96-5.15-18.25-3.44-4.29-8.23-6.44-14.39-6.44-4.29,0-8.3,1.07-12.02,3.22-3.72,2.15-6.95,4.51-9.66,7.09v73.44h-28.13v-103.5h25.55l1.29,8.16c4.29-3.44,9.23-6.08,14.82-7.95,5.58-1.86,11.17-2.79,16.75-2.79s10.98.83,15.78,2.47c4.79,1.65,8.91,4.26,12.35,7.84,3.44,3.58,6.12,8.23,8.05,13.96,1.93,5.73,2.9,12.6,2.9,20.62v61.2Zm5.4-184.51c-3.22,1.99-6.9,3.53-11.04,4.6-4.14,1.07-9.12,1.61-14.95,1.61-7.36,0-13.99-1.27-19.9-3.79-5.9-2.53-10.89-5.87-14.95-10-4.06-4.14-7.17-8.97-9.31-14.49-2.15-5.52-3.22-11.27-3.22-17.25,0-9.2,2.64-18.32,7.93-27.37,5.29-9.04,13.69-16.79,25.19-23.23-3.07-3.83-5.79-7.94-8.17-12.31-2.38-4.37-3.56-9.31-3.56-14.83,0-5.06,1.04-9.62,3.1-13.68,2.07-4.06,4.87-7.48,8.4-10.24,3.53-2.76,7.74-4.91,12.65-6.44,4.91-1.53,10.2-2.3,15.87-2.3s10.62.54,14.83,1.61c4.22,1.07,7.94,2.61,11.16,4.6,3.22,2,6.02,4.33,8.4,7.02,2.38,2.68,4.48,5.71,6.32,9.08l-23.46,13.11c-1.99-3.83-4.41-6.97-7.25-9.43-2.84-2.45-6.17-3.68-10-3.68-3.22,0-5.9.84-8.05,2.53-2.15,1.69-3.22,3.99-3.22,6.9,0,2.15.58,4.33,1.73,6.55,1.15,2.22,2.8,4.64,4.94,7.25l31.51,40.71c4.29-7.82,8.93-15.25,13.92-22.31,4.98-7.05,10.92-12.88,17.82-17.48l15.64,21.16c-6.29,5.06-11.73,11.27-16.33,18.63-4.6,7.36-9.12,14.95-13.57,22.77l34.04,44.39h-34.96l-15.18-19.78c-2.61,3.22-5.17,6.21-7.71,8.97-2.53,2.76-5.4,5.14-8.62,7.13Zm113.57,184.51h-25.55l-1.29-7.95c-2.58,2.72-5.94,5.12-10.09,7.19-4.15,2.07-9.09,3.11-14.82,3.11-7.45,0-14.06-1.5-19.86-4.51-5.8-3.01-10.67-7.01-14.6-12.03-3.94-5.01-6.91-10.81-8.91-17.39-2.01-6.58-3.01-13.46-3.01-20.62,0-6.73,1.07-13.31,3.22-19.76,2.15-6.44,5.37-12.2,9.66-17.29,4.29-5.08,9.66-9.16,16.11-12.24,6.44-3.08,14.03-4.62,22.76-4.62,5.87,0,12.03,1,18.47,3.01v-40.16h27.92v143.23Zm55.83,0h-27.92v-103.5h27.92v103.5Zm-1.4-120.04c-2.79,3.15-6.98,4.72-12.56,4.72s-9.77-1.57-12.56-4.72c-2.79-3.15-4.19-6.66-4.19-10.52s1.4-7.16,4.19-10.31c2.79-3.15,6.98-4.72,12.56-4.72s9.77,1.58,12.56,4.72c2.79,3.15,4.19,6.59,4.19,10.31s-1.4,7.38-4.19,10.52Zm22.87-215.1c-3.01,4.08-6.95,7.37-11.81,9.88-4.87,2.5-10.49,4.26-16.86,5.26-6.37,1-12.85,1.5-19.43,1.5s-13.07-.5-19.43-1.5c-6.37-1-12.06-2.68-17.07-5.05-5.01-2.36-9.06-5.51-12.13-9.45-3.08-3.94-4.62-8.91-4.62-14.92,0-5.01,1.07-9.06,3.22-12.13,2.15-3.08,5.08-5.62,8.8-7.62-2.01-1.57-3.76-3.65-5.26-6.23-1.5-2.58-2.25-5.44-2.25-8.59,0-3.72,1.07-7.05,3.22-9.99,2.15-2.93,5.01-5.4,8.59-7.41-4.15-3.29-7.48-7.33-9.99-12.13-2.51-4.79-3.76-10.06-3.76-15.78,0-6.44,1.32-12.06,3.97-16.86,2.65-4.79,6.15-8.8,10.52-12.03,4.36-3.22,9.37-5.62,15.03-7.19,5.65-1.57,11.49-2.36,17.5-2.36,4.15,0,7.87.36,11.17,1.07,3.29.72,6.8,1.79,10.52,3.22l16.53-17.39,15.68,12.88-15.03,15.89c2.72,3.01,4.83,6.52,6.33,10.52,1.5,4.01,2.25,8.09,2.25,12.24,0,6.44-1.33,12.06-3.97,16.86-2.65,4.8-6.19,8.77-10.63,11.92-4.44,3.15-9.52,5.51-15.25,7.09-5.73,1.58-11.6,2.36-17.61,2.36-2.72,0-5.41-.18-8.05-.54-2.65-.36-4.91-.75-6.76-1.18-.72.43-1.43,1.15-2.15,2.15-.72,1-1.07,1.93-1.07,2.79,0,1,.36,1.86,1.07,2.58.71.72,2.11,1.36,4.19,1.93,2.07.57,4.97,1.07,8.7,1.5,3.72.43,8.66.72,14.82.86,7.44.29,14.03.97,19.76,2.04,5.72,1.07,10.48,2.79,14.28,5.15,3.79,2.36,6.66,5.44,8.59,9.23,1.93,3.79,2.9,8.48,2.9,14.07,0,6.15-1.5,11.27-4.51,15.35Zm103.93,335.14h-28.13v-59.05c0-7.87-1.72-13.96-5.15-18.25-3.44-4.29-8.23-6.44-14.39-6.44-4.29,0-8.3,1.07-12.02,3.22-3.72,2.15-6.95,4.51-9.66,7.09v73.44h-28.13v-103.5h25.55l1.29,8.16c4.29-3.44,9.23-6.08,14.82-7.95,5.58-1.86,11.17-2.79,16.75-2.79s10.98.83,15.78,2.47c4.79,1.65,8.91,4.26,12.35,7.84,3.44,3.58,6.12,8.23,8.05,13.96,1.93,5.73,2.9,12.6,2.9,20.62v61.2Zm13.53-361.66h-28.13v-59.05c0-7.87-1.72-13.96-5.15-18.25-3.44-4.29-8.23-6.44-14.39-6.44-4.29,0-8.3,1.07-12.02,3.22-3.72,2.15-6.95,4.51-9.66,7.09v73.44h-28.13v-103.5h25.55l1.29,8.16c4.29-3.44,9.23-6.08,14.82-7.95,5.58-1.86,11.17-2.79,16.75-2.79s10.98.83,15.78,2.47c4.79,1.65,8.91,4.26,12.35,7.84,3.44,3.58,6.12,8.23,8.05,13.96,1.93,5.73,2.9,12.6,2.9,20.61v61.2Zm108.23,388.18c-3.01,4.08-6.95,7.37-11.81,9.88-4.87,2.5-10.49,4.26-16.86,5.26-6.37,1-12.85,1.5-19.43,1.5s-13.07-.5-19.43-1.5c-6.37-1-12.06-2.68-17.07-5.05-5.01-2.36-9.06-5.51-12.13-9.45-3.08-3.94-4.62-8.91-4.62-14.92,0-5.01,1.07-9.06,3.22-12.13,2.15-3.08,5.08-5.62,8.8-7.62-2.01-1.57-3.76-3.65-5.26-6.23-1.5-2.58-2.25-5.44-2.25-8.59,0-3.72,1.07-7.05,3.22-9.99,2.15-2.93,5.01-5.4,8.59-7.41-4.15-3.29-7.48-7.33-9.99-12.13-2.51-4.79-3.76-10.06-3.76-15.78,0-6.44,1.32-12.06,3.97-16.86,2.65-4.79,6.15-8.8,10.52-12.03,4.36-3.22,9.37-5.62,15.03-7.19,5.65-1.57,11.49-2.36,17.5-2.36,4.15,0,7.87.36,11.17,1.07,3.29.72,6.8,1.79,10.52,3.22l16.53-17.39,15.68,12.88-15.03,15.89c2.72,3.01,4.83,6.52,6.33,10.52,1.5,4.01,2.25,8.09,2.25,12.24,0,6.44-1.33,12.06-3.97,16.86-2.65,4.8-6.19,8.77-10.63,11.92-4.44,3.15-9.52,5.51-15.25,7.09-5.73,1.58-11.6,2.36-17.61,2.36-2.72,0-5.41-.18-8.05-.54-2.65-.36-4.91-.75-6.76-1.18-.72.43-1.43,1.15-2.15,2.15-.72,1-1.07,1.93-1.07,2.79,0,1,.36,1.86,1.07,2.58.71.72,2.11,1.36,4.19,1.93,2.07.57,4.97,1.07,8.7,1.5,3.72.43,8.66.72,14.82.86,7.44.29,14.03.97,19.76,2.04,5.72,1.07,10.48,2.79,14.28,5.15,3.79,2.36,6.66,5.44,8.59,9.23,1.93,3.79,2.9,8.48,2.9,14.07,0,6.15-1.5,11.27-4.51,15.35Z"/></svg>