<?xml version="1.0" encoding="UTF-8"?><svg id="Layer_1" xmlns="http://www.w3.org/2000/svg" viewBox="0 0 2025 283.5"><defs><style>.cls-1{fill:#303d4e;}</style></defs><path class="cls-1" d="m1306.8,148.17c-2.5-2.1-5.1-3.1-7.9-3.1-1.5,0-2.9.3-4.4.8-1.4.6-2.8,1.4-4,2.5s-2.2,2.4-3.1,4c-.8,1.6-1.4,3.3-1.6,5.2h25.1c-.2-4.2-1.6-7.3-4.1-9.4Z"/><path class="cls-1" d="m950.2,148.17c-2.5-2.1-5.1-3.1-7.9-3.1-1.5,0-2.9.3-4.4.8-1.4.6-2.8,1.4-4,2.5s-2.2,2.4-3.1,4c-.8,1.6-1.4,3.3-1.6,5.2h25.1c-.2-4.2-1.6-7.3-4.1-9.4Z"/><path class="cls-1" d="m1100.5,148.17c-2.5-2.1-5.1-3.1-7.9-3.1-1.5,0-2.9.3-4.4.8-1.4.6-2.8,1.4-4,2.5s-2.2,2.4-3.1,4c-.8,1.6-1.4,3.3-1.6,5.2h25.1c-.2-4.2-1.6-7.3-4.1-9.4Z"/><path class="cls-1" d="m882.8,151.77c-1.2-1.8-2.6-3.3-4.4-4.4-1.8-1.1-3.9-1.7-6.3-1.7s-4.6.6-6.6,1.9c-2.1,1.3-3.6,2.6-4.7,4.1v30.3c2.7,1.2,5.3,1.8,7.9,1.8,3,0,5.7-.5,7.9-1.6,2.2-1,4.1-2.4,5.5-4.2,1.5-1.8,2.6-3.8,3.2-6,.7-2.2,1-4.5,1-6.8s-.3-4.8-.9-7.1c-.6-2.4-1.5-4.4-2.6-6.3Z"/><path class="cls-1" d="m-142.5-620.33V928.67h2310V-620.33H-142.5ZM765.3,196.37h-62.5v-86.7h59.5v15.7h-42v19.8h34.7v15.7h-34.7v19.8h45v15.7Zm51,0l-14.6-19.8-14.7,19.8h-17.7l23.5-30.9-23.9-31.7h19.1l14.4,19.4,14.4-19.4h17.4l-22.9,30.6,23.9,32.1h-18.9v-.1h0Zm84.6-19.4c-1.3,3.9-3.3,7.5-6,10.5-2.7,3.1-6.2,5.6-10.4,7.5s-9.2,2.9-14.9,2.9c-2.9,0-5.9-.6-8.7-1.8v25h-17v-87.2h15.5l.8,4.7c1.6-1.5,3.6-2.9,6.2-4.2,2.6-1.3,5.7-2,9.2-2,4.5,0,8.5.9,11.9,2.7s6.3,4.2,8.5,7.2c2.3,3,4,6.5,5.1,10.5,1.2,4,1.8,8.1,1.8,12.3-.1,3.9-.7,7.9-2,11.9Zm33,3.6c2.8,2.3,6,3.5,9.4,3.5,3,0,5.8-.5,8.2-1.6s4.9-3.4,7.5-7.1l12.6,7.7c-3.6,5.5-7.7,9.3-12.3,11.5s-10.2,3.3-16.5,3.3c-4.2,0-8.1-.7-11.8-2s-7-3.3-9.8-6-5-6.1-6.7-10.2c-1.6-4.1-2.5-8.9-2.5-14.6,0-5.3.8-10,2.4-14,1.6-4.1,3.8-7.5,6.6-10.3s6-4.9,9.7-6.4,7.6-2.2,11.8-2.2c8.8,0,15.8,3.1,21.1,9.2s8.1,15.4,8.3,27.8h-42.9c.4,5.2,2,9,4.9,11.4Zm87.8-31.5c-1.7-.7-3.4-1.2-4.9-1.6s-3-.6-4.5-.6c-2.4,0-4.6.6-6.6,1.7s-3.5,2.4-4.6,3.9v43.9h-17v-62.7h15.5l.8,5.5c2.3-2.5,4.7-4.3,7.1-5.3,2.4-1,4.9-1.5,7.5-1.5,1.5,0,3,.2,4.7.5,1.6.3,3.3.8,5.1,1.4l-3.1,14.8Zm27.5,47.3h-16.9v-62.7h16.9v62.7Zm-.8-72.6c-1.7,1.9-4.2,2.9-7.6,2.9s-5.9-1-7.6-2.9-2.5-4-2.5-6.4.8-4.3,2.5-6.2,4.2-2.9,7.6-2.9,5.9,1,7.6,2.9,2.5,4,2.5,6.2-.8,4.5-2.5,6.4Zm35.7,56.8c2.8,2.3,6,3.5,9.4,3.5,3,0,5.8-.5,8.2-1.6,2.4-1.1,4.9-3.4,7.5-7.1l12.6,7.7c-3.6,5.5-7.7,9.3-12.3,11.5s-10.2,3.3-16.5,3.3c-4.2,0-8.1-.7-11.8-2-3.7-1.3-7-3.3-9.8-6s-5-6.1-6.7-10.2c-1.6-4.1-2.5-8.9-2.5-14.6,0-5.3.8-10,2.4-14,1.6-4.1,3.8-7.5,6.6-10.3,2.8-2.8,6-4.9,9.7-6.4s7.6-2.2,11.8-2.2c8.8,0,15.8,3.1,21.1,9.2,5.3,6.1,8.1,15.4,8.3,27.8h-42.8c.4,5.2,2,9,4.8,11.4Zm109.3,15.8h-17v-35.8c0-4.8-1-8.4-3.1-11s-5-3.9-8.7-3.9c-2.6,0-5,.7-7.3,2s-4.2,2.7-5.8,4.3v44.5h-17v-62.7h15.5l.8,4.9c2.6-2.1,5.6-3.7,9-4.8s6.8-1.7,10.1-1.7c3.5,0,6.7.5,9.6,1.5s5.4,2.6,7.5,4.7c2.1,2.2,3.7,5,4.9,8.5,1.2,3.5,1.8,7.6,1.8,12.5v37h-.3Zm59.1-2.6c-4.6,2.7-9.9,4-15.9,4-4,0-7.8-.7-11.5-2.1s-6.9-3.4-9.8-6.2c-2.8-2.7-5.1-6.1-6.8-10.1s-2.5-8.7-2.5-14.1.8-10.4,2.5-14.6c1.6-4.2,3.8-7.6,6.6-10.4,2.7-2.8,5.9-4.8,9.4-6.2,3.6-1.3,7.2-2,11-2s7.2.5,10.2,1.6,5.6,2.5,7.8,4.2c2.2,1.7,4,3.7,5.5,5.9,1.4,2.2,2.5,4.3,3.3,6.5l-13.4,6.6c-1.5-4.2-3.3-7.1-5.5-8.8s-4.7-2.5-7.5-2.5c-1.7,0-3.4.4-4.9,1.2-1.6.8-3,1.9-4.2,3.5-1.3,1.6-2.3,3.6-3,6s-1.1,5.3-1.1,8.7c0,6,1.3,10.6,4,13.9,2.6,3.3,6.1,4.9,10.3,4.9,3.3,0,6-.8,8.1-2.5,2.1-1.6,3.9-4,5.6-7l12.7,6.9c-2.8,5.8-6.4,9.9-10.9,12.6Zm37.9-13.2c2.8,2.3,6,3.5,9.4,3.5,3,0,5.8-.5,8.2-1.6,2.4-1.1,4.9-3.4,7.5-7.1l12.6,7.7c-3.6,5.5-7.7,9.3-12.3,11.5s-10.2,3.3-16.5,3.3c-4.2,0-8.1-.7-11.8-2-3.7-1.3-7-3.3-9.8-6s-5-6.1-6.7-10.2c-1.6-4.1-2.5-8.9-2.5-14.6,0-5.3.8-10,2.4-14,1.6-4.1,3.8-7.5,6.6-10.3,2.8-2.8,6-4.9,9.7-6.4s7.6-2.2,11.8-2.2c8.8,0,15.8,3.1,21.1,9.2,5.3,6.1,8.1,15.4,8.3,27.8h-42.8c.4,5.2,2,9,4.8,11.4Z"/></svg>