<?xml version="1.0" encoding="utf-8"?>
<!-- Generator: Adobe Illustrator 27.5.0, SVG Export Plug-In . SVG Version: 6.00 Build 0)  -->
<svg version="1.1" id="Layer_1" xmlns="http://www.w3.org/2000/svg" xmlns:xlink="http://www.w3.org/1999/xlink" x="0px" y="0px"
	 viewBox="0 0 2025 283.5" style="enable-background:new 0 0 2025 283.5;" xml:space="preserve">
<style type="text/css">
	.st0{fill:#303D4E;}
</style>
<g>
	<path class="st0" d="M1306.8,206.9c-2.5-2.1-5.1-3.1-7.9-3.1c-1.5,0-2.9,0.3-4.4,0.8c-1.4,0.6-2.8,1.4-4,2.5s-2.2,2.4-3.1,4
		c-0.8,1.6-1.4,3.3-1.6,5.2h25.1C1310.7,212.1,1309.3,209,1306.8,206.9z"/>
	<path class="st0" d="M950.2,206.9c-2.5-2.1-5.1-3.1-7.9-3.1c-1.5,0-2.9,0.3-4.4,0.8c-1.4,0.6-2.8,1.4-4,2.5s-2.2,2.4-3.1,4
		c-0.8,1.6-1.4,3.3-1.6,5.2h25.1C954.1,212.1,952.7,209,950.2,206.9z"/>
	<path class="st0" d="M1100.5,206.9c-2.5-2.1-5.1-3.1-7.9-3.1c-1.5,0-2.9,0.3-4.4,0.8c-1.4,0.6-2.8,1.4-4,2.5s-2.2,2.4-3.1,4
		c-0.8,1.6-1.4,3.3-1.6,5.2h25.1C1104.4,212.1,1103,209,1100.5,206.9z"/>
	<path class="st0" d="M882.8,210.5c-1.2-1.8-2.6-3.3-4.4-4.4c-1.8-1.1-3.9-1.7-6.3-1.7c-2.3,0-4.6,0.6-6.6,1.9
		c-2.1,1.3-3.6,2.6-4.7,4.1v30.3c2.7,1.2,5.3,1.8,7.9,1.8c3,0,5.7-0.5,7.9-1.6c2.2-1,4.1-2.4,5.5-4.2c1.5-1.8,2.6-3.8,3.2-6
		c0.7-2.2,1-4.5,1-6.8c0-2.4-0.3-4.8-0.9-7.1C884.8,214.4,883.9,212.4,882.8,210.5z"/>
	<path class="st0" d="M-142.5-561.6v1549h2310v-1549H-142.5z M765.3,255.1h-62.5v-86.7h59.5v15.7h-42v19.8H755v15.7h-34.7v19.8h45
		V255.1z M816.3,255.1l-14.6-19.8L787,255.1h-17.7l23.5-30.9l-23.9-31.7H788l14.4,19.4l14.4-19.4h17.4l-22.9,30.6l23.9,32.1h-18.9
		V255.1z M900.9,235.7c-1.3,3.9-3.3,7.5-6,10.5c-2.7,3.1-6.2,5.6-10.4,7.5s-9.2,2.9-14.9,2.9c-2.9,0-5.9-0.6-8.7-1.8v25h-17v-87.2
		h15.5l0.8,4.7c1.6-1.5,3.6-2.9,6.2-4.2c2.6-1.3,5.7-2,9.2-2c4.5,0,8.5,0.9,11.9,2.7c3.4,1.8,6.3,4.2,8.5,7.2c2.3,3,4,6.5,5.1,10.5
		c1.2,4,1.8,8.1,1.8,12.3C902.8,227.7,902.2,231.7,900.9,235.7z M933.9,239.3c2.8,2.3,6,3.5,9.4,3.5c3,0,5.8-0.5,8.2-1.6
		s4.9-3.4,7.5-7.1l12.6,7.7c-3.6,5.5-7.7,9.3-12.3,11.5s-10.2,3.3-16.5,3.3c-4.2,0-8.1-0.7-11.8-2s-7-3.3-9.8-6s-5-6.1-6.7-10.2
		c-1.6-4.1-2.5-8.9-2.5-14.6c0-5.3,0.8-10,2.4-14c1.6-4.1,3.8-7.5,6.6-10.3s6-4.9,9.7-6.4s7.6-2.2,11.8-2.2c8.8,0,15.8,3.1,21.1,9.2
		s8.1,15.4,8.3,27.8H929C929.4,233.1,931,236.9,933.9,239.3z M1021.7,207.8c-1.7-0.7-3.4-1.2-4.9-1.6s-3-0.6-4.5-0.6
		c-2.4,0-4.6,0.6-6.6,1.7s-3.5,2.4-4.6,3.9v43.9h-17v-62.7h15.5l0.8,5.5c2.3-2.5,4.7-4.3,7.1-5.3c2.4-1,4.9-1.5,7.5-1.5
		c1.5,0,3,0.2,4.7,0.5c1.6,0.3,3.3,0.8,5.1,1.4L1021.7,207.8z M1049.2,255.1h-16.9v-62.7h16.9V255.1z M1048.4,182.5
		c-1.7,1.9-4.2,2.9-7.6,2.9s-5.9-1-7.6-2.9s-2.5-4-2.5-6.4c0-2.3,0.8-4.3,2.5-6.2c1.7-1.9,4.2-2.9,7.6-2.9s5.9,1,7.6,2.9
		s2.5,4,2.5,6.2C1050.9,178.4,1050.1,180.6,1048.4,182.5z M1084.1,239.3c2.8,2.3,6,3.5,9.4,3.5c3,0,5.8-0.5,8.2-1.6
		c2.4-1.1,4.9-3.4,7.5-7.1l12.6,7.7c-3.6,5.5-7.7,9.3-12.3,11.5s-10.2,3.3-16.5,3.3c-4.2,0-8.1-0.7-11.8-2c-3.7-1.3-7-3.3-9.8-6
		s-5-6.1-6.7-10.2c-1.6-4.1-2.5-8.9-2.5-14.6c0-5.3,0.8-10,2.4-14c1.6-4.1,3.8-7.5,6.6-10.3c2.8-2.8,6-4.9,9.7-6.4s7.6-2.2,11.8-2.2
		c8.8,0,15.8,3.1,21.1,9.2c5.3,6.1,8.1,15.4,8.3,27.8h-42.8C1079.7,233.1,1081.3,236.9,1084.1,239.3z M1193.4,255.1h-17v-35.8
		c0-4.8-1-8.4-3.1-11s-5-3.9-8.7-3.9c-2.6,0-5,0.7-7.3,2s-4.2,2.7-5.8,4.3v44.5h-17v-62.7h15.5l0.8,4.9c2.6-2.1,5.6-3.7,9-4.8
		c3.4-1.1,6.8-1.7,10.1-1.7c3.5,0,6.7,0.5,9.6,1.5s5.4,2.6,7.5,4.7c2.1,2.2,3.7,5,4.9,8.5c1.2,3.5,1.8,7.6,1.8,12.5v37H1193.4z
		 M1252.5,252.5c-4.6,2.7-9.9,4-15.9,4c-4,0-7.8-0.7-11.5-2.1s-6.9-3.4-9.8-6.2c-2.8-2.7-5.1-6.1-6.8-10.1s-2.5-8.7-2.5-14.1
		c0-5.5,0.8-10.4,2.5-14.6c1.6-4.2,3.8-7.6,6.6-10.4c2.7-2.8,5.9-4.8,9.4-6.2c3.6-1.3,7.2-2,11-2s7.2,0.5,10.2,1.6s5.6,2.5,7.8,4.2
		c2.2,1.7,4,3.7,5.5,5.9c1.4,2.2,2.5,4.3,3.3,6.5l-13.4,6.6c-1.5-4.2-3.3-7.1-5.5-8.8s-4.7-2.5-7.5-2.5c-1.7,0-3.4,0.4-4.9,1.2
		c-1.6,0.8-3,1.9-4.2,3.5c-1.3,1.6-2.3,3.6-3,6s-1.1,5.3-1.1,8.7c0,6,1.3,10.6,4,13.9c2.6,3.3,6.1,4.9,10.3,4.9c3.3,0,6-0.8,8.1-2.5
		c2.1-1.6,3.9-4,5.6-7l12.7,6.9C1260.6,245.7,1257,249.8,1252.5,252.5z M1290.4,239.3c2.8,2.3,6,3.5,9.4,3.5c3,0,5.8-0.5,8.2-1.6
		c2.4-1.1,4.9-3.4,7.5-7.1l12.6,7.7c-3.6,5.5-7.7,9.3-12.3,11.5s-10.2,3.3-16.5,3.3c-4.2,0-8.1-0.7-11.8-2c-3.7-1.3-7-3.3-9.8-6
		s-5-6.1-6.7-10.2c-1.6-4.1-2.5-8.9-2.5-14.6c0-5.3,0.8-10,2.4-14c1.6-4.1,3.8-7.5,6.6-10.3c2.8-2.8,6-4.9,9.7-6.4s7.6-2.2,11.8-2.2
		c8.8,0,15.8,3.1,21.1,9.2c5.3,6.1,8.1,15.4,8.3,27.8h-42.8C1286,233.1,1287.6,236.9,1290.4,239.3z"/>
</g>
</svg>
