<?xml version="1.0" encoding="UTF-8"?><svg id="Layer_1" xmlns="http://www.w3.org/2000/svg" viewBox="0 0 2025 283.5"><defs><style>.cls-1{fill:#999;}</style></defs><path class="cls-1" d="m1405.53,152.62c-1.39-.69-2.97-1.19-4.75-1.5-1.78-.3-3.75-.46-5.92-.46h-12.22v22.23h12.48c3.03,0,5.42-.13,7.15-.39,1.73-.26,3.16-.69,4.29-1.3,1.91-1.04,3.29-2.32,4.16-3.83.87-1.52,1.3-3.1,1.3-4.75,0-1.91-.54-3.77-1.62-5.59-1.08-1.82-2.71-3.29-4.88-4.42Z"/><path class="cls-1" d="m670.38,123.63c-1.91-2.77-4.27-4.98-7.08-6.63-2.82-1.65-6.04-2.47-9.69-2.47s-6.82.82-9.55,2.47c-2.73,1.65-5.05,3.86-6.96,6.63-1.91,2.77-3.34,5.96-4.29,9.55-.95,3.6-1.43,7.3-1.43,11.12s.48,7.52,1.43,11.12c.95,3.6,2.38,6.78,4.29,9.55,1.91,2.77,4.23,4.98,6.96,6.63,2.73,1.65,5.92,2.47,9.55,2.47s6.87-.82,9.69-2.47c2.82-1.65,5.18-3.86,7.08-6.63,1.91-2.77,3.34-5.96,4.29-9.55.95-3.6,1.43-7.3,1.43-11.12s-.48-7.52-1.43-11.12c-.95-3.6-2.38-6.78-4.29-9.55Z"/><path class="cls-1" d="m1396.95,136.24c1.82-.17,3.12-.47,3.9-.91,2.25-1.04,3.88-2.36,4.88-3.97,1-1.6,1.5-3.27,1.5-5,0-2.08-.67-4.01-2.01-5.79-1.34-1.78-3.36-3.1-6.05-3.96-.43-.09-1.02-.2-1.75-.33-.74-.13-1.56-.22-2.47-.26-.91-.04-1.82-.09-2.73-.13-.91-.04-1.71-.06-2.41-.06h-7.15v20.67h8.58c1.99,0,3.9-.09,5.72-.26Z"/><path class="cls-1" d="m-1.52-.96v285.43h2028.03V-.96H-1.52Zm1441.88,101.97h17.16v59.28h-17.16v-59.28Zm-842.52,78c0,4.07-.74,7.65-2.21,10.72-1.47,3.08-3.58,5.72-6.31,7.93s-5.98,4.01-9.75,5.39c-3.77,1.39-8,2.47-12.67,3.25l-3.25-14.82c6.06-1.21,10.35-3.08,12.87-5.59,2.51-2.51,3.77-5.76,3.77-9.75v-75.14h17.55v78Zm93.6-18.26c-1.65,5.42-4.16,10.25-7.54,14.49-3.38,4.25-7.58,7.69-12.61,10.34-5.03,2.64-10.92,3.96-17.68,3.96s-12.52-1.3-17.55-3.9c-5.03-2.69-9.19-6.15-12.48-10.4-3.29-4.25-5.76-9.08-7.41-14.49-1.65-5.42-2.47-10.9-2.47-16.45s.82-11.03,2.47-16.45c1.65-5.42,4.12-10.25,7.41-14.49,3.29-4.25,7.45-7.67,12.48-10.27,5.03-2.6,10.88-3.9,17.55-3.9s12.65,1.3,17.68,3.9c5.03,2.6,9.23,6.02,12.61,10.27,3.38,4.25,5.89,9.08,7.54,14.49,1.65,5.42,2.47,10.9,2.47,16.45s-.82,11.03-2.47,16.45Zm35.88,26.97h-17.55v-86.71h17.55v86.71Zm90.35,0h-15.34l-37.7-57.33v57.33h-17.29v-86.71h17.94l35.1,54.08v-54.08h17.29v86.71Zm105.95-70.98h-25.74v70.98h-17.68v-70.98h-25.87v-15.73h69.29v15.73Zm80.21,70.98h-17.55v-36.66h-34.45v36.66h-17.55v-86.71h17.55v34.32h34.45v-34.32h17.55v86.71Zm82.55,0h-62.53v-86.71h59.54v15.73h-41.99v19.76h34.71v15.73h-34.71v19.76h44.98v15.73Zm92.3-2.54c-4.94,2.9-10.96,4.36-18.07,4.36-5.72,0-10.96-1-15.73-2.99-4.77-1.99-8.86-4.92-12.29-8.78-3.42-3.86-6.07-8.56-7.93-14.1-1.86-5.55-2.79-11.87-2.79-18.98,0-7.8,1.06-14.54,3.19-20.21,2.12-5.68,4.94-10.4,8.45-14.17,3.51-3.77,7.58-6.56,12.22-8.38,4.63-1.82,9.42-2.73,14.37-2.73,3.99,0,7.58.45,10.79,1.36,3.21.91,6.09,2.23,8.64,3.96,2.56,1.73,4.81,3.86,6.76,6.37,1.95,2.51,3.66,5.38,5.14,8.58l-14.17,7.93c-1.74-3.73-3.88-6.8-6.44-9.23-2.56-2.43-6-3.64-10.33-3.64-2.69,0-5.29.61-7.8,1.82-2.51,1.21-4.72,3.08-6.63,5.59-1.91,2.51-3.45,5.65-4.62,9.42s-1.75,8.21-1.75,13.32c0,4.51.56,8.58,1.69,12.22,1.13,3.64,2.67,6.72,4.62,9.23,1.95,2.51,4.23,4.46,6.83,5.85,2.6,1.39,5.42,2.08,8.45,2.08,1.65,0,3.23-.17,4.75-.52,1.51-.35,2.97-.97,4.35-1.88,1.39-.91,2.73-2.12,4.03-3.64,1.3-1.51,2.6-3.49,3.9-5.92l13.65,8.32c-3.9,6.93-8.32,11.85-13.26,14.75Zm87.62,2.54h-61.23v-86.71h17.55v70.98h43.68v15.73Zm79.56-29.77c0,4.94-.91,9.36-2.73,13.26-1.82,3.9-4.33,7.21-7.54,9.94-3.21,2.73-6.93,4.81-11.18,6.24-4.25,1.43-8.84,2.15-13.78,2.15s-9.42-.71-13.71-2.15c-4.29-1.43-8.02-3.51-11.18-6.24-3.17-2.73-5.66-6.04-7.48-9.94-1.82-3.9-2.73-8.32-2.73-13.26v-56.94h17.55v55.25c0,5.2,1.52,9.47,4.55,12.8,3.03,3.34,7.41,5,13.13,5s10.08-1.67,13.07-5c2.99-3.33,4.48-7.6,4.48-12.8v-55.25h17.55v56.94Zm80.08,18.44c-2.6,4.17-6.54,7.25-11.83,9.24-1.99.69-4.14,1.21-6.43,1.56-2.3.35-4.53.52-6.7.52h-35.62v-86.71h30.94c4.16,0,8,.52,11.5,1.56,3.51,1.04,6.52,2.58,9.04,4.61,2.51,2.03,4.48,4.5,5.92,7.4,1.43,2.9,2.14,6.17,2.14,9.8,0,3.89-.93,7.27-2.79,10.12-1.86,2.86-4.44,5.28-7.74,7.27,4.68,1.65,8.43,4.28,11.25,7.88,2.82,3.6,4.23,8.14,4.23,13.6,0,4.6-1.3,8.98-3.9,13.15Zm32.63,6.19c-.52,1.26-1.26,2.38-2.21,3.38-.95,1-2.06,1.78-3.31,2.34-1.26.56-2.67.84-4.22.84-3.12,0-5.68-1.06-7.67-3.18-1.99-2.12-2.99-4.57-2.99-7.34s1-5.22,2.99-7.35c1.99-2.12,4.55-3.18,7.67-3.18,1.56,0,2.97.3,4.22.91,1.25.61,2.36,1.39,3.31,2.34.95.95,1.69,2.06,2.21,3.31.52,1.26.78,2.58.78,3.97s-.26,2.71-.78,3.96Z"/></svg>