<?xml version="1.0" encoding="utf-8"?>
<!-- Generator: Adobe Illustrator 27.7.0, SVG Export Plug-In . SVG Version: 6.00 Build 0)  -->
<svg version="1.1" id="Layer_1" xmlns="http://www.w3.org/2000/svg" xmlns:xlink="http://www.w3.org/1999/xlink" x="0px" y="0px"
	 viewBox="0 0 2025 886" style="enable-background:new 0 0 2025 886;" xml:space="preserve">
<style type="text/css">
	.st0{fill:#303D4E;}
</style>
<g>
	<path class="st0" d="M363.5,512c-2.1-1.4-6.5-2.2-13.1-2.6L341,509c-3.7-0.3-6.9-0.5-9.6-0.7c-2.7-0.2-5.2-0.4-7.5-0.7
		c-1,0.8-1.8,1.8-2.5,3.1c-0.7,1.2-1.1,2.6-1.1,4.3c0,7.1,8,10.6,24,10.6c14.9,0,22.4-2.6,22.4-7.9
		C366.7,515.2,365.6,513.4,363.5,512z"/>
	<path class="st0" d="M330,450c2.7,2.4,6.4,3.7,11,3.7c4.7,0,8.4-1.2,11-3.7c2.6-2.4,3.9-5.6,3.9-9.4c0-3.9-1.3-7.2-3.9-9.8
		c-2.6-2.6-6.2-3.9-11-3.9c-4.8,0-8.4,1.3-11.1,3.9c-2.6,2.6-4,5.8-4,9.6C326,444.3,327.3,447.5,330,450z"/>
	<path class="st0" d="M1311.8,611.6c-6.2,0-11.1,2.4-14.4,7.2c-3.4,4.8-5.1,10.8-5.1,18c0,8.1,1.6,14.6,4.8,19.2
		c3.2,4.7,7.6,7,13.3,7c2.4,0,4.8-0.5,7.1-1.5c2.3-1,4-2.3,5.1-4v-43.8c-1.5-0.7-3.1-1.2-4.8-1.6
		C1316.1,611.8,1314.1,611.6,1311.8,611.6z"/>
	<path class="st0" d="M465.4,608c-4.1,0-7.6,1.6-10.7,4.7c-3.1,3.1-4.9,7.3-5.4,12.4h30.9c-0.4-5.3-2-9.5-4.8-12.5
		C472.7,609.5,469.3,608,465.4,608z"/>
	<path class="st0" d="M683.5,608c-4.1,0-7.6,1.6-10.7,4.7c-3.1,3.1-4.9,7.3-5.4,12.4h30.9c-0.4-5.3-2-9.5-4.8-12.5
		C690.8,609.5,687.5,608,683.5,608z"/>
	<path class="st0" d="M857.7,248c-5.7,0-10,2.4-12.9,7.1c-2.9,4.8-4.4,10.8-4.4,18.1s1.4,13.5,4.3,18.5c3,5,7.3,7.5,13,7.5
		s10-2.5,12.8-7.5c2.8-5,4.3-11.2,4.3-18.5s-1.4-13.4-4.3-18.1C867.7,250.4,863.4,248,857.7,248z"/>
	<path class="st0" d="M464.7,430.7c-2.8-3.1-6.1-4.6-10.1-4.6c-4.1,0-7.6,1.6-10.7,4.7c-3.1,3.1-4.9,7.3-5.4,12.4h30.9
		C469,438,467.4,433.8,464.7,430.7z"/>
	<path class="st0" d="M1092.6,429.8c-5.7,0-10,2.4-12.9,7.1c-2.9,4.8-4.4,10.8-4.4,18.1c0,7.3,1.4,13.5,4.3,18.5c3,5,7.3,7.5,13,7.5
		s10-2.5,12.8-7.5c2.8-5,4.3-11.2,4.3-18.5c0-7.3-1.4-13.4-4.3-18.1C1102.6,432.2,1098.3,429.8,1092.6,429.8z"/>
	<path class="st0" d="M319.7,608c-4.1,0-7.6,1.6-10.7,4.7c-3.1,3.1-4.9,7.3-5.4,12.4h30.9c-0.4-5.3-2-9.5-4.8-12.5
		C326.9,609.5,323.6,608,319.7,608z"/>
	<path class="st0" d="M1557.2,514.9c0,7.1,8,10.6,24,10.6c14.9,0,22.4-2.6,22.4-7.9c0-2.3-1.1-4.1-3.2-5.5
		c-2.1-1.4-6.5-2.2-13.1-2.6l-9.4-0.4c-3.7-0.3-6.9-0.5-9.6-0.7c-2.7-0.2-5.2-0.4-7.5-0.7c-1,0.8-1.8,1.8-2.5,3.1
		C1557.6,511.8,1557.2,513.3,1557.2,514.9z"/>
	<path class="st0" d="M1811,268.1c2.7,2.4,6.4,3.7,11,3.7c4.7,0,8.4-1.2,11-3.7c2.6-2.4,3.9-5.6,3.9-9.4c0-3.9-1.3-7.2-3.9-9.8
		c-2.6-2.6-6.2-3.9-11-3.9c-4.8,0-8.4,1.3-11.1,3.9c-2.6,2.6-4,5.8-4,9.6C1806.9,262.5,1808.3,265.7,1811,268.1z"/>
	<path class="st0" d="M1825.2,343.6c14.9,0,22.4-2.6,22.4-7.9c0-2.3-1.1-4.1-3.2-5.5c-2.1-1.4-6.5-2.2-13.1-2.6l-9.4-0.4
		c-3.7-0.3-6.9-0.5-9.6-0.7c-2.7-0.2-5.2-0.4-7.5-0.7c-1,0.8-1.8,1.8-2.5,3.1c-0.7,1.2-1.1,2.6-1.1,4.3
		C1801.2,340.1,1809.2,343.6,1825.2,343.6z"/>
	<path class="st0" d="M-12.8-9.8v905.5h2050.5V-9.8H-12.8z M1772.7,329.2c0.8-2,1.8-3.8,3.1-5.3c1.2-1.5,2.6-2.7,4.2-3.7
		c1.6-0.9,3.2-1.8,4.8-2.4c-2.8-1.9-5.1-4.1-6.7-6.7c-1.6-2.6-2.4-6-2.4-10.2c0-3.7,1.2-7.1,3.7-10.4c2.4-3.3,5-5.6,7.5-7.1
		c-3.5-2.4-6.6-5.9-9.3-10.3c-2.6-4.4-4-9.3-4-14.6c0-6.5,1.3-12.1,3.9-16.7c2.6-4.6,6-8.4,10.3-11.4c4.3-3,9.3-5.2,15-6.6
		c5.7-1.4,11.7-2.1,17.9-2.1c4.6,0,8.5,0.3,11.7,0.9c3.2,0.6,6.3,1.5,9.5,2.5l13.8-14.9l18.3,14.2l-12,13.2c2.3,2.2,4.3,5.1,6.1,8.6
		c1.8,3.6,2.6,7.6,2.6,12.1c0,6-1.3,11.2-3.8,15.6c-2.5,4.4-5.9,8-10.2,10.9s-9.2,5-14.9,6.4c-5.6,1.4-11.6,2.1-17.8,2.1
		c-3.9,0-7.4-0.2-10.5-0.7c-3.1-0.5-5.2-0.9-6.4-1.3c-0.7,0.4-1.4,1.2-2,2.2c-0.7,1.1-1,2.1-1,3.1c0,1.1,0.3,2,1,2.6
		c0.7,0.7,2,1.3,4.1,1.8c2,0.5,5,1,8.8,1.2c3.8,0.3,8.9,0.5,15.3,0.8c3.7,0.1,6.9,0.3,9.7,0.6c2.8,0.3,5.3,0.6,7.5,1
		c2.2,0.4,4.2,0.9,6,1.4c1.8,0.5,3.6,1.2,5.5,1.8c5.2,2,9.1,5,11.9,9c2.8,3.9,4.2,9.2,4.2,15.7c0,3.5-0.6,6.8-1.8,9.8
		c-1.2,3-2.8,5.6-4.9,7.9c-4.6,4.9-11.1,8.4-19.3,10.5c-8.3,2.1-17.7,3.2-28.3,3.2c-7.7,0-14.8-0.6-21.3-1.7
		c-6.4-1.2-11.9-2.9-16.5-5.2c-4.5-2.3-8.1-5.2-10.6-8.6c-2.5-3.5-3.8-7.6-3.8-12.3C1771.5,333.6,1771.9,331.2,1772.7,329.2z
		 M1769.5,414.3c3.3-2.8,7.4-5.4,12.5-7.5c5.1-2.2,10.7-3.3,16.8-3.3c11.3,0,20.4,3.2,27.3,9.6c6.9,6.4,10.4,16.2,10.4,29.5v62.5
		h-35.6v-58.4c0-5.3-1.2-9.4-3.5-12.3c-2.3-2.9-5.6-4.4-10-4.4c-3.1,0-5.9,0.6-8.4,1.9c-2.5,1.3-4.7,2.8-6.6,4.6v68.6h-35.6v-99.3
		h30.9L1769.5,414.3z M1656.5,224h30.9l1.8,8.5c3.3-2.8,7.4-5.4,12.5-7.5c5.1-2.2,10.7-3.3,16.8-3.3c11.3,0,20.4,3.2,27.3,9.6
		c6.9,6.4,10.4,16.2,10.4,29.5v62.5h-35.6v-58.4c0-5.3-1.2-9.4-3.5-12.3c-2.3-2.9-5.6-4.4-10-4.4c-3.1,0-5.9,0.6-8.4,1.9
		c-2.5,1.3-4.7,2.8-6.6,4.6v68.6h-35.6V224z M1604,190.1c3.3-2.8,7.9-4.2,14-4.2s10.8,1.4,14.1,4.2c3.3,2.8,5,6.4,5,10.9
		c0,4.8-1.7,8.5-5,11.3c-3.3,2.8-8,4.2-14.1,4.2s-10.8-1.4-14-4.1c-3.3-2.8-4.9-6.6-4.9-11.4C1599.1,196.5,1600.8,192.9,1604,190.1z
		 M1635.8,224v99.3h-35.4V224H1635.8z M1611.5,392.2l18.3,14.2l-12,13.2c2.3,2.2,4.3,5.1,6.1,8.6c1.8,3.6,2.6,7.6,2.6,12.1
		c0,6-1.3,11.2-3.8,15.6c-2.5,4.4-5.9,8-10.2,10.9s-9.2,5-14.9,6.4c-5.6,1.4-11.6,2.1-17.8,2.1c-3.9,0-7.4-0.2-10.5-0.7
		c-3.1-0.5-5.2-0.9-6.4-1.3c-0.7,0.4-1.4,1.2-2,2.2c-0.7,1.1-1,2.1-1,3.1c0,1.1,0.3,2,1,2.6c0.7,0.7,2,1.3,4.1,1.8
		c2,0.5,5,1,8.8,1.2c3.8,0.3,8.9,0.5,15.3,0.8c3.7,0.1,6.9,0.3,9.7,0.6c2.8,0.3,5.3,0.6,7.5,1c2.2,0.4,4.2,0.9,6,1.4
		c1.8,0.5,3.6,1.2,5.5,1.8c5.2,2,9.1,5,11.9,9c2.8,3.9,4.2,9.2,4.2,15.7c0,3.5-0.6,6.8-1.8,9.8c-1.2,3-2.8,5.6-4.9,7.9
		c-4.6,4.9-11.1,8.4-19.3,10.5c-8.3,2.1-17.7,3.2-28.3,3.2c-7.7,0-14.8-0.6-21.3-1.7c-6.4-1.2-11.9-2.9-16.5-5.2
		c-4.5-2.3-8.1-5.2-10.6-8.6c-2.5-3.5-3.8-7.6-3.8-12.3c0-2.7,0.4-5.1,1.2-7.1c0.8-2,1.8-3.8,3.1-5.3c1.2-1.5,2.6-2.7,4.2-3.7
		c1.6-0.9,3.2-1.8,4.8-2.4c-2.8-1.9-5.1-4.1-6.7-6.7c-1.6-2.6-2.4-6-2.4-10.2c0-3.7,1.2-7.1,3.7-10.4c2.4-3.3,5-5.6,7.5-7.1
		c-3.5-2.4-6.6-5.9-9.3-10.3c-2.6-4.4-4-9.3-4-14.6c0-6.5,1.3-12.1,3.9-16.7c2.6-4.6,6-8.4,10.3-11.4c4.3-3,9.3-5.2,15-6.6
		c5.7-1.4,11.7-2.1,17.9-2.1c4.6,0,8.5,0.3,11.7,0.9c3.2,0.6,6.3,1.5,9.5,2.5L1611.5,392.2z M1511,224h14v-25h35.6v25h23v24.8h-23
		v39.9c0,3.4,0.4,6,1.1,7.9c0.7,1.9,2.4,2.8,5,2.8c2.4,0,4.8-0.5,7-1.6c2.2-1.1,4.2-2.3,6-3.7l9.2,21.6c-4.5,3.1-9.3,5.5-14.6,7.1
		c-5.2,1.6-11.3,2.4-18.2,2.4c-5.8,0-10.8-0.8-14.8-2.3c-4-1.6-7.2-3.8-9.7-6.6c-2.4-2.8-4.2-6.3-5.2-10.4s-1.5-8.6-1.5-13.6v-43.6
		h-14V224z M1466.8,190.1c3.3-2.8,7.9-4.2,14-4.2s10.8,1.4,14.1,4.2c3.3,2.8,5,6.4,5,10.9c0,4.8-1.7,8.5-5,11.3
		c-3.3,2.8-8,4.2-14.1,4.2s-10.8-1.4-14-4.1c-3.3-2.8-4.9-6.6-4.9-11.4C1462,196.5,1463.6,192.9,1466.8,190.1z M1498.6,224v99.3
		h-35.4V224H1498.6z M1474.6,403.6c11.3,0,20.4,3.2,27.3,9.6c6.9,6.4,10.4,16.2,10.4,29.5v62.5h-35.6v-58.4c0-5.3-1.2-9.4-3.5-12.3
		c-2.3-2.9-5.6-4.4-10-4.4c-3.1,0-5.9,0.6-8.4,1.9c-2.5,1.3-4.7,2.8-6.6,4.6v68.6h-35.6v-99.3h30.9l1.8,8.5
		c3.3-2.8,7.4-5.4,12.5-7.5C1462.9,404.7,1468.5,403.6,1474.6,403.6z M1356.6,251.7c2.5-6.5,6-12,10.5-16.4
		c4.5-4.4,9.8-7.8,15.9-10.1c6.1-2.3,12.8-3.5,19.9-3.5c6.5,0,12.3,0.7,17.3,2.2c5,1.5,9.4,3.6,13.1,6.3c3.7,2.7,6.8,5.9,9.3,9.6
		c2.4,3.7,4.4,7.6,5.9,11.8l-27.1,12c-2.2-6.1-4.6-10.3-7.2-12.5c-2.6-2.2-5.9-3.4-9.9-3.4c-4.6,0-8.5,2.1-11.8,6.2
		c-3.3,4.1-4.9,10.7-4.9,19.6c0,8.4,1.6,14.8,4.9,19.1c3.3,4.3,7.4,6.5,12.4,6.5c4.3,0,8-1.3,11-3.9c3-2.6,5.2-6.2,6.7-11l26.9,13
		c-3.9,9.1-9.6,16-16.9,20.8c-7.3,4.8-17.1,7.1-29.3,7.1c-7.1,0-13.7-1.1-19.8-3.4c-6.2-2.2-11.5-5.5-16.1-9.9
		c-4.5-4.3-8.1-9.7-10.7-16.1c-2.6-6.4-3.9-13.7-3.9-22C1352.9,265.6,1354.1,258.2,1356.6,251.7z M1388.2,394.1
		c-3.3,2.8-8,4.2-14.1,4.2s-10.8-1.4-14-4.1c-3.3-2.8-4.9-6.6-4.9-11.4c0-4.5,1.6-8.1,4.9-10.9c3.3-2.8,7.9-4.2,14-4.2
		s10.8,1.4,14.1,4.2c3.3,2.8,5,6.4,5,10.9C1393.2,387.6,1391.5,391.3,1388.2,394.1z M1391.7,405.8v99.3h-35.4v-99.3H1391.7z
		 M1279.4,224l17.9,27.1L1315,224h36.2l-35.4,48.8l36.8,50.5h-39.5l-17.5-27.3l-18.3,27.3h-36.6l36.4-49l-37-50.3H1279.4z
		 M1144.3,251.8c2.6-6.4,6.1-11.9,10.6-16.4c4.5-4.5,9.8-7.9,16-10.2c6.2-2.3,12.9-3.5,20-3.5c14.8,0,26.6,4.8,35.3,14.3
		c8.8,9.6,13.2,24.3,13.3,44.3H1175c0.3,6,2.2,10.6,5.8,13.9c3.6,3.3,8.2,5,13.7,5c4.5,0,8.3-0.8,11.5-2.4c3.2-1.6,6.1-4.1,8.9-7.5
		l21.8,17.1c-2.2,2.7-4.6,5.2-7.4,7.4c-2.8,2.2-6,4.2-9.6,6c-3.6,1.8-7.7,3.1-12.4,4.1c-4.7,0.9-9.9,1.4-15.8,1.4
		c-7.1,0-13.7-1.1-19.8-3.3c-6.2-2.2-11.6-5.4-16.2-9.7c-4.6-4.3-8.3-9.6-11-16.1c-2.7-6.4-4.1-13.9-4.1-22.5
		C1140.4,265.6,1141.7,258.2,1144.3,251.8z M1233.2,408l-7.3,28.3c-2.3-1.1-4.7-1.9-7.2-2.5c-2.5-0.6-5-0.9-7.4-0.9
		c-3.1,0-6,0.7-8.6,2.1c-2.6,1.4-4.6,2.9-6,4.4v65.7H1161v-99.3h31.7l1.8,9c2.8-3.3,6.1-5.8,9.8-7.6c3.7-1.8,7.7-2.7,12-2.7
		c3.1,0,6.1,0.3,9.1,1C1228.3,406.1,1230.9,407,1233.2,408z M1019.7,224h14v-25h35.6v25h23v24.8h-23v39.9c0,3.4,0.4,6,1.1,7.9
		c0.7,1.9,2.4,2.8,5,2.8c2.4,0,4.8-0.5,7-1.6c2.2-1.1,4.2-2.3,6-3.7l9.2,21.6c-4.5,3.1-9.3,5.5-14.6,7.1c-5.2,1.6-11.3,2.4-18.2,2.4
		c-5.8,0-10.8-0.8-14.8-2.3c-4-1.6-7.2-3.8-9.7-6.6c-2.4-2.8-4.2-6.3-5.2-10.4s-1.5-8.6-1.5-13.6v-43.6h-14V224z M976.8,289.6
		c-2.3-1.4-6.7-2.9-13.2-4.4c-6-1.4-11.4-2.9-16.3-4.7c-4.9-1.8-9-3.9-12.4-6.5c-3.4-2.6-6-5.7-7.8-9.3c-1.8-3.6-2.7-7.8-2.7-12.7
		s1.1-9.2,3.4-12.9c2.2-3.7,5.4-6.9,9.4-9.5c4-2.6,8.8-4.5,14.2-5.9c5.5-1.4,11.5-2,18-2c6.1,0,11.5,0.4,16.1,1.3
		c4.6,0.9,8.7,2.1,12.3,3.6c3.6,1.5,6.6,3.2,9.2,5.1c2.5,1.9,4.6,3.9,6.4,6.1l-19.9,16.1c-2.3-2.4-5.4-4.6-9.4-6.6
		c-3.9-2-8.5-3-13.6-3c-3.1,0-6,0.4-8.6,1.2c-2.6,0.8-4,2.5-4,5.1c0,1.1,0.2,2,0.6,2.8c0.4,0.8,1.3,1.6,2.6,2.3
		c1.4,0.7,3.3,1.5,5.8,2.2c2.5,0.7,5.8,1.6,9.9,2.5c6.1,1.4,11.5,2.9,16.1,4.7c4.6,1.8,8.5,3.9,11.7,6.5c3.2,2.6,5.6,5.6,7.1,9.2
		c1.6,3.5,2.3,7.7,2.3,12.6c0,5.7-1.3,10.6-3.8,14.6c-2.5,4-5.9,7.3-10.1,9.8c-4.2,2.5-9.1,4.4-14.8,5.6c-5.6,1.2-11.5,1.8-17.6,1.8
		c-12.2,0-22.3-1.8-30.2-5.3c-7.9-3.5-13.8-7.9-17.6-13l19.9-16.1c2.4,3,5.9,5.7,10.5,8c4.5,2.4,9.8,3.6,15.8,3.6
		c1.8,0,3.5-0.1,5.2-0.2c1.7-0.1,3.2-0.5,4.6-1c1.4-0.5,2.4-1.3,3.3-2.1c0.8-0.9,1.2-2.1,1.2-3.6C980.2,293,979.1,291,976.8,289.6z
		 M630.6,224h31.1l1.6,8.3c2.8-2.7,6.7-5.2,11.5-7.3c4.8-2.2,10.6-3.3,17.4-3.3c4.5,0,9.3,0.9,14.3,2.6c5.1,1.8,9.1,4.5,12.1,8.1
		c4.5-3.4,9.4-6,14.7-7.9c5.3-1.9,11.2-2.8,17.7-2.8c13.3,0,23,3.3,29.2,10c6.2,6.6,9.3,16.3,9.3,28.9v62.7h-35.6v-59.8
		c0-4.7-0.9-8.5-2.6-11.2c-1.8-2.7-5.1-4.1-10-4.1c-3,0-5.7,0.6-8.2,1.9c-2.5,1.3-4.5,2.5-6,3.6c0.4,4.1,0.6,8.4,0.6,13v56.6h-35.4
		v-59.8c0-4.7-0.9-8.5-2.6-11.2c-1.8-2.7-4.9-4.1-9.4-4.1c-2.8,0-5.5,0.7-7.9,2c-2.4,1.4-4.5,2.8-6.1,4.3v68.8h-35.6V224z
		 M673.6,474.6c3.3,4.3,7.4,6.5,12.4,6.5c4.3,0,8-1.3,11-3.9c3-2.6,5.2-6.2,6.7-11l26.9,13c-3.9,9.1-9.6,16-16.9,20.8
		c-7.3,4.8-17.1,7.1-29.3,7.1c-7.1,0-13.7-1.1-19.8-3.4c-6.2-2.2-11.5-5.5-16.1-9.9c-4.5-4.3-8.1-9.7-10.7-16.1
		c-2.6-6.4-3.9-13.7-3.9-22c0-8.4,1.3-15.9,3.8-22.4c2.5-6.5,6-12,10.5-16.4c4.5-4.4,9.8-7.8,15.9-10.1c6.1-2.3,12.8-3.5,19.9-3.5
		c6.5,0,12.3,0.7,17.3,2.2c5,1.5,9.4,3.6,13.1,6.3c3.7,2.7,6.8,5.9,9.3,9.6c2.4,3.7,4.4,7.6,5.9,11.8l-27.1,12
		c-2.2-6.1-4.6-10.3-7.2-12.5c-2.6-2.2-5.9-3.4-9.9-3.4c-4.6,0-8.5,2.1-11.8,6.2c-3.3,4.1-4.9,10.7-4.9,19.6
		C668.7,463.9,670.3,470.2,673.6,474.6z M607.4,413.1c6.9,6.4,10.4,16.2,10.4,29.5v62.5h-35.6v-58.4c0-5.3-1.2-9.4-3.5-12.3
		c-2.3-2.9-5.6-4.4-10-4.4c-3.1,0-5.9,0.6-8.4,1.9c-2.5,1.3-4.7,2.8-6.6,4.6v68.6h-35.6v-99.3H549l1.8,8.5c3.3-2.8,7.4-5.4,12.5-7.5
		c5.1-2.2,10.7-3.3,16.8-3.3C591.4,403.6,600.5,406.8,607.4,413.1z M484.5,251.8c2.6-6.4,6.1-11.9,10.6-16.4
		c4.5-4.5,9.8-7.9,16-10.2c6.2-2.3,12.9-3.5,20-3.5c14.8,0,26.6,4.8,35.3,14.3c8.8,9.6,13.2,24.3,13.3,44.3h-64.5
		c0.3,6,2.2,10.6,5.8,13.9c3.6,3.3,8.2,5,13.7,5c4.5,0,8.3-0.8,11.5-2.4c3.2-1.6,6.1-4.1,8.9-7.5l21.8,17.1
		c-2.2,2.7-4.6,5.2-7.4,7.4c-2.8,2.2-6,4.2-9.6,6c-3.6,1.8-7.7,3.1-12.4,4.1c-4.7,0.9-9.9,1.4-15.8,1.4c-7.1,0-13.7-1.1-19.8-3.3
		c-6.2-2.2-11.6-5.4-16.2-9.7c-4.6-4.3-8.3-9.6-11-16.1c-2.7-6.4-4.1-13.9-4.1-22.5C480.6,265.6,481.9,258.2,484.5,251.8z
		 M242.1,187.6h112.3v31.1h-37.6v104.6h-36.6V218.7h-38.1V187.6z M236.6,431c-2.6-1.9-5.6-2.8-9.2-2.8c-3.9,0-7.6,0.7-11.1,2.2
		c-3.5,1.5-6.8,3.5-10.1,6.1l-15.9-17.7c5.4-4.7,11.5-8.5,18.2-11.2c6.7-2.7,14.8-4.1,24.1-4.1c13,0,23.4,3.2,31.1,9.5
		c7.7,6.3,11.6,16.1,11.6,29.4v62.7h-29.9l-2.8-7.7c-2.7,2.6-6.4,4.8-11,6.6c-4.6,1.8-10,2.7-16.1,2.7c-4.6,0-8.9-0.7-12.8-2
		c-3.9-1.4-7.4-3.4-10.3-6c-2.9-2.6-5.2-5.8-6.8-9.5s-2.4-7.9-2.4-12.6c0-4.9,0.9-9.2,2.7-12.8s4.3-6.8,7.5-9.4
		c3.2-2.6,6.9-4.7,11.1-6.3c4.2-1.6,8.7-2.8,13.4-3.5c4.3-0.7,8.4-1.2,12.1-1.5c3.7-0.3,7.2-0.6,10.3-0.7V440
		C240.5,435.9,239.2,432.9,236.6,431z M202.5,192.5c3.3-3.5,7.8-5.2,13.3-5.2c6.1,0,10.7,1.8,13.7,5.3c3.1,3.5,4.6,7.7,4.6,12.4
		c0,4.3-1,7.8-3,10.3c-2,2.5-4.1,4.4-6.4,5.6c1.5,1.5,3.8,3.1,6.9,4.7c3.1,1.6,6.2,2.8,9.2,3.5l-4.5,13c-6.8-1.8-12.6-4-17.5-6.6
		c-4.9-2.6-8.9-5.5-12-8.6c-3.1-3.1-5.5-6.4-7-10c-1.6-3.5-2.3-7.1-2.3-10.6C197.5,200.6,199.2,196,202.5,192.5z M127.4,686.5
		c-5.2,1.6-11.3,2.4-18.2,2.4c-5.8,0-10.8-0.8-14.8-2.3c-4-1.6-7.2-3.8-9.7-6.6c-2.4-2.8-4.2-6.3-5.2-10.4s-1.5-8.6-1.5-13.6v-43.6
		H64v-24.8h14v-25h35.6v25h23v24.8h-23v39.9c0,3.4,0.4,6,1.1,7.9c0.7,1.9,2.4,2.8,5,2.8c2.4,0,4.8-0.5,7-1.6c2.2-1.1,4.2-2.3,6-3.7
		l9.2,21.6C137.5,682.5,132.7,684.9,127.4,686.5z M157.2,192.5c3.4-3.5,7.9-5.2,13.4-5.2c6.1,0,10.6,1.8,13.6,5.3
		c3,3.5,4.5,7.7,4.5,12.4c0,4.3-1,7.8-3,10.3c-2,2.5-4.1,4.4-6.4,5.6c1.5,1.5,3.8,3.1,7,4.7c3.2,1.6,6.3,2.8,9.3,3.5l-4.5,13
		c-6.8-1.8-12.6-4-17.5-6.6c-4.9-2.6-8.9-5.5-12.1-8.6c-3.2-3.1-5.6-6.4-7.1-10c-1.6-3.5-2.3-7.1-2.3-10.6
		C152.2,200.6,153.9,196,157.2,192.5z M252.7,686.9h-35.6v-58.8c0-5.7-1.2-9.9-3.6-12.5c-2.4-2.6-5.3-4-8.9-4c-3.3,0-6.2,0.7-9,2.1
		c-2.7,1.4-5,2.9-6.7,4.4v68.8h-35.6V551.2H189v41.7c3-2,6.6-3.8,11-5.3c4.3-1.5,9.4-2.2,15.3-2.2c12.3,0,21.7,3.4,28,10.3
		c6.3,6.9,9.5,16.5,9.5,28.8V686.9z M309.2,657.9c3.6,3.3,8.2,5,13.7,5c4.5,0,8.3-0.8,11.5-2.4c3.2-1.6,6.1-4.1,8.9-7.5L365,670
		c-2.2,2.7-4.6,5.2-7.4,7.4c-2.8,2.2-6,4.2-9.6,6c-3.6,1.8-7.7,3.1-12.4,4.1c-4.7,0.9-9.9,1.4-15.8,1.4c-7.1,0-13.7-1.1-19.8-3.3
		c-6.2-2.2-11.6-5.4-16.2-9.7c-4.6-4.3-8.3-9.6-11-16.1c-2.7-6.4-4.1-13.9-4.1-22.5c0-8.3,1.3-15.6,3.9-22.1
		c2.6-6.4,6.1-11.9,10.6-16.4c4.5-4.5,9.8-7.9,16-10.2c6.2-2.3,12.9-3.5,20-3.5c14.8,0,26.6,4.8,35.3,14.3
		c8.8,9.6,13.2,24.3,13.3,44.3h-64.5C303.6,650,305.6,654.6,309.2,657.9z M395.2,524.5c-1.2,3-2.8,5.6-4.9,7.9
		c-4.6,4.9-11.1,8.4-19.3,10.5c-8.3,2.1-17.7,3.2-28.3,3.2c-7.7,0-14.8-0.6-21.3-1.7c-6.4-1.2-11.9-2.9-16.5-5.2
		c-4.5-2.3-8.1-5.2-10.6-8.6c-2.5-3.5-3.8-7.6-3.8-12.3c0-2.7,0.4-5.1,1.2-7.1c0.8-2,1.8-3.8,3.1-5.3c1.2-1.5,2.6-2.7,4.2-3.7
		c1.6-0.9,3.2-1.8,4.8-2.4c-2.8-1.9-5.1-4.1-6.7-6.7c-1.6-2.6-2.4-6-2.4-10.2c0-3.7,1.2-7.1,3.7-10.4c2.4-3.3,5-5.6,7.5-7.1
		c-3.5-2.4-6.6-5.9-9.3-10.3c-2.6-4.4-4-9.3-4-14.6c0-6.5,1.3-12.1,3.9-16.7c2.6-4.6,6-8.4,10.3-11.4c4.3-3,9.3-5.2,15-6.6
		c5.7-1.4,11.7-2.1,17.9-2.1c4.6,0,8.5,0.3,11.7,0.9c3.2,0.6,6.3,1.5,9.5,2.5l13.8-14.9l18.3,14.2l-12,13.2c2.3,2.2,4.3,5.1,6.1,8.6
		c1.8,3.6,2.6,7.6,2.6,12.1c0,6-1.3,11.2-3.8,15.6c-2.5,4.4-5.9,8-10.2,10.9s-9.2,5-14.9,6.4c-5.6,1.4-11.6,2.1-17.8,2.1
		c-3.9,0-7.4-0.2-10.5-0.7c-3.1-0.5-5.2-0.9-6.4-1.3c-0.7,0.4-1.4,1.2-2,2.2c-0.7,1.1-1,2.1-1,3.1c0,1.1,0.3,2,1,2.6
		c0.7,0.7,2,1.3,4.1,1.8c2,0.5,5,1,8.8,1.2c3.8,0.3,8.9,0.5,15.3,0.8c3.7,0.1,6.9,0.3,9.7,0.6c2.8,0.3,5.3,0.6,7.5,1
		c2.2,0.4,4.2,0.9,6,1.4c1.8,0.5,3.6,1.2,5.5,1.8c5.2,2,9.1,5,11.9,9c2.8,3.9,4.2,9.2,4.2,15.7C397,518.2,396.4,521.5,395.2,524.5z
		 M400.8,323.3h-35.6V187.6h35.6v41.7c3-2,6.6-3.8,11-5.3c4.3-1.5,9.4-2.2,15.3-2.2c12.3,0,21.7,3.4,28,10.3
		c6.3,6.9,9.5,16.5,9.5,28.8v62.5h-35.6v-58.8c0-5.7-1.2-9.9-3.6-12.5c-2.4-2.6-5.3-4-8.9-4c-3.3,0-6.2,0.7-9,2.1
		c-2.7,1.4-5,2.9-6.7,4.4V323.3z M403.7,455.7c0-8.3,1.3-15.6,3.9-22.1c2.6-6.4,6.1-11.9,10.6-16.4c4.5-4.5,9.8-7.9,16-10.2
		c6.2-2.3,12.9-3.5,20-3.5c14.8,0,26.6,4.8,35.3,14.3c8.8,9.6,13.2,24.3,13.3,44.3h-64.5c0.3,6,2.2,10.6,5.8,13.9
		c3.6,3.3,8.2,5,13.7,5c4.5,0,8.3-0.8,11.5-2.4c3.2-1.6,6.1-4.1,8.9-7.5l21.8,17.1c-2.2,2.7-4.6,5.2-7.4,7.4c-2.8,2.2-6,4.2-9.6,6
		c-3.6,1.8-7.7,3.1-12.4,4.1c-4.7,0.9-9.9,1.4-15.8,1.4c-7.1,0-13.7-1.1-19.8-3.3c-6.2-2.2-11.6-5.4-16.2-9.7
		c-4.6-4.3-8.3-9.6-11-16.1C405.1,471.7,403.7,464.2,403.7,455.7z M454.9,657.9c3.6,3.3,8.2,5,13.7,5c4.5,0,8.3-0.8,11.5-2.4
		c3.2-1.6,6.1-4.1,8.9-7.5l21.8,17.1c-2.2,2.7-4.6,5.2-7.4,7.4c-2.8,2.2-6,4.2-9.6,6c-3.6,1.8-7.7,3.1-12.4,4.1
		c-4.7,0.9-9.9,1.4-15.8,1.4c-7.1,0-13.7-1.1-19.8-3.3c-6.2-2.2-11.6-5.4-16.2-9.7c-4.6-4.3-8.3-9.6-11-16.1
		c-2.7-6.4-4.1-13.9-4.1-22.5c0-8.3,1.3-15.6,3.9-22.1c2.6-6.4,6.1-11.9,10.6-16.4c4.5-4.5,9.8-7.9,16-10.2c6.2-2.3,12.9-3.5,20-3.5
		c14.8,0,26.6,4.8,35.3,14.3c8.8,9.6,13.2,24.3,13.3,44.3h-64.5C449.4,650,451.3,654.6,454.9,657.9z M589.1,686.9h-30.7l-43.8-99.3
		h38.7l21.2,59l20.4-59h36.6L589.1,686.9z M673,657.9c3.6,3.3,8.2,5,13.7,5c4.5,0,8.3-0.8,11.5-2.4c3.2-1.6,6.1-4.1,8.9-7.5
		l21.8,17.1c-2.2,2.7-4.6,5.2-7.4,7.4c-2.8,2.2-6,4.2-9.6,6c-3.6,1.8-7.7,3.1-12.4,4.1c-4.7,0.9-9.9,1.4-15.8,1.4
		c-7.1,0-13.7-1.1-19.8-3.3c-6.2-2.2-11.6-5.4-16.2-9.7c-4.6-4.3-8.3-9.6-11-16.1c-2.7-6.4-4.1-13.9-4.1-22.5
		c0-8.3,1.3-15.6,3.9-22.1c2.6-6.4,6.1-11.9,10.6-16.4c4.5-4.5,9.8-7.9,16-10.2c6.2-2.3,12.9-3.5,20-3.5c14.8,0,26.6,4.8,35.3,14.3
		c8.8,9.6,13.2,24.3,13.3,44.3h-64.5C667.5,650,669.4,654.6,673,657.9z M846.7,686.9h-35.6v-58.4c0-5.3-1.2-9.4-3.5-12.3
		c-2.3-2.9-5.6-4.4-10-4.4c-3.1,0-5.9,0.6-8.4,1.9c-2.5,1.3-4.7,2.8-6.6,4.6v68.6H747v-99.3H778l1.8,8.5c3.3-2.8,7.4-5.4,12.5-7.5
		c5.1-2.2,10.7-3.3,16.8-3.3c11.3,0,20.4,3.2,27.3,9.6c6.9,6.4,10.4,16.2,10.4,29.5V686.9z M798.7,523.4
		c-3.5,8.3-8.3,14.1-14.3,17.5c-6,3.4-13.1,5.1-21.3,5.1c-5.2,0-9.9-0.5-14.2-1.6c-4.3-1.1-8.5-2.5-12.4-4.3l9-24
		c1.9,1.1,4.1,2,6.7,2.8c2.6,0.8,5,1.2,7.1,1.2c2.6,0,4.6-0.5,6.2-1.4c1.6-1,2.9-2.6,4-5.1l5.7-12.8l-42.1-95h38.7l20.1,58l19.9-58
		h36.6L798.7,523.4z M835.5,321.3c-6.4-2.7-11.8-6.4-16.3-11.1c-4.5-4.7-7.9-10.2-10.2-16.6c-2.3-6.4-3.5-13.2-3.5-20.4
		c0-7.3,1.2-14.1,3.5-20.4c2.3-6.2,5.7-11.7,10.2-16.3c4.5-4.6,9.9-8.2,16.4-10.9c6.4-2.6,13.8-4,22.1-4c8.3,0,15.6,1.3,22.1,4
		c6.4,2.6,11.9,6.3,16.4,10.9c4.5,4.6,7.9,10,10.2,16.3c2.3,6.2,3.5,13,3.5,20.4c0,7.2-1.2,14-3.5,20.4c-2.3,6.4-5.7,11.9-10.2,16.6
		c-4.5,4.7-9.9,8.4-16.4,11.1c-6.4,2.7-13.8,4.1-22.1,4.1C849.5,325.3,842.1,324,835.5,321.3z M922.1,686.5
		c-5.2,1.6-11.3,2.4-18.2,2.4c-5.8,0-10.8-0.8-14.8-2.3c-4-1.6-7.2-3.8-9.7-6.6c-2.4-2.8-4.2-6.3-5.2-10.4s-1.5-8.6-1.5-13.6v-43.6
		h-14v-24.8h14v-25h35.6v25h23v24.8h-23v39.9c0,3.4,0.4,6,1.1,7.9c0.7,1.9,2.4,2.8,5,2.8c2.4,0,4.8-0.5,7-1.6c2.2-1.1,4.2-2.3,6-3.7
		l9.2,21.6C932.2,682.5,927.4,684.9,922.1,686.5z M1032,671.8c-2.5,4-5.9,7.3-10.1,9.8c-4.2,2.5-9.1,4.4-14.8,5.6
		c-5.6,1.2-11.5,1.8-17.6,1.8c-12.2,0-22.3-1.8-30.2-5.3c-7.9-3.5-13.8-7.9-17.6-13l19.9-16.1c2.4,3,5.9,5.7,10.5,8
		c4.5,2.4,9.8,3.6,15.8,3.6c1.8,0,3.5-0.1,5.2-0.2c1.7-0.1,3.2-0.5,4.6-1c1.4-0.5,2.4-1.3,3.3-2.1c0.8-0.9,1.2-2.1,1.2-3.6
		c0-2.6-1.2-4.6-3.5-6c-2.3-1.4-6.7-2.9-13.2-4.4c-6-1.4-11.4-2.9-16.3-4.7c-4.9-1.8-9-3.9-12.4-6.5c-3.4-2.6-6-5.7-7.8-9.3
		c-1.8-3.6-2.7-7.8-2.7-12.7c0-4.9,1.1-9.2,3.4-12.9c2.2-3.7,5.4-6.9,9.4-9.5c4-2.6,8.8-4.5,14.2-5.9c5.5-1.4,11.5-2,18-2
		c6.1,0,11.5,0.4,16.1,1.3c4.6,0.9,8.7,2.1,12.3,3.6c3.6,1.5,6.6,3.2,9.2,5.1c2.5,1.9,4.6,3.9,6.4,6.1l-19.9,16.1
		c-2.3-2.4-5.4-4.6-9.4-6.6c-3.9-2-8.5-3-13.6-3c-3.1,0-6,0.4-8.6,1.2c-2.6,0.8-4,2.5-4,5.1c0,1.1,0.2,2,0.6,2.8
		c0.4,0.8,1.3,1.6,2.6,2.3c1.4,0.7,3.3,1.5,5.8,2.2c2.5,0.7,5.8,1.6,9.9,2.5c6.1,1.4,11.5,2.9,16.1,4.7c4.6,1.8,8.5,3.9,11.7,6.5
		c3.2,2.6,5.6,5.6,7.1,9.2c1.6,3.5,2.3,7.7,2.3,12.6C1035.8,662.9,1034.5,667.8,1032,671.8z M1003,505.1h-27.3L960.1,453l-15.5,52.1
		h-27.1l-35.2-99.3h36.2l14.9,52.7l15.3-52.7h23.2l15.3,52.7l14.7-52.7h36.4L1003,505.1z M1121.1,686.9h-35.4v-99.3h35.4V686.9z
		 M1117.5,575.9c-3.3,2.8-8,4.2-14.1,4.2s-10.8-1.4-14-4.1c-3.3-2.8-4.9-6.6-4.9-11.4c0-4.5,1.6-8.1,4.9-10.9
		c3.3-2.8,7.9-4.2,14-4.2s10.8,1.4,14.1,4.2c3.3,2.8,5,6.4,5,10.9C1122.5,569.4,1120.8,573.1,1117.5,575.9z M1131,492
		c-4.5,4.7-9.9,8.4-16.4,11.1c-6.4,2.7-13.8,4.1-22.1,4.1c-8.3,0-15.7-1.4-22.2-4.1c-6.4-2.7-11.8-6.4-16.3-11.1
		c-4.5-4.7-7.9-10.2-10.2-16.6c-2.3-6.4-3.5-13.2-3.5-20.4c0-7.3,1.2-14.1,3.5-20.4c2.3-6.2,5.7-11.7,10.2-16.3
		c4.5-4.6,9.9-8.2,16.4-10.9c6.4-2.6,13.8-4,22.1-4c8.3,0,15.6,1.3,22.1,4c6.4,2.6,11.9,6.3,16.4,10.9c4.5,4.6,7.9,10,10.2,16.3
		c2.3,6.2,3.5,13,3.5,20.4c0,7.2-1.2,14-3.5,20.4C1138.9,481.8,1135.5,487.3,1131,492z M1241.6,686.9h-35.6v-58.4
		c0-5.3-1.2-9.4-3.5-12.3c-2.3-2.9-5.6-4.4-10-4.4c-3.1,0-5.9,0.6-8.4,1.9c-2.5,1.3-4.7,2.8-6.6,4.6v68.6h-35.6v-99.3h30.9l1.8,8.5
		c3.3-2.8,7.4-5.4,12.5-7.5c5.1-2.2,10.7-3.3,16.8-3.3c11.3,0,20.4,3.2,27.3,9.6c6.9,6.4,10.4,16.2,10.4,29.5V686.9z M1242.2,369.4
		h35.6v63.1l27.7-26.7h38.1L1312,438l35.6,67.2h-38.9l-22.4-44.6l-8.5,9v35.6h-35.6V369.4z M1358.2,686.9h-30.9l-1.6-7.7
		c-2.2,2.4-5.2,4.7-9,6.7c-3.8,2-9,3.1-15.5,3.1c-6.6,0-12.7-1.3-18-4c-5.4-2.6-9.9-6.3-13.7-10.9c-3.8-4.6-6.7-10.1-8.8-16.5
		c-2-6.4-3.1-13.2-3.1-20.6c0-7.2,1-13.9,3.2-20.2c2.1-6.3,5.2-11.8,9.2-16.5c4-4.7,8.9-8.3,14.6-11c5.7-2.6,12.2-4,19.5-4
		c3.4,0,6.7,0.2,9.9,0.7c3.2,0.5,6.1,1.3,8.6,2.3v-37.2h35.6V686.9z M1477.8,686.9h-31.1l-1.6-8.3c-3.5,3.1-7.7,5.6-12.6,7.5
		c-4.9,1.9-10.4,2.8-16.5,2.8c-11.8,0-21-3.2-27.7-9.7c-6.6-6.4-10-16.1-10-29v-62.7h35.6v58.6c0,5,1,9,3,11.9
		c2,2.9,5.3,4.4,9.9,4.4c3.5,0,6.6-0.6,9.2-1.8c2.6-1.2,4.7-2.6,6.3-4.1v-69h35.6V686.9z M1582.7,671.8c-2.5,4-5.9,7.3-10.1,9.8
		c-4.2,2.5-9.1,4.4-14.8,5.6c-5.6,1.2-11.5,1.8-17.6,1.8c-12.2,0-22.3-1.8-30.2-5.3c-7.9-3.5-13.8-7.9-17.6-13l19.9-16.1
		c2.4,3,5.9,5.7,10.5,8c4.5,2.4,9.8,3.6,15.8,3.6c1.8,0,3.5-0.1,5.2-0.2c1.7-0.1,3.2-0.5,4.6-1c1.4-0.5,2.4-1.3,3.3-2.1
		c0.8-0.9,1.2-2.1,1.2-3.6c0-2.6-1.2-4.6-3.5-6c-2.3-1.4-6.7-2.9-13.2-4.4c-6-1.4-11.4-2.9-16.3-4.7c-4.9-1.8-9-3.9-12.4-6.5
		c-3.4-2.6-6-5.7-7.8-9.3c-1.8-3.6-2.7-7.8-2.7-12.7c0-4.9,1.1-9.2,3.4-12.9c2.2-3.7,5.4-6.9,9.4-9.5c4-2.6,8.8-4.5,14.2-5.9
		c5.5-1.4,11.5-2,18-2c6.1,0,11.5,0.4,16.1,1.3c4.6,0.9,8.7,2.1,12.3,3.6c3.6,1.5,6.6,3.2,9.2,5.1c2.5,1.9,4.6,3.9,6.4,6.1
		l-19.9,16.1c-2.3-2.4-5.4-4.6-9.4-6.6c-3.9-2-8.5-3-13.6-3c-3.1,0-6,0.4-8.6,1.2c-2.6,0.8-4,2.5-4,5.1c0,1.1,0.2,2,0.6,2.8
		c0.4,0.8,1.3,1.6,2.6,2.3c1.4,0.7,3.3,1.5,5.8,2.2c2.5,0.7,5.8,1.6,9.9,2.5c6.1,1.4,11.5,2.9,16.1,4.7c4.6,1.8,8.5,3.9,11.7,6.5
		c3.2,2.6,5.6,5.6,7.1,9.2c1.6,3.5,2.3,7.7,2.3,12.6C1586.5,662.9,1585.2,667.8,1582.7,671.8z M1655.8,686.5
		c-5.2,1.6-11.3,2.4-18.2,2.4c-5.8,0-10.8-0.8-14.8-2.3c-4-1.6-7.2-3.8-9.7-6.6c-2.4-2.8-4.2-6.3-5.2-10.4s-1.5-8.6-1.5-13.6v-43.6
		h-14v-24.8h14v-25h35.6v25h23v24.8h-23v39.9c0,3.4,0.4,6,1.1,7.9c0.7,1.9,2.4,2.8,5,2.8c2.4,0,4.8-0.5,7-1.6c2.2-1.1,4.2-2.3,6-3.7
		l9.2,21.6C1665.9,682.5,1661,684.9,1655.8,686.5z M1684.2,371.9c3.3-2.8,7.9-4.2,14-4.2s10.8,1.4,14.1,4.2c3.3,2.8,5,6.4,5,10.9
		c0,4.8-1.7,8.5-5,11.3c-3.3,2.8-8,4.2-14.1,4.2s-10.8-1.4-14-4.1c-3.3-2.8-4.9-6.6-4.9-11.4
		C1679.3,378.3,1680.9,374.7,1684.2,371.9z M1680.5,405.8h35.4v99.3h-35.4V405.8z M1816.9,705.3c-3.5,8.3-8.3,14.1-14.3,17.5
		c-6,3.4-13.1,5.1-21.3,5.1c-5.2,0-9.9-0.5-14.2-1.6c-4.3-1.1-8.5-2.5-12.4-4.3l9-24c1.9,1.1,4.1,2,6.7,2.8c2.6,0.8,5,1.2,7.1,1.2
		c2.6,0,4.6-0.5,6.2-1.4c1.6-1,2.9-2.6,4-5.1l5.7-12.8l-40-90.2l-6.6,25.6c-2.3-1.1-4.7-1.9-7.2-2.5c-2.5-0.6-5-0.9-7.4-0.9
		c-3.1,0-6,0.7-8.6,2.1s-4.6,2.9-6,4.4v65.7h-35.6v-99.3h31.7l1.8,9c2.8-3.3,6.1-5.8,9.8-7.6c3.7-1.8,7.7-2.7,12-2.7
		c3.1,0,6.1,0.3,9.1,1c2,0.5,3.8,1,5.6,1.7l-0.6-1.3h38.7l20.1,58l19.9-58h36.6L1816.9,705.3z M1909.8,580.5
		c-1.6,3.5-3.9,6.9-7.1,10c-3.2,3.1-7.2,6-12.1,8.6c-4.9,2.6-10.7,4.9-17.5,6.6l-4.5-13c3-0.7,6-1.8,9.2-3.5
		c3.1-1.6,5.5-3.2,7.1-4.7c-2.3-1.2-4.4-3.1-6.4-5.6c-2-2.5-3-5.9-3-10.3c0-4.7,1.5-8.9,4.5-12.4c3-3.5,7.5-5.3,13.6-5.3
		c5.6,0,10,1.7,13.4,5.2c3.4,3.5,5.1,8,5.1,13.7C1912.1,573.4,1911.3,577,1909.8,580.5z M1955,580.5c-1.6,3.5-3.9,6.9-7,10
		c-3.1,3.1-7.2,6-12.1,8.6c-5,2.6-10.8,4.9-17.4,6.6l-4.5-13c3-0.7,6-1.8,9.2-3.5c3.1-1.6,5.4-3.2,6.9-4.7c-2.3-1.2-4.4-3.1-6.4-5.6
		c-2-2.5-3-5.9-3-10.3c0-4.7,1.5-8.9,4.6-12.4c3.1-3.5,7.6-5.3,13.7-5.3c5.6,0,10,1.7,13.3,5.2c3.3,3.5,5,8,5,13.7
		C1957.3,573.4,1956.5,577,1955,580.5z"/>
	<path class="st0" d="M228.1,461.6c-4.2,0.7-7.2,2.1-9,4.4c-1.8,2.2-2.6,4.7-2.6,7.4c0,2.8,1,5.2,3,7c2,1.8,4.7,2.7,8.2,2.7
		c2.6,0,4.9-0.4,7-1.2c2.1-0.8,4-1.9,5.8-3.3v-18.5c-2,0.1-4.1,0.3-6.1,0.5C232.3,460.9,230.2,461.2,228.1,461.6z"/>
	<path class="st0" d="M541.6,248.9c-2.8-3.1-6.1-4.6-10.1-4.6c-4.1,0-7.6,1.6-10.7,4.7c-3.1,3.1-4.9,7.3-5.4,12.4h30.9
		C546,256.1,544.4,252,541.6,248.9z"/>
	<path class="st0" d="M1201.4,248.9c-2.8-3.1-6.1-4.6-10.1-4.6c-4.1,0-7.6,1.6-10.7,4.7c-3.1,3.1-4.9,7.3-5.4,12.4h30.9
		C1205.7,256.1,1204.1,252,1201.4,248.9z"/>
	<path class="st0" d="M1566.9,430.8c-2.6,2.6-4,5.8-4,9.6c0,3.9,1.4,7.1,4.1,9.6c2.7,2.4,6.4,3.7,11,3.7c4.7,0,8.4-1.2,11-3.7
		c2.6-2.4,3.9-5.6,3.9-9.4c0-3.9-1.3-7.2-3.9-9.8c-2.6-2.6-6.2-3.9-11-3.9C1573.2,427,1569.5,428.3,1566.9,430.8z"/>
</g>
</svg>
