<?xml version="1.0" encoding="UTF-8"?><svg id="Layer_1" xmlns="http://www.w3.org/2000/svg" viewBox="0 0 2025 885.99"><defs><style>.cls-1{fill:#303d4e;}</style></defs><path class="cls-1" d="m1358.6,602.19c-3.43,1.68-6.27,3.96-8.5,6.83-2.24,2.87-3.92,6.09-5.04,9.66-1.12,3.57-1.68,7.24-1.68,11.02,0,4.2.49,8.23,1.47,12.08.98,3.85,2.45,7.21,4.41,10.08,1.96,2.87,4.44,5.18,7.46,6.93,3.01,1.75,6.61,2.62,10.81,2.62,3.36,0,6.79-.87,10.29-2.62,3.5-1.75,6.02-3.81,7.56-6.19v-49.98c-5.18-1.96-10.08-2.94-14.7-2.94s-8.65.84-12.08,2.52Z"/><path class="cls-1" d="m366.36,529.52c4.76-1.68,7.14-4.13,7.14-7.35,0-1.82-.35-3.36-1.05-4.62-.7-1.26-2.21-2.31-4.52-3.15s-5.56-1.51-9.77-2c-4.2-.49-9.87-.81-17.01-.95-2.8-.14-5.67-.42-8.61-.84-2.94-.28-5.81-.63-8.61-1.05-1.26.84-2.52,2.06-3.78,3.67-1.26,1.61-1.89,3.53-1.89,5.78,0,8.68,9.45,13.02,28.35,13.02,8.4,0,14.98-.84,19.74-2.52Z"/><path class="cls-1" d="m377.29,603.45c-3.99-3.36-8.23-5.04-12.7-5.04-2.38,0-4.73.46-7.04,1.37-2.31.91-4.45,2.24-6.41,3.99-1.96,1.75-3.61,3.88-4.93,6.4-1.33,2.52-2.21,5.32-2.62,8.4h40.53c-.56-6.72-2.83-11.76-6.83-15.12Z"/><path class="cls-1" d="m1110.49,436.59c-2.03-2.73-4.55-4.9-7.56-6.51-3.01-1.61-6.48-2.42-10.4-2.42s-7.39.81-10.39,2.42c-3.01,1.61-5.53,3.78-7.56,6.51-2.03,2.73-3.57,5.98-4.62,9.76-1.05,3.78-1.57,7.77-1.57,11.97s.52,8.37,1.57,12.08c1.05,3.71,2.55,6.97,4.52,9.76,1.96,2.8,4.44,5.01,7.46,6.62,3.01,1.61,6.54,2.42,10.6,2.42s7.38-.8,10.4-2.42c3.01-1.61,5.53-3.81,7.56-6.62,2.03-2.8,3.57-6.05,4.62-9.76,1.05-3.71,1.58-7.73,1.58-12.08s-.53-8.19-1.58-11.97-2.59-7.04-4.62-9.76Z"/><path class="cls-1" d="m529.53,603.45c-3.99-3.36-8.23-5.04-12.71-5.04-2.38,0-4.73.46-7.04,1.37-2.31.91-4.45,2.24-6.41,3.99-1.96,1.75-3.61,3.88-4.93,6.4-1.33,2.52-2.21,5.32-2.62,8.4h40.53c-.56-6.72-2.83-11.76-6.82-15.12Z"/><path class="cls-1" d="m748.56,603.45c-3.99-3.36-8.23-5.04-12.71-5.04-2.38,0-4.73.46-7.04,1.37-2.31.91-4.45,2.24-6.41,3.99-1.96,1.75-3.61,3.88-4.93,6.4-1.33,2.52-2.21,5.32-2.62,8.4h40.53c-.56-6.72-2.83-11.76-6.82-15.12Z"/><path class="cls-1" d="m468.11,431.45c-3.99-3.36-8.23-5.04-12.71-5.04-2.38,0-4.72.46-7.04,1.37-2.31.91-4.45,2.24-6.4,3.99-1.96,1.75-3.61,3.88-4.94,6.4-1.33,2.52-2.21,5.32-2.62,8.4h40.53c-.56-6.72-2.83-11.76-6.82-15.12Z"/><path class="cls-1" d="m1168.87,259.45c-3.99-3.36-8.23-5.04-12.71-5.04-2.38,0-4.73.46-7.04,1.37-2.31.91-4.45,2.24-6.41,3.99-1.96,1.75-3.61,3.88-4.93,6.4-1.33,2.52-2.21,5.32-2.62,8.4h40.53c-.56-6.72-2.83-11.76-6.82-15.12Z"/><path class="cls-1" d="m802.11,308.17c1.96,2.8,4.44,5.01,7.46,6.62,3.01,1.61,6.54,2.42,10.6,2.42s7.38-.8,10.4-2.42c3.01-1.61,5.53-3.81,7.56-6.62,2.03-2.8,3.57-6.05,4.62-9.76,1.05-3.71,1.58-7.73,1.58-12.08s-.53-8.19-1.58-11.97-2.59-7.04-4.62-9.76c-2.03-2.73-4.55-4.9-7.56-6.51-3.01-1.61-6.48-2.42-10.4-2.42s-7.39.81-10.39,2.42c-3.01,1.61-5.53,3.78-7.56,6.51-2.03,2.73-3.57,5.98-4.62,9.76-1.05,3.78-1.57,7.77-1.57,11.97s.52,8.37,1.57,12.08c1.05,3.71,2.55,6.97,4.52,9.76Z"/><path class="cls-1" d="m328.04,455.91c3.71,2.87,8.5,4.31,14.38,4.31s10.74-1.43,14.6-4.31c3.85-2.87,5.77-6.96,5.77-12.29s-1.93-9.59-5.77-12.81c-3.85-3.22-8.72-4.83-14.6-4.83s-10.68,1.58-14.38,4.73c-3.71,3.15-5.56,7.39-5.56,12.7s1.85,9.63,5.56,12.5Z"/><path class="cls-1" d="m216.63,486.99c2.52,2.03,6.23,3.04,11.13,3.04,3.5,0,6.89-.7,10.18-2.1,3.29-1.4,6.12-3.15,8.51-5.25v-20.58c-2.8.14-5.78.39-8.93.74-3.15.35-6.13.81-8.92,1.36-5.88,1.12-9.98,3.04-12.29,5.78s-3.46,5.71-3.46,8.92,1.26,6.06,3.78,8.08Z"/><path class="cls-1" d="m493.73,259.45c-3.99-3.36-8.23-5.04-12.71-5.04-2.38,0-4.73.46-7.04,1.37-2.31.91-4.45,2.24-6.41,3.99-1.96,1.75-3.61,3.88-4.93,6.4-1.33,2.52-2.21,5.32-2.62,8.4h40.53c-.56-6.72-2.83-11.76-6.82-15.12Z"/><path class="cls-1" d="m1783.01,360.04c8.4,0,14.98-.84,19.74-2.52,4.76-1.68,7.14-4.13,7.14-7.35,0-1.82-.35-3.36-1.05-4.62-.7-1.26-2.21-2.31-4.51-3.15-2.31-.84-5.57-1.51-9.76-2-4.2-.49-9.87-.81-17.01-.95-2.8-.14-5.67-.42-8.61-.84-2.94-.28-5.81-.63-8.61-1.05-1.26.84-2.52,2.06-3.78,3.67-1.26,1.61-1.89,3.53-1.89,5.78,0,8.68,9.45,13.02,28.35,13.02Z"/><path class="cls-1" d="m1764.42,283.91c3.71,2.87,8.5,4.31,14.39,4.31s10.74-1.43,14.59-4.31c3.85-2.87,5.77-6.96,5.77-12.29s-1.93-9.59-5.77-12.81c-3.85-3.22-8.71-4.83-14.59-4.83s-10.68,1.58-14.39,4.73c-3.71,3.15-5.56,7.39-5.56,12.7s1.85,9.63,5.56,12.5Z"/><path class="cls-1" d="m1556.1,455.91c3.71,2.87,8.5,4.31,14.39,4.31s10.74-1.43,14.59-4.31c3.85-2.87,5.77-6.96,5.77-12.29s-1.93-9.59-5.77-12.81c-3.85-3.22-8.71-4.83-14.59-4.83s-10.68,1.58-14.39,4.73c-3.71,3.15-5.56,7.39-5.56,12.7s1.85,9.63,5.56,12.5Z"/><path class="cls-1" d="m1594.43,529.52c4.76-1.68,7.14-4.13,7.14-7.35,0-1.82-.35-3.36-1.05-4.62-.7-1.26-2.21-2.31-4.51-3.15-2.31-.84-5.57-1.51-9.76-2-4.2-.49-9.87-.81-17.01-.95-2.8-.14-5.67-.42-8.61-.84-2.94-.28-5.81-.63-8.61-1.05-1.26.84-2.52,2.06-3.78,3.67-1.26,1.61-1.89,3.53-1.89,5.78,0,8.68,9.45,13.02,28.35,13.02,8.4,0,14.98-.84,19.74-2.52Z"/><path class="cls-1" d="m-1.7-1.51v889.01h2028.03V-1.51H-1.7Zm1710.26,393.48c-2.73,3.08-6.83,4.62-12.29,4.62s-9.55-1.54-12.29-4.62c-2.73-3.08-4.09-6.51-4.09-10.29s1.37-7,4.09-10.08c2.73-3.08,6.83-4.62,12.29-4.62s9.56,1.54,12.29,4.62c2.73,3.08,4.09,6.44,4.09,10.08s-1.36,7.21-4.09,10.29Zm1.37,16.17v101.22h-27.3v-101.22h27.3Zm-148.15-208.54c2.73-3.08,6.83-4.62,12.29-4.62s9.56,1.54,12.29,4.62c2.73,3.08,4.09,6.44,4.09,10.08s-1.36,7.21-4.09,10.29c-2.73,3.08-6.83,4.62-12.29,4.62s-9.55-1.54-12.29-4.62c-2.73-3.08-4.09-6.51-4.09-10.29s1.37-7,4.09-10.08Zm25.94,36.54v101.22h-27.3v-101.22h27.3Zm-115.08,0h14.91v-26.25h27.3v26.25h24.57v21h-24.57v51.66c0,3.22.73,5.43,2.21,6.61,1.47,1.19,2.9,1.79,4.3,1.79,2.8,0,5.53-.7,8.19-2.1,2.66-1.4,4.97-2.87,6.93-4.41l9.87,18.69c-4.62,3.08-9.49,5.57-14.6,7.46-5.11,1.89-10.54,2.83-16.27,2.83-3.5,0-6.93-.49-10.29-1.47-3.36-.98-6.34-2.52-8.92-4.62-2.59-2.1-4.69-4.86-6.3-8.29-1.61-3.43-2.42-7.59-2.42-12.5v-55.65h-14.91v-21Zm-42.73-36.54c2.73-3.08,6.83-4.62,12.29-4.62s9.56,1.54,12.29,4.62c2.73,3.08,4.09,6.44,4.09,10.08s-1.36,7.21-4.09,10.29c-2.73,3.08-6.83,4.62-12.29,4.62s-9.55-1.54-12.29-4.62c-2.73-3.08-4.09-6.51-4.09-10.29s1.37-7,4.09-10.08Zm25.94,36.54v101.22h-27.3v-101.22h27.3Zm-131.88,27.51c2.66-6.72,6.2-12.32,10.61-16.8,4.41-4.48,9.48-7.8,15.22-9.98,5.74-2.17,11.69-3.25,17.85-3.25s11.66.88,16.49,2.62c4.83,1.75,9.03,4.03,12.6,6.83,3.57,2.8,6.51,5.95,8.82,9.45,2.31,3.5,4.09,7,5.36,10.5l-21.63,10.71c-2.38-6.72-5.36-11.45-8.93-14.17-3.57-2.73-7.6-4.1-12.07-4.1-2.8,0-5.46.63-7.98,1.89-2.52,1.26-4.8,3.15-6.83,5.67-2.03,2.52-3.64,5.74-4.83,9.66-1.19,3.92-1.78,8.61-1.78,14.07,0,9.66,2.13,17.15,6.4,22.47,4.27,5.32,9.83,7.98,16.7,7.98,5.32,0,9.66-1.33,13.02-3.99,3.36-2.66,6.37-6.44,9.03-11.34l20.58,11.13c-4.34,9.1-10.18,15.82-17.54,20.16-7.35,4.34-15.93,6.51-25.72,6.51-6.44,0-12.64-1.12-18.58-3.36-5.95-2.24-11.2-5.57-15.75-9.98-4.55-4.41-8.19-9.87-10.92-16.38-2.73-6.51-4.1-14.1-4.1-22.79s1.33-16.8,3.99-23.52Zm54.07,128.32c-2.73,3.08-6.83,4.62-12.29,4.62s-9.55-1.54-12.29-4.62c-2.73-3.08-4.09-6.51-4.09-10.29s1.37-7,4.09-10.08c2.73-3.08,6.83-4.62,12.29-4.62s9.56,1.54,12.29,4.62c2.73,3.08,4.09,6.44,4.09,10.08s-1.36,7.21-4.09,10.29Zm1.37,16.17v101.22h-27.3v-101.22h27.3Zm-140.06-172l23.31,31.29,23.31-31.29h28.14l-36.96,49.35,38.64,51.87h-30.87l-23.52-31.92-23.73,31.92h-28.56l38.01-49.98-38.64-51.24h30.87Zm-128.42,27.93c2.59-6.58,6.12-12.11,10.6-16.59s9.69-7.91,15.65-10.29c5.95-2.38,12.28-3.57,19-3.57,14.14,0,25.51,4.94,34.12,14.81,8.61,9.87,13.05,24.82,13.33,44.83h-69.09c.7,8.54,3.32,14.7,7.88,18.48,4.55,3.78,9.62,5.67,15.22,5.67,4.9,0,9.31-.87,13.23-2.62,3.92-1.75,7.98-5.56,12.18-11.44l20.37,12.39c-5.74,8.82-12.39,15.01-19.95,18.58s-16.45,5.35-26.67,5.35c-6.72,0-13.09-1.05-19.11-3.15-6.02-2.1-11.31-5.36-15.85-9.77-4.55-4.41-8.16-9.9-10.82-16.48-2.66-6.58-3.99-14.42-3.99-23.52,0-8.54,1.29-16.1,3.89-22.68Zm-127.36-27.93h14.91v-26.25h27.3v26.25h24.57v21h-24.57v51.66c0,3.22.73,5.43,2.21,6.61,1.47,1.19,2.9,1.79,4.3,1.79,2.8,0,5.53-.7,8.19-2.1,2.66-1.4,4.97-2.87,6.93-4.41l9.87,18.69c-4.62,3.08-9.49,5.57-14.6,7.46-5.11,1.89-10.54,2.83-16.27,2.83-3.5,0-6.93-.49-10.29-1.47-3.36-.98-6.34-2.52-8.92-4.62-2.59-2.1-4.69-4.86-6.3-8.29-1.61-3.43-2.42-7.59-2.42-12.5v-55.65h-14.91v-21Zm-39.69,65.31c-3.36-2.24-9.59-4.2-18.69-5.88-5.32-.98-10.19-2.27-14.59-3.88-4.41-1.61-8.16-3.67-11.24-6.2-3.08-2.52-5.46-5.53-7.14-9.03-1.68-3.5-2.52-7.7-2.52-12.6,0-8.96,3.74-16.24,11.24-21.84,7.49-5.6,17.6-8.4,30.34-8.4,11.48,0,20.58,1.86,27.3,5.57,6.72,3.71,11.9,8.23,15.54,13.54l-19.32,13.23c-2.52-3.36-5.74-6.16-9.66-8.4-3.92-2.24-8.54-3.36-13.86-3.36-5.88,0-9.94.88-12.18,2.62-2.24,1.75-3.36,4.03-3.36,6.83,0,3.22,1.4,5.53,4.2,6.93,2.8,1.4,7.98,2.87,15.54,4.41,6.16,1.26,11.66,2.73,16.48,4.41,4.83,1.68,8.93,3.82,12.29,6.41,3.36,2.59,5.91,5.71,7.67,9.34,1.75,3.64,2.62,7.91,2.62,12.81,0,5.46-1.12,10.19-3.36,14.18-2.24,3.99-5.32,7.28-9.24,9.87-3.92,2.59-8.54,4.52-13.86,5.78-5.32,1.26-10.99,1.89-17.01,1.89-12.04,0-21.81-2.28-29.29-6.82-7.49-4.55-13.2-10.25-17.12-17.12l20.37-12.39c2.38,4.48,5.7,8.23,9.97,11.23,4.27,3.01,9.62,4.52,16.07,4.52,5.6,0,9.97-.87,13.12-2.62,3.15-1.75,4.72-4.16,4.72-7.25s-1.68-5.53-5.04-7.77Zm-31.29,106.69l18.27,60.9,19.95-60.9h16.8l20.16,60.9,18.27-60.9h28.56l-36.12,101.22h-19.95l-19.32-58.59-19.11,58.59h-19.95l-36.12-101.22h28.56Zm-140.28-141.13c2.1-6.3,5.28-11.93,9.55-16.91,4.27-4.97,9.59-8.96,15.96-11.97,6.37-3.01,13.82-4.52,22.37-4.52s15.99,1.51,22.37,4.52c6.37,3.01,11.69,7,15.96,11.97,4.27,4.97,7.46,10.6,9.55,16.91,2.1,6.3,3.15,12.74,3.15,19.32s-1.05,13.06-3.15,19.42c-2.1,6.37-5.29,12.08-9.55,17.12-4.27,5.04-9.59,9.1-15.96,12.18-6.37,3.08-13.83,4.62-22.37,4.62s-16.03-1.54-22.47-4.62c-6.3-3.08-11.59-7.14-15.86-12.18-4.27-5.04-7.46-10.74-9.55-17.12-2.1-6.37-3.15-12.84-3.15-19.42s1.05-13.02,3.15-19.32Zm-181.86-30.87h25.2l1.05,7.56c3.22-2.8,7.24-5.18,12.07-7.14,4.83-1.96,9.69-2.94,14.6-2.94s9.87.74,14.91,2.21c5.04,1.47,9.66,4.03,13.86,7.67,4.9-2.8,10.22-5.14,15.96-7.04,5.74-1.89,11.97-2.83,18.69-2.83,7.98,0,14.63.98,19.95,2.94,5.32,1.96,9.62,4.76,12.92,8.4,3.29,3.64,5.63,8.12,7.03,13.44,1.4,5.32,2.1,11.41,2.1,18.27v60.69h-27.3v-59.43c0-6.72-1.33-12.14-3.99-16.28-2.66-4.13-7.56-6.2-14.7-6.2-2.1,0-4.2.32-6.3.95-2.1.63-4.09,1.37-5.99,2.21-1.89.84-3.61,1.72-5.14,2.62-1.54.91-2.73,1.72-3.57,2.42.28,1.68.56,3.57.84,5.67.28,2.1.42,4.41.42,6.93v61.11h-27.3v-59.43c0-3.08-.28-5.99-.84-8.71-.56-2.73-1.47-5.11-2.73-7.14-1.26-2.03-2.98-3.64-5.14-4.83-2.17-1.19-4.87-1.79-8.08-1.79-4.06,0-7.98,1.05-11.76,3.15-3.78,2.1-6.86,4.34-9.24,6.72v72.03h-27.51v-101.22Zm81.37,245.08c4.27,5.32,9.83,7.98,16.7,7.98,5.32,0,9.66-1.33,13.02-3.99,3.36-2.66,6.37-6.44,9.03-11.34l20.58,11.13c-4.34,9.1-10.18,15.82-17.54,20.16-7.35,4.34-15.93,6.51-25.72,6.51-6.44,0-12.64-1.12-18.58-3.36-5.95-2.24-11.2-5.57-15.75-9.98-4.55-4.41-8.19-9.87-10.92-16.38-2.73-6.51-4.1-14.1-4.1-22.79s1.33-16.8,3.99-23.52c2.66-6.72,6.2-12.32,10.61-16.8,4.41-4.48,9.48-7.8,15.22-9.98,5.74-2.17,11.69-3.25,17.85-3.25s11.66.88,16.49,2.62c4.83,1.75,9.03,4.03,12.6,6.83,3.57,2.8,6.51,5.95,8.82,9.45,2.31,3.5,4.09,7,5.36,10.5l-21.63,10.71c-2.38-6.72-5.36-11.45-8.93-14.17-3.57-2.73-7.6-4.1-12.07-4.1-2.8,0-5.46.63-7.98,1.89-2.52,1.26-4.8,3.15-6.83,5.67-2.03,2.52-3.64,5.74-4.83,9.66-1.19,3.92-1.78,8.61-1.78,14.07,0,9.66,2.13,17.15,6.4,22.47Zm-122.74-65.1c4.2-3.36,9.03-5.95,14.49-7.77,5.46-1.82,10.92-2.73,16.38-2.73s10.74.81,15.44,2.42c4.69,1.61,8.71,4.17,12.08,7.67,3.36,3.5,5.98,8.05,7.88,13.65,1.89,5.6,2.83,12.32,2.83,20.16v59.85h-27.51v-57.75c0-7.7-1.68-13.65-5.04-17.85-3.36-4.2-8.05-6.3-14.07-6.3-4.2,0-8.12,1.05-11.76,3.15-3.64,2.1-6.79,4.41-9.45,6.93v71.82h-27.51v-101.22h24.99l1.26,7.98Zm-113.29-152.05c2.59-6.58,6.12-12.11,10.6-16.59s9.69-7.91,15.65-10.29c5.95-2.38,12.28-3.57,19-3.57,14.14,0,25.51,4.94,34.12,14.81,8.61,9.87,13.05,24.82,13.33,44.83h-69.09c.7,8.54,3.32,14.7,7.88,18.48,4.55,3.78,9.62,5.67,15.22,5.67,4.9,0,9.31-.87,13.23-2.62,3.92-1.75,7.98-5.56,12.18-11.44l20.37,12.39c-5.74,8.82-12.39,15.01-19.95,18.58s-16.45,5.35-26.67,5.35c-6.72,0-13.09-1.05-19.11-3.15-6.02-2.1-11.31-5.36-15.85-9.77-4.55-4.41-8.16-9.9-10.82-16.48-2.66-6.58-3.99-14.42-3.99-23.52,0-8.54,1.29-16.1,3.89-22.68Zm-118.75-66.78h27.51v45.57c3.36-2.52,7.38-4.69,12.07-6.51,4.69-1.82,10.32-2.73,16.91-2.73s12.67,1.05,17.43,3.15c4.76,2.1,8.68,5.04,11.76,8.82,3.08,3.78,5.32,8.37,6.72,13.75,1.4,5.39,2.1,11.38,2.1,17.96v60.06h-27.51v-58.17c0-8.4-1.72-14.45-5.15-18.17-3.43-3.71-7.39-5.57-11.87-5.57s-8.75,1.16-12.81,3.47c-4.06,2.31-7.28,4.45-9.66,6.4v72.03h-27.51v-140.07Zm-126.63,0h111.93v25.41h-41.58v114.66h-28.56v-114.66h-41.79v-25.41Zm-18.48,483.54c-5.11,1.89-10.54,2.83-16.27,2.83-3.5,0-6.93-.49-10.29-1.47-3.36-.98-6.34-2.52-8.93-4.62-2.59-2.1-4.69-4.86-6.3-8.29-1.61-3.43-2.42-7.59-2.42-12.5v-55.65h-14.91v-21h14.91v-26.25h27.3v26.25h24.57v21h-24.57v51.66c0,3.22.74,5.43,2.21,6.61,1.47,1.19,2.9,1.79,4.31,1.79,2.8,0,5.53-.7,8.19-2.1,2.66-1.4,4.97-2.87,6.93-4.41l9.87,18.69c-4.62,3.08-9.49,5.57-14.59,7.46Zm17.22-187.75c-1.96-3.99-2.94-8.5-2.94-13.54s1.05-9.48,3.15-13.33c2.1-3.85,4.9-7.1,8.4-9.76,3.5-2.66,7.52-4.83,12.08-6.51,4.55-1.68,9.34-2.94,14.38-3.78,3.5-.7,7.35-1.22,11.55-1.58,4.2-.35,7.7-.66,10.5-.95v-3.36c0-4.06-1.4-7.35-4.2-9.87-2.8-2.52-6.09-3.78-9.87-3.78-2.38,0-5.39.63-9.03,1.89-3.64,1.26-7.14,3.64-10.5,7.14l-18.69-13.02c2.66-3.36,5.7-6.16,9.13-8.4,3.43-2.24,6.93-3.99,10.5-5.25,3.57-1.26,7.1-2.13,10.6-2.62,3.5-.49,6.72-.74,9.66-.74,5.88,0,11.27.74,16.17,2.21,4.9,1.47,9.14,3.78,12.71,6.93,3.57,3.15,6.33,7.14,8.29,11.97,1.96,4.83,2.94,10.68,2.94,17.54v65.1h-25.2l-1.26-7.56c-2.94,3.08-6.69,5.5-11.23,7.24-4.55,1.75-9.56,2.62-15.02,2.62-4.48,0-8.86-.73-13.12-2.2-4.27-1.47-8.02-3.57-11.23-6.3-3.22-2.73-5.81-6.09-7.77-10.08Zm105.95,188.28h-27.51v-58.17c0-8.4-1.72-14.45-5.15-18.17-3.43-3.71-7.39-5.57-11.87-5.57s-8.75,1.16-12.81,3.47c-4.06,2.31-7.28,4.45-9.66,6.4v72.03h-27.51v-140.07h27.51v45.57c3.36-2.52,7.38-4.69,12.07-6.51,4.69-1.82,10.32-2.73,16.91-2.73s12.67,1.05,17.43,3.15c4.76,2.1,8.68,5.04,11.76,8.82,3.08,3.78,5.32,8.37,6.72,13.75,1.4,5.39,2.1,11.38,2.1,17.96v60.06Zm3.36-145.43c-3.01-3.85-4.51-8.72-4.51-14.6,0-4.9,1.05-8.86,3.15-11.86,2.1-3.01,4.97-5.49,8.61-7.46-1.96-1.54-3.67-3.57-5.15-6.09-1.47-2.52-2.21-5.32-2.21-8.4,0-3.64,1.05-6.89,3.15-9.77,2.1-2.87,4.9-5.28,8.4-7.24-4.06-3.22-7.32-7.17-9.77-11.87-2.45-4.69-3.67-9.83-3.67-15.44,0-6.3,1.29-11.79,3.88-16.48,2.59-4.69,6.02-8.61,10.29-11.76,4.27-3.15,9.17-5.49,14.7-7.04,5.53-1.54,11.23-2.31,17.11-2.31,4.06,0,7.7.35,10.92,1.05,3.22.7,6.65,1.75,10.29,3.15l16.17-17.01,15.33,12.6-14.7,15.54c2.66,2.94,4.72,6.37,6.19,10.29,1.47,3.92,2.21,7.91,2.21,11.97,0,6.3-1.3,11.8-3.89,16.49-2.59,4.69-6.06,8.58-10.4,11.66-4.34,3.08-9.31,5.39-14.91,6.93-5.6,1.54-11.34,2.31-17.22,2.31-2.66,0-5.29-.17-7.88-.53-2.59-.35-4.8-.74-6.61-1.16-.7.42-1.4,1.12-2.1,2.1-.7.98-1.05,1.89-1.05,2.73,0,.98.35,1.82,1.05,2.52.7.7,2.06,1.33,4.09,1.89,2.03.56,4.86,1.05,8.51,1.47,3.64.42,8.47.7,14.49.84,7.28.28,13.72.95,19.32,2,5.6,1.05,10.25,2.73,13.97,5.04,3.71,2.31,6.51,5.32,8.4,9.03s2.83,8.29,2.83,13.75c0,6.02-1.47,11.03-4.41,15.01-2.94,3.99-6.79,7.21-11.55,9.66-4.76,2.45-10.26,4.16-16.48,5.15-6.23.98-12.57,1.47-19.01,1.47s-12.78-.49-19-1.47c-6.23-.98-11.8-2.62-16.69-4.94-4.9-2.31-8.86-5.39-11.87-9.24Zm52.4,119.81c4.55,3.78,9.62,5.67,15.23,5.67,4.9,0,9.31-.87,13.23-2.62,3.92-1.75,7.98-5.56,12.18-11.44l20.37,12.39c-5.74,8.82-12.39,15.01-19.95,18.58-7.56,3.57-16.45,5.35-26.67,5.35-6.72,0-13.09-1.05-19.11-3.15-6.02-2.1-11.31-5.36-15.85-9.77-4.55-4.41-8.16-9.9-10.81-16.48-2.66-6.58-3.99-14.42-3.99-23.52,0-8.54,1.29-16.1,3.88-22.68,2.59-6.58,6.12-12.11,10.6-16.59,4.48-4.48,9.69-7.91,15.65-10.29,5.95-2.38,12.29-3.57,19.01-3.57,14.14,0,25.51,4.94,34.12,14.81,8.61,9.87,13.05,24.82,13.33,44.83h-69.09c.7,8.54,3.32,14.7,7.88,18.48Zm86.1-147.22c-6.02-2.1-11.31-5.36-15.85-9.77-4.55-4.41-8.16-9.9-10.82-16.48-2.66-6.58-3.99-14.42-3.99-23.52,0-8.54,1.29-16.1,3.89-22.68,2.59-6.58,6.12-12.11,10.6-16.59,4.48-4.48,9.69-7.91,15.65-10.29,5.95-2.38,12.28-3.57,19-3.57,14.14,0,25.52,4.94,34.12,14.81,8.61,9.87,13.05,24.82,13.34,44.83h-69.09c.7,8.54,3.32,14.7,7.88,18.48,4.55,3.78,9.62,5.67,15.22,5.67,4.9,0,9.31-.87,13.23-2.62,3.92-1.75,7.98-5.56,12.18-11.44l20.37,12.39c-5.74,8.82-12.39,15.01-19.95,18.58-7.56,3.57-16.45,5.35-26.67,5.35-6.72,0-13.09-1.05-19.11-3.15Zm66.15,147.22c4.55,3.78,9.62,5.67,15.22,5.67,4.9,0,9.31-.87,13.23-2.62,3.92-1.75,7.98-5.56,12.18-11.44l20.37,12.39c-5.74,8.82-12.39,15.01-19.95,18.58s-16.45,5.35-26.67,5.35c-6.72,0-13.09-1.05-19.11-3.15-6.02-2.1-11.31-5.36-15.85-9.77-4.55-4.41-8.16-9.9-10.82-16.48-2.66-6.58-3.99-14.42-3.99-23.52,0-8.54,1.29-16.1,3.89-22.68,2.59-6.58,6.12-12.11,10.6-16.59s9.69-7.91,15.65-10.29c5.95-2.38,12.28-3.57,19-3.57,14.14,0,25.51,4.94,34.12,14.81,8.61,9.87,13.05,24.82,13.33,44.83h-69.09c.7,8.54,3.32,14.7,7.88,18.48Zm134.93,25.62h-23.73l-44.73-101.22h29.19l27.93,67.2,26.88-67.2h27.93l-43.47,101.22Zm84.1-25.62c4.55,3.78,9.62,5.67,15.22,5.67,4.9,0,9.31-.87,13.23-2.62,3.92-1.75,7.98-5.56,12.18-11.44l20.37,12.39c-5.74,8.82-12.39,15.01-19.95,18.58s-16.45,5.35-26.67,5.35c-6.72,0-13.09-1.05-19.11-3.15-6.02-2.1-11.31-5.36-15.85-9.77-4.55-4.41-8.16-9.9-10.82-16.48-2.66-6.58-3.99-14.42-3.99-23.52,0-8.54,1.29-16.1,3.89-22.68,2.59-6.58,6.12-12.11,10.6-16.59s9.69-7.91,15.65-10.29c5.95-2.38,12.28-3.57,19-3.57,14.14,0,25.51,4.94,34.12,14.81,8.61,9.87,13.05,24.82,13.33,44.83h-69.09c.7,8.54,3.32,14.7,7.88,18.48Zm61.94-113.62c-2.1,2.38-4.41,4.27-6.93,5.67-2.52,1.4-5.22,2.38-8.08,2.94-2.87.56-5.71.84-8.5.84-3.64,0-7.67-.46-12.08-1.37-4.41-.91-8.92-2.35-13.54-4.3l8.61-19.53c2.66,1.26,5.28,2.17,7.88,2.73,2.59.56,4.79.84,6.62.84,1.68,0,3.36-.49,5.04-1.47,1.68-.98,3.22-2.94,4.62-5.88l7.77-17.43-42-97.02h29.19l26.46,69.09,25.2-69.09h27.72l-52.5,125.16c-1.54,3.5-3.36,6.44-5.46,8.82Zm114.56,139.24h-27.51v-57.75c0-7.7-1.68-13.65-5.04-17.85-3.36-4.2-8.05-6.3-14.07-6.3-4.2,0-8.12,1.05-11.76,3.15-3.64,2.1-6.79,4.41-9.45,6.93v71.82h-27.51v-101.22h24.99l1.26,7.98c4.2-3.36,9.03-5.95,14.49-7.77,5.46-1.82,10.92-2.73,16.38-2.73s10.74.81,15.44,2.42c4.69,1.61,8.71,4.17,12.08,7.67,3.36,3.5,5.98,8.05,7.88,13.65,1.89,5.6,2.83,12.32,2.83,20.16v59.85Zm75.28-.53c-5.11,1.89-10.54,2.83-16.27,2.83-3.5,0-6.93-.49-10.29-1.47-3.36-.98-6.34-2.52-8.92-4.62-2.59-2.1-4.69-4.86-6.3-8.29-1.61-3.43-2.42-7.59-2.42-12.5v-55.65h-14.91v-21h14.91v-26.25h27.3v26.25h24.57v21h-24.57v51.66c0,3.22.73,5.43,2.21,6.61,1.47,1.19,2.9,1.79,4.3,1.79,2.8,0,5.53-.7,8.19-2.1,2.66-1.4,4.97-2.87,6.93-4.41l9.87,18.69c-4.62,3.08-9.49,5.57-14.6,7.46Zm107.62-14.7c-2.24,3.99-5.32,7.28-9.24,9.87-3.92,2.59-8.54,4.52-13.86,5.78-5.32,1.26-10.99,1.89-17.01,1.89-12.04,0-21.81-2.28-29.29-6.82-7.49-4.55-13.2-10.25-17.12-17.12l20.37-12.39c2.38,4.48,5.7,8.23,9.97,11.23,4.27,3.01,9.62,4.52,16.07,4.52,5.6,0,9.97-.87,13.12-2.62,3.15-1.75,4.72-4.16,4.72-7.25s-1.68-5.53-5.04-7.77c-3.36-2.24-9.59-4.2-18.69-5.88-5.32-.98-10.19-2.27-14.59-3.88-4.41-1.61-8.16-3.67-11.23-6.2-3.08-2.52-5.46-5.53-7.14-9.03-1.68-3.5-2.52-7.7-2.52-12.6,0-8.96,3.74-16.24,11.24-21.84,7.49-5.6,17.6-8.4,30.34-8.4,11.48,0,20.58,1.86,27.3,5.57,6.72,3.71,11.9,8.23,15.54,13.54l-19.32,13.23c-2.52-3.36-5.74-6.16-9.66-8.4-3.92-2.24-8.54-3.36-13.86-3.36-5.88,0-9.94.88-12.18,2.62-2.24,1.75-3.36,4.03-3.36,6.83,0,3.22,1.4,5.53,4.2,6.93,2.8,1.4,7.98,2.87,15.54,4.41,6.16,1.26,11.66,2.73,16.48,4.41,4.83,1.68,8.93,3.82,12.29,6.41,3.36,2.59,5.91,5.71,7.67,9.34,1.75,3.64,2.62,7.91,2.62,12.81,0,5.46-1.12,10.19-3.36,14.18Zm58.9-188.38c-2.1,6.37-5.29,12.08-9.55,17.12-4.27,5.04-9.59,9.1-15.96,12.18-6.37,3.08-13.83,4.62-22.37,4.62s-16.03-1.54-22.47-4.62c-6.3-3.08-11.59-7.14-15.86-12.18-4.27-5.04-7.46-10.74-9.55-17.12-2.1-6.37-3.15-12.84-3.15-19.42s1.05-13.02,3.15-19.32c2.1-6.3,5.28-11.93,9.55-16.91,4.27-4.97,9.59-8.96,15.96-11.97,6.37-3.01,13.82-4.52,22.37-4.52s15.99,1.51,22.37,4.52c6.37,3.01,11.69,7,15.96,11.97,4.27,4.97,7.46,10.6,9.55,16.91,2.1,6.3,3.15,12.74,3.15,19.32s-1.05,13.06-3.15,19.42Zm33.29,203.61h-27.3v-101.22h27.3v101.22Zm-1.37-117.39c-2.73,3.08-6.83,4.62-12.29,4.62s-9.55-1.54-12.29-4.62c-2.73-3.08-4.09-6.51-4.09-10.29s1.37-7,4.09-10.08c2.73-3.08,6.83-4.62,12.29-4.62s9.56,1.54,12.29,4.62c2.73,3.08,4.09,6.44,4.09,10.08s-1.36,7.21-4.09,10.29Zm19.74-125.59v70.98h-27.51v-101.22h24.99l1.26,8.82c3.78-4.06,7.59-6.89,11.44-8.5,3.85-1.61,7.88-2.42,12.08-2.42,2.38,0,4.9.28,7.56.84,2.66.56,5.39,1.33,8.19,2.31l-4.83,23.73c-2.8-1.12-5.43-1.99-7.88-2.62-2.45-.63-4.87-.94-7.25-.94-3.92,0-7.46.91-10.6,2.73-3.15,1.82-5.64,3.92-7.46,6.3Zm104.26,242.98h-27.51v-57.75c0-7.7-1.68-13.65-5.04-17.85-3.36-4.2-8.05-6.3-14.07-6.3-4.2,0-8.12,1.05-11.76,3.15-3.64,2.1-6.79,4.41-9.45,6.93v71.82h-27.51v-101.22h24.99l1.26,7.98c4.2-3.36,9.03-5.95,14.49-7.77,5.46-1.82,10.92-2.73,16.38-2.73s10.74.81,15.44,2.42c4.69,1.61,8.71,4.17,12.08,7.67,3.36,3.5,5.98,8.05,7.88,13.65,1.89,5.6,2.83,12.32,2.83,20.16v59.85Zm-16.49-224.29l-9.87,9.24v43.05h-27.51v-140.07h27.51v67.41l31.71-28.56h32.97l-34.86,31.29,39.9,69.93h-30.87l-28.98-52.29Zm132.83,224.29h-24.99l-1.26-7.77c-2.52,2.66-5.81,5.01-9.87,7.03-4.06,2.03-8.89,3.04-14.49,3.04-7.28,0-13.75-1.47-19.42-4.41-5.67-2.94-10.43-6.86-14.28-11.76-3.85-4.9-6.76-10.57-8.71-17.01-1.96-6.44-2.94-13.16-2.94-20.16,0-6.58,1.05-13.02,3.15-19.32,2.1-6.3,5.25-11.93,9.45-16.91,4.2-4.97,9.45-8.96,15.75-11.97,6.3-3.01,13.72-4.52,22.26-4.52,5.74,0,11.76.98,18.06,2.94v-39.27h27.3v140.07Zm21.52-172h-27.51v-101.22h24.99l1.26,7.98c4.2-3.36,9.03-5.95,14.49-7.77,5.46-1.82,10.92-2.73,16.38-2.73s10.74.81,15.44,2.42c4.69,1.61,8.71,4.17,12.08,7.67,3.36,3.5,5.98,8.05,7.88,13.65,1.89,5.6,2.83,12.32,2.83,20.16v59.85h-27.51v-57.75c0-7.7-1.68-13.65-5.04-17.85-3.36-4.2-8.05-6.3-14.07-6.3-4.2,0-8.12,1.05-11.76,3.15-3.64,2.1-6.79,4.41-9.45,6.93v71.82Zm100.07,172h-25.2l-1.05-7.98c-4.9,3.92-9.94,6.58-15.12,7.98-5.18,1.4-10.29,2.1-15.33,2.1-12.32,0-21.77-3.57-28.35-10.71-6.58-7.14-9.87-17.92-9.87-32.34v-60.27h27.51v57.54c0,7,1.33,12.67,3.99,17.01,2.66,4.34,7.21,6.51,13.65,6.51,5.32,0,9.8-1.01,13.44-3.04,3.64-2.03,6.58-3.95,8.82-5.78v-72.24h27.51v101.22Zm-7.77-145.43c-3.01-3.85-4.52-8.72-4.52-14.6,0-4.9,1.05-8.86,3.15-11.86,2.1-3.01,4.97-5.49,8.61-7.46-1.96-1.54-3.68-3.57-5.15-6.09-1.47-2.52-2.21-5.32-2.21-8.4,0-3.64,1.05-6.89,3.15-9.77,2.1-2.87,4.9-5.28,8.4-7.24-4.06-3.22-7.32-7.17-9.76-11.87-2.45-4.69-3.67-9.83-3.67-15.44,0-6.3,1.29-11.79,3.88-16.48,2.59-4.69,6.02-8.61,10.29-11.76,4.27-3.15,9.17-5.49,14.7-7.04,5.53-1.54,11.23-2.31,17.12-2.31,4.06,0,7.7.35,10.92,1.05,3.22.7,6.65,1.75,10.29,3.15l16.17-17.01,15.33,12.6-14.7,15.54c2.66,2.94,4.72,6.37,6.19,10.29,1.47,3.92,2.21,7.91,2.21,11.97,0,6.3-1.3,11.8-3.88,16.49-2.59,4.69-6.06,8.58-10.39,11.66-4.34,3.08-9.31,5.39-14.91,6.93-5.6,1.54-11.34,2.31-17.22,2.31-2.66,0-5.29-.17-7.88-.53-2.59-.35-4.8-.74-6.62-1.16-.7.42-1.4,1.12-2.1,2.1-.7.98-1.05,1.89-1.05,2.73,0,.98.35,1.82,1.05,2.52.7.7,2.06,1.33,4.1,1.89,2.03.56,4.86,1.05,8.5,1.47,3.64.42,8.47.7,14.49.84,7.28.28,13.72.95,19.32,2,5.6,1.05,10.25,2.73,13.96,5.04,3.71,2.31,6.51,5.32,8.4,9.03s2.83,8.29,2.83,13.75c0,6.02-1.47,11.03-4.41,15.01-2.94,3.99-6.79,7.21-11.55,9.66-4.76,2.45-10.26,4.16-16.49,5.15-6.23.98-12.57,1.47-19,1.47s-12.78-.49-19-1.47c-6.23-.98-11.8-2.62-16.7-4.94-4.9-2.31-8.86-5.39-11.86-9.24Zm114.03,130.21c-2.24,3.99-5.32,7.28-9.24,9.87-3.92,2.59-8.54,4.52-13.86,5.78-5.32,1.26-10.99,1.89-17.01,1.89-12.04,0-21.81-2.28-29.29-6.82-7.49-4.55-13.2-10.25-17.12-17.12l20.37-12.39c2.38,4.48,5.7,8.23,9.97,11.23,4.27,3.01,9.62,4.52,16.07,4.52,5.6,0,9.97-.87,13.12-2.62,3.15-1.75,4.72-4.16,4.72-7.25s-1.68-5.53-5.04-7.77c-3.36-2.24-9.59-4.2-18.69-5.88-5.32-.98-10.19-2.27-14.59-3.88-4.41-1.61-8.16-3.67-11.24-6.2-3.08-2.52-5.46-5.53-7.14-9.03-1.68-3.5-2.52-7.7-2.52-12.6,0-8.96,3.74-16.24,11.24-21.84,7.49-5.6,17.6-8.4,30.34-8.4,11.48,0,20.58,1.86,27.3,5.57,6.72,3.71,11.9,8.23,15.54,13.54l-19.32,13.23c-2.52-3.36-5.74-6.16-9.66-8.4-3.92-2.24-8.54-3.36-13.86-3.36-5.88,0-9.94.88-12.18,2.62-2.24,1.75-3.36,4.03-3.36,6.83,0,3.22,1.4,5.53,4.2,6.93,2.8,1.4,7.98,2.87,15.54,4.41,6.16,1.26,11.66,2.73,16.48,4.41,4.83,1.68,8.93,3.82,12.29,6.41,3.36,2.59,5.91,5.71,7.67,9.34,1.75,3.64,2.62,7.91,2.62,12.81,0,5.46-1.12,10.19-3.36,14.18Zm1.99-400.6v71.82h-27.51v-101.22h24.99l1.26,7.98c4.2-3.36,9.03-5.95,14.49-7.77,5.46-1.82,10.92-2.73,16.38-2.73s10.74.81,15.44,2.42c4.69,1.61,8.71,4.17,12.08,7.67,3.36,3.5,5.98,8.05,7.88,13.65,1.89,5.6,2.83,12.32,2.83,20.16v59.85h-27.51v-57.75c0-7.7-1.68-13.65-5.04-17.85-3.36-4.2-8.05-6.3-14.07-6.3-4.2,0-8.12,1.05-11.76,3.15-3.64,2.1-6.79,4.41-9.45,6.93Zm69.51,415.29c-5.11,1.89-10.54,2.83-16.27,2.83-3.5,0-6.93-.49-10.29-1.47-3.36-.98-6.34-2.52-8.92-4.62-2.59-2.1-4.69-4.86-6.3-8.29-1.61-3.43-2.42-7.59-2.42-12.5v-55.65h-14.91v-21h14.91v-26.25h27.3v26.25h24.57v21h-24.57v51.66c0,3.22.73,5.43,2.21,6.61,1.47,1.19,2.9,1.79,4.3,1.79,2.8,0,5.53-.7,8.19-2.1,2.66-1.4,4.97-2.87,6.93-4.41l9.87,18.69c-4.62,3.08-9.49,5.57-14.6,7.46Zm18.27-331.5c0-4.9,1.05-8.86,3.15-11.86,2.1-3.01,4.97-5.49,8.61-7.46-1.96-1.54-3.68-3.57-5.15-6.09-1.47-2.52-2.21-5.32-2.21-8.4,0-3.64,1.05-6.89,3.15-9.77,2.1-2.87,4.9-5.28,8.4-7.24-4.06-3.22-7.32-7.17-9.76-11.87-2.45-4.69-3.67-9.83-3.67-15.44,0-6.3,1.29-11.79,3.88-16.48,2.59-4.69,6.02-8.61,10.29-11.76,4.27-3.15,9.17-5.49,14.7-7.04,5.53-1.54,11.23-2.31,17.12-2.31,4.06,0,7.7.35,10.92,1.05,3.22.7,6.65,1.75,10.29,3.15l16.17-17.01,15.33,12.6-14.7,15.54c2.66,2.94,4.72,6.37,6.19,10.29,1.47,3.92,2.21,7.91,2.21,11.97,0,6.3-1.3,11.8-3.88,16.49-2.59,4.69-6.06,8.58-10.39,11.66-4.34,3.08-9.31,5.39-14.91,6.93-5.6,1.54-11.34,2.31-17.22,2.31-2.66,0-5.29-.17-7.88-.53-2.59-.35-4.8-.74-6.62-1.16-.7.42-1.4,1.12-2.1,2.1-.7.98-1.05,1.89-1.05,2.73,0,.98.35,1.82,1.05,2.52.7.7,2.06,1.33,4.1,1.89,2.03.56,4.86,1.05,8.5,1.47,3.64.42,8.47.7,14.49.84,7.28.28,13.72.95,19.32,2,5.6,1.05,10.25,2.73,13.96,5.04,3.71,2.31,6.51,5.32,8.4,9.03s2.83,8.29,2.83,13.75c0,6.02-1.47,11.03-4.41,15.01-2.94,3.99-6.79,7.21-11.55,9.66-4.76,2.45-10.26,4.16-16.49,5.15-6.23.98-12.57,1.47-19,1.47s-12.78-.49-19-1.47c-6.23-.98-11.8-2.62-16.7-4.94-4.9-2.31-8.86-5.39-11.86-9.24-3.01-3.85-4.52-8.72-4.52-14.6Zm6.92,58.81h24.99l1.26,7.98c4.2-3.36,9.03-5.95,14.49-7.77,5.46-1.82,10.92-2.73,16.38-2.73s10.74.81,15.44,2.42c4.69,1.61,8.71,4.17,12.08,7.67,3.36,3.5,5.98,8.05,7.88,13.65,1.89,5.6,2.83,12.32,2.83,20.16v59.85h-27.51v-57.75c0-7.7-1.68-13.65-5.04-17.85-3.36-4.2-8.05-6.3-14.07-6.3-4.2,0-8.12,1.05-11.76,3.15-3.64,2.1-6.79,4.41-9.45,6.93v71.82h-27.51v-101.22Zm64.16,196.78c-2.8-1.12-5.43-1.99-7.88-2.62-2.45-.63-4.87-.94-7.25-.94-3.92,0-7.46.91-10.6,2.73-3.15,1.82-5.64,3.92-7.46,6.3v70.98h-27.51v-101.22h24.99l1.26,8.82c3.78-4.06,7.59-6.89,11.44-8.5,3.85-1.61,7.88-2.42,12.08-2.42,2.38,0,4.9.28,7.56.84,2.66.56,5.39,1.33,8.19,2.31l-4.83,23.73Zm61.11,100.38c-1.54,3.5-3.36,6.44-5.46,8.82-2.1,2.38-4.41,4.27-6.93,5.67-2.52,1.4-5.22,2.38-8.08,2.94-2.87.56-5.71.84-8.5.84-3.64,0-7.67-.46-12.08-1.37-4.41-.91-8.92-2.35-13.54-4.3l8.61-19.53c2.66,1.26,5.28,2.17,7.88,2.73,2.59.56,4.79.84,6.62.84,1.68,0,3.36-.49,5.04-1.47,1.68-.98,3.22-2.94,4.62-5.88l7.77-17.43-42-97.02h29.19l26.46,69.09,25.2-69.09h27.72l-52.5,125.16Z"/></svg>