<?xml version="1.0" encoding="UTF-8"?><svg id="Layer_1" xmlns="http://www.w3.org/2000/svg" viewBox="0 0 2025 276"><defs><style>.cls-1{fill:#303d4e;}</style></defs><path class="cls-1" d="m742.55,121.49c-1.47-.52-3.03-.91-4.68-1.17-1.65-.26-3.77-.39-6.37-.39h-10.4v25.61h9.75c2.51,0,4.79-.13,6.83-.39,2.04-.26,3.79-.74,5.26-1.43,2.51-1.13,4.29-2.69,5.33-4.68,1.04-1.99,1.56-4.11,1.56-6.37,0-2.43-.58-4.68-1.75-6.76-1.17-2.08-3.01-3.55-5.52-4.42Z"/><path class="cls-1" d="m960.88,146.64c-1.26-1.69-2.82-3.03-4.68-4.03-1.86-1-4.01-1.5-6.44-1.5s-4.57.5-6.44,1.5c-1.86,1-3.42,2.34-4.68,4.03-1.26,1.69-2.21,3.71-2.86,6.04s-.98,4.81-.98,7.41.33,5.18.98,7.47c.65,2.3,1.58,4.31,2.79,6.04,1.21,1.74,2.75,3.1,4.62,4.1,1.86,1,4.05,1.49,6.56,1.49s4.57-.5,6.44-1.49c1.86-1,3.42-2.36,4.68-4.1,1.26-1.73,2.21-3.75,2.86-6.04.65-2.29.97-4.79.97-7.47s-.32-5.07-.97-7.41c-.65-2.34-1.6-4.36-2.86-6.04Z"/><path class="cls-1" d="m1168.62,147.1c-1.17-1.82-2.64-3.29-4.42-4.42-1.78-1.13-3.88-1.69-6.3-1.69s-4.55.63-6.63,1.88c-2.08,1.26-3.64,2.62-4.68,4.1v30.29c2.69,1.21,5.33,1.82,7.93,1.82,3.03,0,5.65-.52,7.86-1.56,2.21-1.04,4.05-2.45,5.53-4.22,1.47-1.78,2.56-3.77,3.25-5.98.69-2.21,1.04-4.49,1.04-6.83s-.3-4.81-.91-7.15c-.61-2.34-1.5-4.42-2.67-6.24Z"/><path class="cls-1" d="m1096.21,146.64c-1.26-1.69-2.82-3.03-4.68-4.03-1.87-1-4.01-1.5-6.44-1.5s-4.57.5-6.43,1.5c-1.87,1-3.42,2.34-4.68,4.03-1.26,1.69-2.21,3.71-2.86,6.04s-.97,4.81-.97,7.41.32,5.18.97,7.47c.65,2.3,1.58,4.31,2.79,6.04,1.21,1.74,2.75,3.1,4.62,4.1,1.86,1,4.05,1.49,6.56,1.49s4.57-.5,6.44-1.49c1.86-1,3.42-2.36,4.68-4.1,1.26-1.73,2.21-3.75,2.86-6.04.65-2.29.97-4.79.97-7.47s-.33-5.07-.97-7.41c-.65-2.34-1.6-4.36-2.86-6.04Z"/><path class="cls-1" d="m-3.02-4.71v285.43h2031.04V-4.71H-3.02Zm769.1,144.2c-.69,2.64-1.69,5.09-2.99,7.35-1.3,2.25-2.9,4.29-4.81,6.11-1.91,1.82-4.07,3.25-6.5,4.29-3.03,1.21-6.11,2.06-9.23,2.54-3.12.48-6.28.71-9.49.71h-11.96v31.2h-17.16v-86.71h27.3c4.42,0,8.52.28,12.29.84,3.77.56,7.34,1.67,10.72,3.32,4.42,2.08,7.67,5.18,9.75,9.29,2.08,4.12,3.12,8.51,3.12,13.19,0,2.6-.35,5.22-1.04,7.86Zm71.76,52.2h-17.03v-36.01c0-5.2-1.06-8.95-3.19-11.25-2.12-2.3-4.57-3.45-7.34-3.45s-5.42.71-7.93,2.15c-2.51,1.43-4.51,2.75-5.98,3.96v44.59h-17.03v-86.71h17.03v28.21c2.08-1.56,4.57-2.9,7.48-4.03,2.9-1.13,6.39-1.69,10.46-1.69s7.84.65,10.79,1.95c2.95,1.3,5.37,3.12,7.28,5.46,1.91,2.34,3.29,5.18,4.16,8.52.87,3.34,1.3,7.04,1.3,11.12v37.18Zm33.41,0h-16.9v-62.66h16.9v62.66Zm-.85-72.67c-1.69,1.91-4.23,2.86-7.6,2.86s-5.92-.95-7.6-2.86c-1.69-1.91-2.54-4.03-2.54-6.37s.85-4.33,2.54-6.24c1.69-1.91,4.23-2.86,7.6-2.86s5.92.95,7.6,2.86c1.69,1.91,2.54,3.99,2.54,6.24s-.85,4.46-2.54,6.37Zm34.77,72.67h-17.03v-86.71h17.03v86.71Zm74.23-19.57c-1.3,3.95-3.27,7.48-5.91,10.6-2.65,3.12-5.94,5.63-9.88,7.54-3.94,1.91-8.56,2.86-13.84,2.86s-9.92-.95-13.91-2.86c-3.9-1.91-7.17-4.42-9.81-7.54-2.64-3.12-4.62-6.65-5.92-10.6-1.3-3.94-1.95-7.95-1.95-12.02s.65-8.06,1.95-11.96c1.3-3.9,3.27-7.39,5.92-10.47,2.64-3.08,5.94-5.55,9.88-7.41,3.94-1.86,8.56-2.8,13.85-2.8s9.9.93,13.84,2.8c3.94,1.86,7.24,4.33,9.88,7.41,2.64,3.08,4.61,6.56,5.91,10.47,1.3,3.9,1.95,7.89,1.95,11.96s-.65,8.08-1.95,12.02Zm63.83,10.14c-1.39,2.47-3.29,4.51-5.72,6.11-2.43,1.61-5.29,2.8-8.58,3.58-3.29.78-6.8,1.17-10.53,1.17-7.46,0-13.5-1.41-18.13-4.22-4.64-2.82-8.17-6.35-10.6-10.59l12.61-7.67c1.47,2.77,3.53,5.09,6.17,6.95,2.64,1.87,5.96,2.8,9.95,2.8,3.46,0,6.18-.54,8.12-1.62,1.95-1.08,2.93-2.58,2.93-4.49s-1.04-3.42-3.12-4.81c-2.08-1.38-5.94-2.6-11.57-3.64-3.29-.61-6.31-1.41-9.04-2.41-2.73-1-5.05-2.27-6.96-3.83-1.91-1.56-3.38-3.42-4.42-5.59-1.04-2.17-1.56-4.76-1.56-7.8,0-5.54,2.32-10.05,6.96-13.52,4.63-3.47,10.9-5.2,18.79-5.2,7.11,0,12.74,1.15,16.9,3.45,4.16,2.3,7.37,5.09,9.62,8.39l-11.96,8.19c-1.56-2.08-3.55-3.81-5.98-5.2-2.43-1.38-5.29-2.08-8.58-2.08-3.64,0-6.15.54-7.54,1.62-1.39,1.08-2.08,2.49-2.08,4.23,0,1.99.87,3.42,2.6,4.29,1.73.87,4.94,1.78,9.62,2.73,3.81.78,7.21,1.69,10.21,2.73s5.53,2.36,7.61,3.96c2.08,1.6,3.66,3.53,4.74,5.79,1.08,2.25,1.62,4.9,1.62,7.93,0,3.38-.7,6.31-2.08,8.78Zm71.5-10.14c-1.3,3.95-3.27,7.48-5.92,10.6-2.64,3.12-5.94,5.63-9.88,7.54-3.95,1.91-8.56,2.86-13.85,2.86s-9.92-.95-13.91-2.86c-3.9-1.91-7.17-4.42-9.82-7.54-2.64-3.12-4.62-6.65-5.92-10.6-1.3-3.94-1.95-7.95-1.95-12.02s.65-8.06,1.95-11.96c1.3-3.9,3.27-7.39,5.92-10.47,2.64-3.08,5.94-5.55,9.88-7.41,3.94-1.86,8.56-2.8,13.84-2.8s9.9.93,13.85,2.8c3.94,1.86,7.24,4.33,9.88,7.41,2.64,3.08,4.62,6.56,5.92,10.47,1.3,3.9,1.95,7.89,1.95,11.96s-.65,8.08-1.95,12.02Zm72.02.13c-1.3,3.94-3.31,7.45-6.04,10.53-2.73,3.08-6.2,5.57-10.4,7.48-4.21,1.91-9.17,2.86-14.88,2.86-2.95,0-5.85-.61-8.71-1.82v24.96h-17.03v-87.23h15.47l.78,4.68c1.56-1.47,3.64-2.88,6.24-4.23,2.6-1.34,5.67-2.02,9.23-2.02,4.51,0,8.47.91,11.9,2.73,3.42,1.82,6.26,4.23,8.51,7.22,2.25,2.99,3.96,6.48,5.13,10.47,1.17,3.99,1.75,8.1,1.75,12.35s-.65,8.08-1.95,12.03Zm73.45,19.43h-17.03v-36.01c0-5.2-1.06-8.95-3.18-11.25-2.12-2.3-4.57-3.45-7.35-3.45s-5.42.71-7.93,2.15c-2.51,1.43-4.51,2.75-5.98,3.96v44.59h-17.03v-86.71h17.03v28.21c2.08-1.56,4.57-2.9,7.47-4.03,2.9-1.13,6.39-1.69,10.46-1.69s7.84.65,10.79,1.95c2.95,1.3,5.37,3.12,7.28,5.46,1.91,2.34,3.29,5.18,4.16,8.52.87,3.34,1.3,7.04,1.3,11.12v37.18Zm40.17,14.82c-.96,2.17-2.08,3.99-3.38,5.46-1.3,1.47-2.73,2.64-4.29,3.51-1.56.87-3.23,1.47-5,1.82-1.78.34-3.53.52-5.27.52-2.25,0-4.74-.28-7.47-.84-2.73-.56-5.53-1.45-8.38-2.67l5.33-12.09c1.65.78,3.27,1.34,4.88,1.69,1.6.35,2.97.52,4.09.52,1.04,0,2.08-.3,3.12-.91,1.04-.61,1.99-1.82,2.86-3.64l4.81-10.79-26-60.06h18.07l16.38,42.77,15.6-42.77h17.16l-32.5,77.48Z"/></svg>