<?xml version="1.0" encoding="utf-8"?>
<!-- Generator: Adobe Illustrator 27.5.0, SVG Export Plug-In . SVG Version: 6.00 Build 0)  -->
<svg version="1.1" id="Layer_1" xmlns="http://www.w3.org/2000/svg" xmlns:xlink="http://www.w3.org/1999/xlink" x="0px" y="0px"
	 viewBox="0 0 2025 1259" style="enable-background:new 0 0 2025 1259;" xml:space="preserve">
<style type="text/css">
	.st0{fill:none;}
	.st1{fill:#303D4E;}
</style>
<rect x="-233.3" y="-260.8" class="st0" width="610.3" height="91.8"/>
<text transform="matrix(1 0 0 1 -233.332 -174.0894)" style="font-family:'InterFace-Bold'; font-size:130px; letter-spacing:-2;">Why Ei8ht</text>
<g>
	<path class="st1" d="M1133.5,623.2c-3.9,0-6.9,1.2-9.1,3.6c-2.2,2.4-3.2,5.2-3.2,8.4c0,3.3,1,6.2,3.1,8.6c2.2,2.3,5.3,3.5,9.5,3.5
		s7.3-1.1,9.4-3.4c2.1-2.3,3.1-5.1,3.1-8.4c0-3.3-1.1-6.2-3.4-8.6C1140.6,624.4,1137.5,623.2,1133.5,623.2z"/>
	<path class="st1" d="M1125.4,605.9c1,1.1,2.1,2,3.4,2.7c1.3,0.7,2.9,1,4.7,1c1.7,0,3.3-0.4,4.7-1.1c1.4-0.7,2.6-1.7,3.5-2.8
		c1-1.1,1.7-2.4,2.2-3.8c0.5-1.4,0.8-2.8,0.8-4.2c0-1.3-0.3-2.6-0.8-3.9c-0.5-1.3-1.3-2.5-2.2-3.5c-1-1-2.1-1.9-3.5-2.5
		c-1.4-0.6-2.9-1-4.7-1c-1.7,0-3.3,0.3-4.6,1c-1.3,0.7-2.5,1.5-3.4,2.5c-1,1-1.7,2.2-2.2,3.6c-0.5,1.3-0.8,2.7-0.8,4
		c0,1.4,0.2,2.8,0.7,4.2C1123.7,603.5,1124.5,604.8,1125.4,605.9z"/>
	<path class="st1" d="M-0.9-1.1v1261.7h2024.4V-1.1H-0.9z M820.9,660.5h-11l-19.8-58.1l-19.6,58.1h-11.1l-19.8-86.7h17.5l10.7,51.5
		l16.9-51.5h10.8l16.9,51.5l10.9-51.5h17.4L820.9,660.5z M904.8,660.5h-17v-36c0-5.2-1.1-8.9-3.2-11.2c-2.1-2.3-4.6-3.4-7.3-3.4
		c-2.8,0-5.4,0.7-7.9,2.1c-2.5,1.4-4.5,2.8-6,4v44.6h-17v-86.7h17V602c2.1-1.6,4.6-2.9,7.5-4c2.9-1.1,6.4-1.7,10.5-1.7
		c4.2,0,7.8,0.6,10.8,2c2.9,1.3,5.4,3.1,7.3,5.5c1.9,2.3,3.3,5.2,4.2,8.5c0.9,3.3,1.3,7,1.3,11.1V660.5z M942,675.3
		c-1,2.2-2.1,4-3.4,5.5c-1.3,1.5-2.7,2.6-4.3,3.5c-1.6,0.9-3.2,1.5-5,1.8c-1.8,0.3-3.5,0.5-5.3,0.5c-2.3,0-4.7-0.3-7.5-0.8
		c-2.7-0.6-5.5-1.5-8.4-2.7l5.3-12.1c1.6,0.8,3.3,1.3,4.9,1.7c1.6,0.3,3,0.5,4.1,0.5c1,0,2.1-0.3,3.1-0.9c1-0.6,2-1.8,2.9-3.6
		l4.8-10.8l-26-60.1h18.1l16.4,42.8l15.6-42.8h17.2L942,675.3z M1067,660.5h-62.5v-86.7h59.5v15.7h-42v19.8h34.7V625h-34.7v19.8h45
		V660.5z M1093,660.5h-16.9v-62.7h16.9V660.5z M1092.2,587.8c-1.7,1.9-4.2,2.9-7.6,2.9s-5.9-1-7.6-2.9c-1.7-1.9-2.5-4-2.5-6.4
		c0-2.3,0.8-4.3,2.5-6.2c1.7-1.9,4.2-2.9,7.6-2.9s5.9,1,7.6,2.9c1.7,1.9,2.5,4,2.5,6.2C1094.7,583.8,1093.9,585.9,1092.2,587.8z
		 M1161.4,645.7c-1.3,3.1-3.2,5.9-5.8,8.3c-2.6,2.4-5.7,4.3-9.4,5.8c-3.7,1.5-7.9,2.2-12.7,2.2c-4.8,0-9-0.7-12.7-2.1
		c-3.7-1.4-6.8-3.4-9.4-5.8c-2.6-2.4-4.5-5.2-5.8-8.3c-1.3-3.1-1.9-6.3-1.9-9.6c0-1.8,0.2-3.7,0.7-5.6c0.5-1.9,1.2-3.8,2.1-5.6
		c1-1.8,2.1-3.5,3.5-5.1c1.4-1.6,3-2.9,4.8-3.9c-3.5-2.5-6-5.4-7.5-8.8c-1.5-3.3-2.3-6.6-2.3-9.7c0-3.2,0.7-6.3,2-9.2
		c1.3-2.9,3.2-5.6,5.7-7.9c2.5-2.3,5.5-4.1,9-5.5c3.5-1.4,7.4-2.1,11.8-2.1c4.2,0,8.1,0.7,11.6,2c3.5,1.3,6.5,3.1,9,5.4
		c2.5,2.2,4.4,4.8,5.7,7.8c1.3,2.9,2,6,2,9.2c0,3.1-0.8,6.4-2.4,9.9c-1.6,3.5-4.1,6.4-7.3,8.6c3.6,2.2,6.4,5.2,8.3,9
		c1.9,3.8,2.8,7.6,2.8,11.2C1163.4,639.3,1162.7,642.5,1161.4,645.7z M1232.7,660.5h-17v-36c0-5.2-1.1-8.9-3.2-11.2
		c-2.1-2.3-4.6-3.4-7.3-3.4c-2.8,0-5.4,0.7-7.9,2.1c-2.5,1.4-4.5,2.8-6,4v44.6h-17v-86.7h17V602c2.1-1.6,4.6-2.9,7.5-4
		c2.9-1.1,6.4-1.7,10.5-1.7c4.2,0,7.8,0.6,10.8,2c2.9,1.3,5.4,3.1,7.3,5.5c1.9,2.3,3.3,5.2,4.2,8.5c0.9,3.3,1.3,7,1.3,11.1V660.5z
		 M1276.3,660.2c-3.2,1.2-6.5,1.8-10.1,1.8c-2.2,0-4.3-0.3-6.4-0.9c-2.1-0.6-3.9-1.6-5.5-2.9c-1.6-1.3-2.9-3-3.9-5.1
		c-1-2.1-1.5-4.7-1.5-7.7v-34.5h-9.2v-13h9.2v-16.2h16.9v16.2h15.2v13h-15.2v32c0,2,0.5,3.4,1.4,4.1c0.9,0.7,1.8,1.1,2.7,1.1
		c1.7,0,3.4-0.4,5.1-1.3c1.6-0.9,3.1-1.8,4.3-2.7l6.1,11.6C1282.4,657.5,1279.4,659,1276.3,660.2z"/>
</g>
</svg>
