<?xml version="1.0" encoding="utf-8"?>
<!-- Generator: Adobe Illustrator 27.5.0, SVG Export Plug-In . SVG Version: 6.00 Build 0)  -->
<svg version="1.1" id="Layer_1" xmlns="http://www.w3.org/2000/svg" xmlns:xlink="http://www.w3.org/1999/xlink" x="0px" y="0px"
	 viewBox="0 0 2025 1259" style="enable-background:new 0 0 2025 1259;" xml:space="preserve">
<style type="text/css">
	.st0{fill:none;}
	.st1{fill:#6E7D8E;}
</style>
<rect x="-233.3" y="-260.8" class="st0" width="610.3" height="91.8"/>
<text transform="matrix(1 0 0 1 -233.332 -174.0894)" style="font-family:'InterFace-Bold'; font-size:130px; letter-spacing:-1;">Why Ei8ht?</text>
<g>
	<path class="st1" d="M1101.3,606.1c1,1.1,2.1,2,3.4,2.7c1.3,0.7,2.9,1,4.7,1c1.7,0,3.3-0.4,4.7-1.1c1.4-0.7,2.6-1.7,3.5-2.8
		c1-1.1,1.7-2.4,2.2-3.8c0.5-1.4,0.8-2.8,0.8-4.2c0-1.3-0.3-2.6-0.8-3.9c-0.5-1.3-1.3-2.5-2.2-3.5c-1-1-2.1-1.9-3.5-2.5
		c-1.4-0.6-2.9-1-4.7-1c-1.7,0-3.3,0.3-4.6,1c-1.3,0.7-2.5,1.5-3.4,2.5c-1,1-1.7,2.2-2.2,3.6c-0.5,1.3-0.8,2.7-0.8,4
		c0,1.4,0.2,2.8,0.7,4.2C1099.6,603.7,1100.3,605,1101.3,606.1z"/>
	<path class="st1" d="M1109.4,623.4c-3.9,0-6.9,1.2-9.1,3.6c-2.2,2.4-3.2,5.2-3.2,8.4c0,3.3,1,6.2,3.1,8.6c2.2,2.3,5.3,3.5,9.5,3.5
		s7.3-1.1,9.4-3.4c2.1-2.3,3.1-5.1,3.1-8.4c0-3.3-1.1-6.2-3.4-8.6C1116.5,624.6,1113.3,623.4,1109.4,623.4z"/>
	<path class="st1" d="M-18.4-15V1282h2061.6V-15H-18.4z M790.6,660.7h-11l-19.8-58.1l-19.6,58.1h-11.1L709.3,574h17.5l10.7,51.5
		l16.9-51.5h10.8l16.9,51.5l10.9-51.5h17.4L790.6,660.7z M875.5,660.7h-17v-36c0-5.2-1.1-8.9-3.2-11.2c-2.1-2.3-4.6-3.4-7.3-3.4
		c-2.8,0-5.4,0.7-7.9,2.1c-2.5,1.4-4.5,2.8-6,4v44.6h-17V574h17v28.2c2.1-1.6,4.6-2.9,7.5-4c2.9-1.1,6.4-1.7,10.5-1.7
		c4.2,0,7.8,0.6,10.8,2c2.9,1.3,5.4,3.1,7.3,5.5c1.9,2.3,3.3,5.2,4.2,8.5c0.9,3.3,1.3,7,1.3,11.1V660.7z M913.7,675.5
		c-1,2.2-2.1,4-3.4,5.5c-1.3,1.5-2.7,2.6-4.3,3.5c-1.6,0.9-3.2,1.5-5,1.8c-1.8,0.3-3.5,0.5-5.3,0.5c-2.3,0-4.7-0.3-7.5-0.8
		c-2.7-0.6-5.5-1.5-8.4-2.7l5.3-12.1c1.6,0.8,3.3,1.3,4.9,1.7c1.6,0.3,3,0.5,4.1,0.5c1,0,2.1-0.3,3.1-0.9c1-0.6,2-1.8,2.9-3.6
		l4.8-10.8L879,598h18.1l16.4,42.8L929,598h17.2L913.7,675.5z M1040.8,660.7h-62.5V574h59.5v15.7h-42v19.8h34.7v15.7h-34.7V645h45
		V660.7z M1067.9,660.7H1051V598h16.9V660.7z M1067,588c-1.7,1.9-4.2,2.9-7.6,2.9s-5.9-1-7.6-2.9c-1.7-1.9-2.5-4-2.5-6.4
		c0-2.3,0.8-4.3,2.5-6.2c1.7-1.9,4.2-2.9,7.6-2.9s5.9,1,7.6,2.9c1.7,1.9,2.5,4,2.5,6.2C1069.6,584,1068.7,586.1,1067,588z
		 M1137.3,645.9c-1.3,3.1-3.2,5.9-5.8,8.3c-2.6,2.4-5.7,4.3-9.4,5.8c-3.7,1.5-7.9,2.2-12.7,2.2c-4.8,0-9-0.7-12.7-2.1
		c-3.7-1.4-6.8-3.4-9.4-5.8c-2.6-2.4-4.5-5.2-5.8-8.3s-2-6.3-2-9.6c0-1.8,0.2-3.7,0.7-5.6c0.5-1.9,1.2-3.8,2.1-5.6
		c1-1.8,2.1-3.5,3.5-5.1c1.4-1.6,3-2.9,4.8-3.9c-3.5-2.5-6-5.4-7.5-8.8c-1.5-3.3-2.3-6.6-2.3-9.7c0-3.2,0.7-6.3,2-9.2
		c1.3-2.9,3.2-5.6,5.7-7.9c2.5-2.3,5.5-4.1,9-5.5c3.5-1.4,7.4-2.1,11.8-2.1c4.2,0,8.1,0.7,11.6,2c3.5,1.3,6.5,3.1,9,5.4
		c2.5,2.2,4.4,4.8,5.7,7.8c1.3,2.9,2,6,2,9.2c0,3.1-0.8,6.4-2.4,9.9c-1.6,3.5-4.1,6.4-7.3,8.6c3.6,2.2,6.4,5.2,8.3,9
		c1.9,3.8,2.8,7.6,2.8,11.2C1139.3,639.5,1138.6,642.7,1137.3,645.9z M1209.6,660.7h-17v-36c0-5.2-1.1-8.9-3.2-11.2
		c-2.1-2.3-4.6-3.4-7.3-3.4c-2.8,0-5.4,0.7-7.9,2.1c-2.5,1.4-4.5,2.8-6,4v44.6h-17V574h17v28.2c2.1-1.6,4.6-2.9,7.5-4
		c2.9-1.1,6.4-1.7,10.5-1.7c4.2,0,7.8,0.6,10.8,2c2.9,1.3,5.4,3.1,7.3,5.5c1.9,2.3,3.3,5.2,4.2,8.5c0.9,3.3,1.3,7,1.3,11.1V660.7z
		 M1254.2,660.4c-3.2,1.2-6.5,1.8-10.1,1.8c-2.2,0-4.3-0.3-6.4-0.9c-2.1-0.6-3.9-1.6-5.5-2.9c-1.6-1.3-2.9-3-3.9-5.1
		c-1-2.1-1.5-4.7-1.5-7.7V611h-9.2v-13h9.2v-16.2h16.9V598h15.2v13h-15.2v32c0,2,0.5,3.4,1.4,4.1c0.9,0.7,1.8,1.1,2.7,1.1
		c1.7,0,3.4-0.4,5.1-1.3c1.6-0.9,3.1-1.8,4.3-2.7l6.1,11.6C1260.4,657.7,1257.4,659.2,1254.2,660.4z M1295.2,658.9
		c-2,2.1-4.5,3.2-7.7,3.2c-1.6,0-3-0.3-4.3-0.9c-1.2-0.5-2.3-1.3-3.2-2.3c-1-1-1.7-2.1-2.2-3.4c-0.5-1.3-0.8-2.6-0.8-4
		c0-1.4,0.3-2.7,0.8-4c0.5-1.3,1.3-2.4,2.2-3.3c1-1,2.1-1.7,3.3-2.3c1.3-0.6,2.7-0.9,4.2-0.9c3.1,0,5.7,1.1,7.7,3.2
		c2,2.1,3,4.6,3,7.3C1298.2,654.4,1297.2,656.8,1295.2,658.9z M1314.7,602.2c-0.6,1.8-1.5,3.6-2.5,5.2c-1,1.6-2.2,3.2-3.5,4.6
		c-1.3,1.4-2.6,2.8-3.9,4.1c-2.3,2.4-4.3,4.7-6.1,7s-2.7,4.6-2.7,7.1v3.1h-16.5v-5.5c0-1.7,0.3-3.4,0.8-5.1c0.6-1.6,1.3-3.2,2.1-4.6
		c0.9-1.4,1.8-2.8,2.8-4c1-1.2,1.9-2.3,2.8-3.1c1.2-1.3,2.4-2.5,3.7-3.6c1.3-1.1,2.4-2.3,3.4-3.5c1-1.2,1.8-2.5,2.5-3.8
		c0.7-1.3,1-2.8,1-4.4c0-3-0.9-5.4-2.7-7c-1.8-1.6-4.4-2.5-7.8-2.5c-2.5,0-5,0.7-7.5,2.1c-2.5,1.4-5.2,4.2-7.9,8.4l-12.5-8.3
		c3-4.8,6.9-8.7,11.6-11.7c4.7-3,10.5-4.5,17.4-4.5c8.7,0,15.3,2.2,19.8,6.5c4.5,4.3,6.8,10.2,6.8,17.5
		C1315.7,598.4,1315.3,600.4,1314.7,602.2z"/>
</g>
</svg>
