<?xml version="1.0" encoding="UTF-8"?><svg id="Layer_1" xmlns="http://www.w3.org/2000/svg" viewBox="0 0 2025 283.5"><defs><style>.cls-1{fill:#303d4e;}</style></defs><path class="cls-1" d="m771.53,139.7c-1.56-1.52-3.38-2.67-5.46-3.45-2.08-.78-4.29-1.17-6.63-1.17-2.51,0-5.29.48-8.32,1.43v35.75c1.21.26,2.43.52,3.64.78,1.21.26,2.38.39,3.51.39,5.37,0,9.75-1.69,13.13-5.07,3.38-3.38,5.07-8.32,5.07-14.82,0-3.12-.43-5.83-1.3-8.12-.87-2.29-2.08-4.2-3.64-5.72Z"/><path class="cls-1" d="m844.78,140.61c-1.26-1.69-2.82-3.03-4.68-4.03-1.86-1-4.01-1.5-6.44-1.5s-4.57.5-6.44,1.5c-1.86,1-3.42,2.34-4.68,4.03-1.26,1.69-2.21,3.71-2.86,6.04s-.98,4.81-.98,7.41.33,5.18.98,7.47c.65,2.3,1.58,4.31,2.79,6.04,1.21,1.74,2.75,3.1,4.62,4.1,1.86,1,4.05,1.49,6.56,1.49s4.57-.5,6.44-1.49c1.86-1,3.42-2.36,4.68-4.1,1.26-1.73,2.21-3.75,2.86-6.04.65-2.29.97-4.79.97-7.47s-.32-5.07-.97-7.41c-.65-2.34-1.6-4.36-2.86-6.04Z"/><polygon class="cls-1" points="671.56 153.55 693.92 153.55 682.74 125.08 671.56 153.55"/><path class="cls-1" d="m-2.65-1.52v285.43h2028.03V-1.52H-2.65Zm709.3,187.18l-7.02-17.42h-33.41l-7.15,17.42h-17.68l35.62-86.71h12.35l36.14,86.71h-18.85Zm83.59-16.96c-1.82,4.29-4.29,7.8-7.41,10.53-3.12,2.73-6.74,4.72-10.85,5.98-4.12,1.26-8.47,1.88-13.07,1.88-4.25,0-8.45-.48-12.61-1.43s-8.23-2.25-12.22-3.9v-82.81h17.03v23.92c1.82-.43,3.55-.78,5.2-1.04,1.65-.26,3.6-.39,5.85-.39,5.2,0,9.73.91,13.59,2.73,3.85,1.82,7.06,4.23,9.62,7.22,2.56,2.99,4.46,6.37,5.72,10.14,1.26,3.77,1.88,7.65,1.88,11.63,0,6.07-.91,11.25-2.73,15.54Zm73.06-2.6c-1.3,3.95-3.27,7.48-5.91,10.6-2.65,3.12-5.94,5.63-9.88,7.54-3.94,1.91-8.56,2.86-13.84,2.86s-9.92-.95-13.91-2.86c-3.9-1.91-7.17-4.42-9.81-7.54-2.64-3.12-4.62-6.65-5.92-10.6-1.3-3.94-1.95-7.95-1.95-12.02s.65-8.06,1.95-11.96c1.3-3.9,3.27-7.39,5.92-10.47,2.64-3.08,5.94-5.55,9.88-7.41,3.94-1.86,8.56-2.8,13.85-2.8s9.9.93,13.84,2.8c3.94,1.86,7.24,4.33,9.88,7.41,2.64,3.08,4.61,6.56,5.91,10.47,1.3,3.9,1.95,7.89,1.95,11.96s-.65,8.08-1.95,12.02Zm73.32,19.57h-15.6l-.65-4.94c-3.03,2.43-6.15,4.08-9.36,4.94-3.21.87-6.37,1.3-9.49,1.3-7.63,0-13.48-2.21-17.55-6.63-4.07-4.42-6.11-11.09-6.11-20.02v-37.31h17.03v35.62c0,4.33.82,7.84,2.47,10.53,1.65,2.69,4.46,4.03,8.45,4.03,3.29,0,6.07-.63,8.32-1.88,2.25-1.25,4.07-2.45,5.46-3.58v-44.72h17.03v62.66Zm46.99-.33c-3.17,1.17-6.52,1.75-10.08,1.75-2.17,0-4.29-.3-6.37-.91-2.08-.6-3.92-1.56-5.52-2.86-1.6-1.3-2.91-3.01-3.9-5.13-1-2.12-1.5-4.7-1.5-7.74v-34.45h-9.23v-13h9.23v-16.25h16.9v16.25h15.21v13h-15.21v31.98c0,1.99.46,3.36,1.37,4.09.91.74,1.8,1.1,2.67,1.1,1.73,0,3.42-.43,5.07-1.3,1.65-.87,3.08-1.78,4.29-2.73l6.11,11.57c-2.86,1.91-5.87,3.45-9.04,4.62Zm107.84.33h-62.53v-86.71h59.54v15.73h-41.99v19.76h34.71v15.73h-34.71v19.76h44.98v15.73Zm31.2,0h-17.55v-86.71h17.55v86.71Zm86.32-3.9c-3.55,1.56-7.8,2.91-12.74,4.03-4.94,1.12-11.22,1.69-18.85,1.69-5.55,0-10.7-1-15.47-2.99-4.77-1.99-8.88-4.92-12.35-8.78-3.47-3.86-6.18-8.56-8.12-14.1-1.95-5.55-2.93-11.87-2.93-18.98,0-7.8,1.04-14.54,3.12-20.21,2.08-5.68,4.88-10.4,8.39-14.17,3.51-3.77,7.56-6.56,12.15-8.38,4.59-1.82,9.45-2.73,14.56-2.73,7.8,0,14.15,1.56,19.04,4.68,4.9,3.12,8.86,7.89,11.89,14.3l-14.17,7.93c-1.73-3.64-3.92-6.48-6.56-8.51-2.65-2.04-5.92-3.06-9.82-3.06-2.6,0-5.16.61-7.67,1.82-2.51,1.21-4.75,3.08-6.7,5.59-1.95,2.51-3.51,5.65-4.68,9.42s-1.75,8.21-1.75,13.32c0,4.51.61,8.56,1.82,12.16,1.21,3.6,2.86,6.67,4.94,9.23,2.08,2.56,4.51,4.53,7.28,5.91,2.77,1.39,5.76,2.08,8.97,2.08,2.77,0,5.31-.13,7.61-.39,2.29-.26,4.18-.61,5.65-1.04v-15.6h-14.17v-14.95h30.55v41.73Zm84.76,3.9h-17.55v-36.66h-34.45v36.66h-17.55v-86.71h17.55v34.32h34.45v-34.32h17.55v86.71Zm79.95-70.98h-25.74v70.98h-17.68v-70.98h-25.87v-15.73h69.29v15.73Z"/></svg>