<?xml version="1.0" encoding="utf-8"?>
<!-- Generator: Adobe Illustrator 27.7.0, SVG Export Plug-In . SVG Version: 6.00 Build 0)  -->
<svg version="1.1" id="Layer_1" xmlns="http://www.w3.org/2000/svg" xmlns:xlink="http://www.w3.org/1999/xlink" x="0px" y="0px"
	 viewBox="0 0 2025 487.2" style="enable-background:new 0 0 2025 487.2;" xml:space="preserve">
<style type="text/css">
	.st0{fill:#303D4E;}
</style>
<g>
	<path class="st0" d="M1211.8,232.3c-2.5-2.1-5.1-3.1-7.9-3.1c-1.5,0-2.9,0.3-4.4,0.8c-1.4,0.6-2.8,1.4-4,2.5s-2.2,2.4-3.1,4
		c-0.8,1.6-1.4,3.3-1.6,5.2h25.1C1215.7,237.5,1214.3,234.4,1211.8,232.3z"/>
	<path class="st0" d="M820.4,232.3c-2.5-2.1-5.1-3.1-7.9-3.1c-1.5,0-2.9,0.3-4.4,0.8c-1.4,0.6-2.8,1.4-4,2.5s-2.2,2.4-3.1,4
		c-0.8,1.6-1.4,3.3-1.6,5.2h25.1C824.2,237.5,822.8,234.4,820.4,232.3z"/>
	<path class="st0" d="M1075.5,232.3c-2.5-2.1-5.1-3.1-7.9-3.1c-1.5,0-2.9,0.3-4.4,0.8c-1.4,0.6-2.8,1.4-4,2.5s-2.2,2.4-3.1,4
		c-0.8,1.6-1.4,3.3-1.6,5.2h25.1C1079.4,237.5,1078,234.4,1075.5,232.3z"/>
	<path class="st0" d="M754.1,232.3c-2.5-2.1-5.1-3.1-7.9-3.1c-1.5,0-2.9,0.3-4.4,0.8c-1.4,0.6-2.8,1.4-4,2.5s-2.2,2.4-3.1,4
		c-0.8,1.6-1.4,3.3-1.6,5.2h25.1C757.9,237.5,756.5,234.4,754.1,232.3z"/>
	<path class="st0" d="M1265.9,252.6c-3.6,0.7-6.2,1.9-7.6,3.6s-2.1,3.5-2.1,5.5c0,2.1,0.8,3.7,2.3,5c1.6,1.3,3.9,1.9,6.9,1.9
		c2.2,0,4.3-0.4,6.3-1.3s3.8-2,5.3-3.2v-12.7c-1.7,0.1-3.6,0.2-5.5,0.5C1269.5,252,1267.7,252.2,1265.9,252.6z"/>
	<path class="st0" d="M-50.3-14.9v505.7H2056V-14.9H-50.3z M703.2,280.5h-17.3V232L665,281h-6.2l-23-49.5v49h-17.3v-86.7h17.9
		l25.6,57.7l23.1-57.7h18.1L703.2,280.5L703.2,280.5z M737.7,264.7c2.8,2.3,6,3.5,9.4,3.5c3,0,5.8-0.5,8.2-1.6s4.9-3.4,7.5-7.1
		l12.6,7.7c-3.6,5.5-7.7,9.3-12.4,11.5s-10.2,3.3-16.5,3.3c-4.2,0-8.1-0.6-11.8-1.9s-7-3.3-9.8-6s-5-6.1-6.7-10.2
		c-1.6-4.1-2.5-8.9-2.5-14.6c0-5.3,0.8-10,2.4-14c1.6-4.1,3.8-7.5,6.6-10.3s6-4.9,9.7-6.4s7.6-2.2,11.8-2.2c8.8,0,15.8,3.1,21.1,9.2
		c5.3,6.1,8.1,15.4,8.3,27.8h-42.8C733.2,258.5,734.9,262.3,737.7,264.7z M804,264.7c2.8,2.3,6,3.5,9.4,3.5c3,0,5.8-0.5,8.2-1.6
		s4.9-3.4,7.5-7.1l12.6,7.7c-3.6,5.5-7.7,9.3-12.4,11.5s-10.2,3.3-16.5,3.3c-4.2,0-8.1-0.6-11.8-1.9s-7-3.3-9.8-6s-5-6.1-6.7-10.2
		c-1.6-4.1-2.5-8.9-2.5-14.6c0-5.3,0.8-10,2.4-14c1.6-4.1,3.8-7.5,6.6-10.3s6-4.9,9.7-6.4s7.6-2.2,11.8-2.2c8.8,0,15.8,3.1,21.1,9.2
		c5.3,6.1,8.1,15.4,8.3,27.8h-42.8C799.5,258.5,801.2,262.3,804,264.7z M882.4,280.2c-3.2,1.2-6.5,1.8-10.1,1.8
		c-2.2,0-4.3-0.3-6.4-0.9c-2.1-0.6-3.9-1.6-5.5-2.9s-2.9-3-3.9-5.1s-1.5-4.7-1.5-7.7v-34.5h-9.2v-13h9.2v-16.2h16.9v16.2h15.2v13
		h-15.2v32c0,2,0.5,3.4,1.4,4.1s1.8,1.1,2.7,1.1c1.7,0,3.4-0.4,5.1-1.3c1.6-0.9,3.1-1.8,4.3-2.7l6.1,11.6
		C888.5,277.5,885.5,279,882.4,280.2z M952.3,280.2c-3.2,1.2-6.5,1.8-10.1,1.8c-2.2,0-4.3-0.3-6.4-0.9c-2.1-0.6-3.9-1.6-5.5-2.9
		s-2.9-3-3.9-5.1s-1.5-4.7-1.5-7.7v-34.5h-9.2v-13h9.2v-16.2h16.9v16.2H957v13h-15.2v32c0,2,0.5,3.4,1.4,4.1s1.8,1.1,2.7,1.1
		c1.7,0,3.4-0.4,5.1-1.3c1.6-0.9,3.1-1.8,4.3-2.7l6.1,11.6C958.5,277.5,955.5,279,952.3,280.2z M1026.6,280.5h-17v-36
		c0-5.2-1.1-8.9-3.2-11.2c-2.1-2.3-4.6-3.4-7.3-3.4c-2.8,0-5.4,0.7-7.9,2.1c-2.5,1.4-4.5,2.8-6,4v44.6h-17v-86.7h17V222
		c2.1-1.6,4.6-2.9,7.5-4s6.4-1.7,10.5-1.7c4.2,0,7.8,0.6,10.8,2c2.9,1.3,5.4,3.1,7.3,5.5c1.9,2.3,3.3,5.2,4.2,8.5
		c0.9,3.3,1.3,7,1.3,11.1v37.1H1026.6z M1059.2,264.7c2.8,2.3,6,3.5,9.4,3.5c3,0,5.8-0.5,8.2-1.6c2.4-1.1,4.9-3.4,7.5-7.1l12.6,7.7
		c-3.6,5.5-7.7,9.3-12.4,11.5c-4.7,2.2-10.2,3.3-16.5,3.3c-4.2,0-8.1-0.6-11.8-1.9c-3.7-1.3-7-3.3-9.8-6s-5-6.1-6.7-10.2
		c-1.6-4.1-2.5-8.9-2.5-14.6c0-5.3,0.8-10,2.4-14c1.6-4.1,3.8-7.5,6.6-10.3c2.8-2.8,6-4.9,9.7-6.4s7.6-2.2,11.8-2.2
		c8.8,0,15.8,3.1,21.1,9.2c5.3,6.1,8.1,15.4,8.3,27.8h-42.8C1054.7,258.5,1056.4,262.3,1059.2,264.7z M1161.6,280.2
		c-3.2,1.2-6.5,1.8-10.1,1.8c-2.2,0-4.3-0.3-6.4-0.9s-3.9-1.6-5.5-2.9s-2.9-3-3.9-5.1s-1.5-4.7-1.5-7.7v-34.5h-9.2v-13h9.2v-16.2
		h16.9v16.2h15.2v13h-15.2v32c0,2,0.5,3.4,1.4,4.1s1.8,1.1,2.7,1.1c1.7,0,3.4-0.4,5.1-1.3c1.6-0.9,3.1-1.8,4.3-2.7l6.1,11.6
		C1167.8,277.5,1164.8,279,1161.6,280.2z M1195.4,264.7c2.8,2.3,6,3.5,9.4,3.5c3,0,5.8-0.5,8.2-1.6c2.4-1.1,4.9-3.4,7.5-7.1
		l12.6,7.7c-3.6,5.5-7.7,9.3-12.4,11.5c-4.7,2.2-10.2,3.3-16.5,3.3c-4.2,0-8.1-0.6-11.8-1.9c-3.7-1.3-7-3.3-9.8-6s-5-6.1-6.7-10.2
		c-1.6-4.1-2.5-8.9-2.5-14.6c0-5.3,0.8-10,2.4-14c1.6-4.1,3.8-7.5,6.6-10.3c2.8-2.8,6-4.9,9.7-6.4s7.6-2.2,11.8-2.2
		c8.8,0,15.8,3.1,21.1,9.2c5.3,6.1,8.1,15.4,8.3,27.8h-42.8C1191,258.5,1192.6,262.3,1195.4,264.7z M1294,280.5h-15.6l-0.8-4.7
		c-1.8,1.9-4.1,3.4-7,4.5c-2.8,1.1-5.9,1.6-9.3,1.6c-2.8,0-5.5-0.5-8.1-1.4s-5-2.2-7-3.9c-2-1.7-3.6-3.8-4.8-6.2
		c-1.2-2.5-1.8-5.3-1.8-8.4s0.6-5.9,2-8.3c1.3-2.4,3-4.4,5.2-6s4.7-3,7.5-4s5.8-1.8,8.9-2.3c2.2-0.4,4.5-0.8,7.1-1s4.8-0.4,6.5-0.6
		v-2.1c0-2.5-0.9-4.6-2.6-6.1c-1.7-1.6-3.8-2.3-6.1-2.3c-1.5,0-3.3,0.4-5.6,1.2c-2.3,0.8-4.4,2.3-6.5,4.4l-11.6-8.1
		c1.6-2.1,3.5-3.8,5.7-5.2c2.1-1.4,4.3-2.5,6.5-3.2c2.2-0.8,4.4-1.3,6.6-1.6s4.2-0.5,6-0.5c3.6,0,7,0.5,10,1.4s5.7,2.3,7.9,4.3
		c2.2,2,3.9,4.4,5.1,7.4s1.8,6.6,1.8,10.9L1294,280.5L1294,280.5z M1406.6,280.5h-16.9v-36.8c0-4.2-0.8-7.5-2.5-10.1
		c-1.6-2.6-4.7-3.8-9.1-3.8c-1.3,0-2.6,0.2-3.9,0.6c-1.3,0.4-2.5,0.8-3.7,1.4s-2.2,1.1-3.2,1.6c-1,0.6-1.7,1.1-2.2,1.5
		c0.2,1,0.3,2.2,0.5,3.5s0.3,2.7,0.3,4.3v37.8H1349v-36.8c0-1.9-0.2-3.7-0.5-5.4s-0.9-3.2-1.7-4.4c-0.8-1.3-1.8-2.3-3.2-3
		c-1.3-0.7-3-1.1-5-1.1c-2.5,0-4.9,0.7-7.3,2c-2.3,1.3-4.2,2.7-5.7,4.2v44.6h-17v-62.7h15.6l0.7,4.7c2-1.7,4.5-3.2,7.5-4.4
		s6-1.8,9-1.8s6.1,0.5,9.2,1.4s6,2.5,8.6,4.7c3-1.7,6.3-3.2,9.9-4.4s7.4-1.8,11.6-1.8c4.9,0,9.1,0.6,12.3,1.8c3.3,1.2,6,2.9,8,5.2
		s3.5,5,4.4,8.3s1.3,7.1,1.3,11.3v37.6H1406.6z"/>
</g>
</svg>
