<?xml version="1.0" encoding="utf-8"?>
<!-- Generator: Adobe Illustrator 27.5.0, SVG Export Plug-In . SVG Version: 6.00 Build 0)  -->
<svg version="1.1" id="Layer_1" xmlns="http://www.w3.org/2000/svg" xmlns:xlink="http://www.w3.org/1999/xlink" x="0px" y="0px"
	 viewBox="0 0 3496 1966.5" style="enable-background:new 0 0 3496 1966.5;" xml:space="preserve">
<style type="text/css">
	.st0{fill:#00C7FF;}
	.st1{fill:#0CCE6B;enable-background:new    ;}
	.st2{fill:#FF0000;enable-background:new    ;}
</style>
<rect y="0.5" class="st0" width="3496" height="1966"/>
<g>
	<path class="st1" d="M764.8,623c-47.4,47.3-117.4,129.9-160.3,250.1c-104.8,293.6,42.4,558.8,73.1,614.2
		c36.4,65.7,135.1,222.2,326.5,321.9c66.1,34.5,171.5,89.4,315.1,79.9c154.5-10.2,259.8-88.6,299.1-118.7
		c98.1-75.2,149.5-163.3,173.5-212.3c16.4,11.9,40.5,28.3,70.8,45.7c67.9,38.8,235.5,134.8,447.5,105
		c177.7-24.9,292.9-125,324.2-153c156-139.3,207.9-329.5,200.9-333.4c-3.6-2-22.1,44.6-70.8,98.2
		c-113.2,124.7-268.6,154.6-310.5,162.1c-152.3,27.2-271.9-13.4-324.2-32c-101.8-36.1-174.2-89.1-216.9-125.6
		c-8.9,20.8-22.6,49.1-43.4,79.9c-14.5,21.5-101.5,147-248.9,191.7c-95.3,28.9-174.7,7.8-333.5-34.3
		c-151.2-40.1-248.3-65.8-347.2-150.1c-125.3-106.7-171.8-237.5-189.1-288.2C671.9,893.7,739.2,690.3,764.8,623z"/>
	<path class="st2" d="M2702.8,345.7c-37.6-40.3-345.7-360-707.8-244.3c-236.9,75.7-346.9,289.8-372.2,342.5
		C1369.5,283,1076.6,275,905.9,414.2C768.8,525.8,724.4,721,718.6,747.5c-4.3,20.1-24.8,119.7-4.6,248.9
		c24.3,154.9,92.9,260.3,127.9,312.8c58.9,88.5,154.8,232.3,344.8,303.7c49.6,18.6,247.1,92.7,456.6-6.8
		c175.1-83.2,249.4-235.7,269.4-280.8c41.4,37,110.6,89.8,207.8,125.6c45.5,16.7,299.9,104.3,532-38.8
		c161.1-99.3,221.5-254.3,237.5-296.8C2992.2,841.9,2878.7,534.1,2702.8,345.7z M1413.2,1242.6c-32.7,5-122,13.4-209.8-41.8
		c-21.8-13.7-77.2-52.6-111.2-126.2c-18.7-40.5-24.5-77.4-26.3-101.7c26-12.6,70.7-30.2,128.6-32.7c22.1-0.9,98.7-3.2,172.7,41.5
		c119.3,72,139.1,209.8,141.6,229.5C1487.6,1222.2,1455,1236.2,1413.2,1242.6z M2238.8,1088.8c-14.7-1-83.1-6.5-155.3-52.2
		c-90.5-57.3-125.9-139-132.9-156.2c-21.5-52.4-24.8-99.2-24.7-127.4c38.2-21.1,109.7-52.2,194.2-39.6
		c141.5,21.1,261.5,156.3,291.5,338.1C2385.2,1065.5,2322.3,1094.3,2238.8,1088.8z"/>
	<path class="st1" d="M1065.9,973c-1.8-21.6-5.5-98.1,46.5-167.7c56.1-75.1,138.1-89.8,166.4-94.9c113-20.2,214.6,31.9,269.8,86.7
		c55.4,54.9,78,125.3,78,125.3c3.6,11.4,5.8,20.6,7.1,26.4c4.5,19.7,18.2,83.1-4.3,143.5c-29.4,79-106,112.7-122.4,119.5
		c-2.3-19.8-7.3-47.1-19.4-77.6c-25-63-73.8-108.9-73.8-108.9c-94.3-88.6-222.7-79.6-249.7-77.1
		C1121.7,952.3,1087.8,963.8,1065.9,973z"/>
	<path class="st1" d="M1924.9,755.8c0.6-26.3,5.7-96.6,56.3-161.2c62.7-80.1,151.2-95.5,180.4-100.5c162.7-28,281.1,84.8,287.7,91.3
		c67.8,66.8,85.9,144.4,91.3,169c7.5,34.1,20.3,92.8-4.6,159.8c-32.5,87.7-106.9,128.5-128.8,139.4c-5.4-43.2-23.3-134.6-94.5-217.9
		c-30.6-35.8-88.1-103.1-187.7-120.2C2026.6,698.6,1948.7,741.5,1924.9,755.8z"/>
</g>
</svg>
