<?xml version="1.0" encoding="utf-8"?>
<!-- Generator: Adobe Illustrator 27.7.0, SVG Export Plug-In . SVG Version: 6.00 Build 0)  -->
<svg version="1.1" id="Layer_1" xmlns="http://www.w3.org/2000/svg" xmlns:xlink="http://www.w3.org/1999/xlink" x="0px" y="0px"
	 viewBox="0 0 1386 1242" style="enable-background:new 0 0 1386 1242;" xml:space="preserve">
<style type="text/css">
	.st0{fill:#FFFFFF;}
	.st1{fill:#00C7FF;}
	.st2{fill:#4361EE;}
	.st3{fill:#EF0690;}
</style>
<rect class="st0" width="1386" height="1242"/>
<rect x="-13.3" y="-19.8" class="st1" width="1412.5" height="1054.8"/>
<g>
	<path class="st2" d="M144.8,315C119,340.7,81,385.6,57.7,450.9c-57,159.6,23,303.7,39.7,333.8c19.8,35.7,73.4,120.8,177.4,175
		c35.9,18.7,93.2,48.6,171.2,43.4c84-5.5,141.2-48.2,162.5-64.5c53.3-40.9,81.2-88.8,94.3-115.4c8.9,6.5,22,15.4,38.5,24.8
		c36.9,21.1,128,73.2,243.2,57.1c96.6-13.5,159.2-67.9,176.2-83.1c84.8-75.7,113-179.1,109.2-181.2c-1.9-1.1-12,24.2-38.5,53.4
		c-61.5,67.8-146,84-168.7,88.1C980,797,915,774.9,886.5,764.8c-55.3-19.6-94.7-48.4-117.9-68.2c-4.8,11.3-12.3,26.7-23.6,43.4
		c-7.9,11.7-55.1,79.9-135.3,104.2c-51.8,15.7-94.9,4.3-181.3-18.6c-82.2-21.8-134.9-35.8-188.7-81.6c-68.1-58-93.3-129-102.8-156.6
		C94.3,462.1,130.9,351.5,144.8,315z"/>
	<path class="st3" d="M1198,164.3c-20.4-21.9-187.9-195.6-384.6-132.8C684.6,72.6,624.8,189,611.1,217.6
		c-137.7-87.4-296.8-91.8-389.6-16.1c-74.5,60.7-98.6,166.7-101.7,181.2c-2.4,10.9-13.5,65.1-2.5,135.2
		c13.2,84.2,50.5,141.5,69.5,170c32,48.1,84.1,126.3,187.4,165c27,10.1,134.3,50.4,248.2-3.7c95.2-45.2,135.5-128.1,146.4-152.6
		c22.5,20.1,60.1,48.8,112.9,68.2c24.7,9.1,163,56.7,289.1-21.1c87.5-54,120.4-138.2,129-161.3
		C1355.3,433.9,1293.6,266.7,1198,164.3z M497.2,651.7c-17.7,2.7-66.3,7.3-114-22.7c-11.8-7.5-41.9-28.6-60.4-68.6
		c-10.2-22-13.3-42.1-14.3-55.3c14.1-6.9,38.4-16.4,69.9-17.8c12-0.5,53.6-1.8,93.9,22.5c64.8,39.1,75.6,114,76.9,124.7
		C537.6,640.6,519.9,648.2,497.2,651.7z M945.9,568.1c-8-0.5-45.2-3.5-84.4-28.4c-49.2-31.1-68.4-75.6-72.2-84.9
		c-11.7-28.5-13.5-53.9-13.4-69.2c20.8-11.5,59.6-28.4,105.5-21.5c76.9,11.5,142.1,84.9,158.4,183.7
		C1025.4,555.5,991.2,571.1,945.9,568.1z"/>
	<path class="st2" d="M775.3,387.2c0.3-14.3,3.1-52.5,30.6-87.6c34.1-43.5,82.2-51.9,98-54.6c88.4-15.2,152.8,46.1,156.3,49.6
		c36.8,36.3,46.7,78.5,49.6,91.8c4.1,18.5,11,50.4-2.5,86.9c-17.7,47.6-58.1,69.8-70,75.8c-2.9-23.5-12.7-73.1-51.4-118.4
		c-16.6-19.5-47.9-56-102-65.3C830.5,356.1,788.2,379.4,775.3,387.2z"/>
	<path class="st2" d="M308.4,505.2c-1-11.4-3.5-53.7,25.3-91.1c29.7-38.7,72.6-45.9,91.4-49c82.4-13.6,142.4,41.4,145.7,44.6
		c34.3,32.6,43.5,70.4,46.3,82.4c2.4,10.7,9.9,45.2-2.3,78c-16,42.9-57.6,61.3-66.5,64.9c-1.2-10.8-4-25.6-10.5-42.2
		c-11.2-28.2-28-47.7-40.1-59.2c-37.9-36.1-81.6-43.1-91.7-44.5C358.2,482.4,321.6,498.6,308.4,505.2z"/>
</g>
<path d="M67.5,1208.2V1091h36.9c6,0,11.5,0.4,16.6,1.1s9.9,2.3,14.5,4.5c6,2.8,10.4,7,13.2,12.6s4.2,11.5,4.2,17.8
	c0,3.5-0.5,7.1-1.4,10.6s-2.3,6.9-4,9.9c-1.8,3.1-3.9,5.8-6.5,8.3s-5.5,4.4-8.8,5.8c-4.1,1.6-8.3,2.8-12.5,3.4
	c-4.2,0.7-8.5,1-12.8,1H90.8v42.2L67.5,1208.2L67.5,1208.2z M90.8,1145.8H104c3.4,0,6.5-0.2,9.2-0.5c2.8-0.3,5.1-1,7.1-1.9
	c3.4-1.5,5.8-3.6,7.2-6.3c1.4-2.7,2.1-5.6,2.1-8.6c0-3.3-0.8-6.3-2.4-9.1c-1.6-2.8-4.1-4.8-7.5-6c-2-0.7-4.1-1.2-6.3-1.6
	c-2.2-0.3-5.1-0.5-8.6-0.5H90.7C90.7,1111.2,90.7,1145.8,90.8,1145.8z"/>
<path d="M166.4,1208.2V1091H214c4.9,0,9.9,0.5,14.8,1.6c4.9,1.1,9.4,2.9,13.3,5.5s7.1,6.2,9.7,10.6s3.8,10.1,3.8,17.1
	c0,4.2-0.5,8.3-1.6,12.1s-2.7,7.4-4.8,10.6c-2.2,3.2-5,6.1-8.4,8.5c-3.5,2.5-7.6,4.4-12.4,5.8l30.1,45.4h-26.9l-29-44h-12.8v44
	H166.4L166.4,1208.2z M189.6,1144.1h18.1c8.6,0,14.8-1.3,18.6-4c3.9-2.7,5.8-6.7,5.8-12c0-5.6-1.8-9.8-5.4-12.6
	c-3.6-2.8-10-4.1-19-4.1h-18.1L189.6,1144.1L189.6,1144.1z"/>
<path d="M373.9,1208.2l-11.6-15.1c-2,2.5-4,4.8-5.9,6.9s-4.1,3.9-6.6,5.4s-5.3,2.7-8.4,3.5c-3.2,0.8-7,1.2-11.4,1.2
	c-5.6,0-10.7-1-15.2-2.9s-8.3-4.5-11.4-7.7s-5.5-6.9-7.1-11.1s-2.5-8.6-2.5-13.2c0-7,2-14,6.1-20.9c4-6.9,10.5-12.8,19.2-17.8
	c-2.4-2.9-4.4-6.1-6.2-9.4c-1.8-3.3-2.7-7.1-2.7-11.3c0-3.9,0.8-7.3,2.4-10.5c1.6-3.1,3.7-5.7,6.4-7.8s5.9-3.8,9.7-4.9
	s7.8-1.8,12.1-1.8s8.1,0.4,11.3,1.2s6.1,2,8.5,3.5s4.6,3.3,6.4,5.4s3.4,4.4,4.8,6.9l-17.9,10c-1.5-2.9-3.4-5.3-5.5-7.2
	c-2.2-1.9-4.7-2.8-7.6-2.8c-2.5,0-4.5,0.7-6.1,1.9c-1.6,1.3-2.5,3.1-2.5,5.3c0,1.6,0.4,3.3,1.3,5s2.1,3.6,3.8,5.5l24.1,31.1
	c3.3-6,6.8-11.7,10.6-17.1c3.8-5.4,8.4-9.8,13.6-13.4l12,16.2c-4.8,3.9-9,8.6-12.5,14.2s-7,11.4-10.4,17.4l26,33.9L373.9,1208.2
	L373.9,1208.2z M331.1,1152.5c-5,3.1-8.8,6.7-11.2,10.8c-2.4,4.2-3.6,8.2-3.6,12.2c0,2.1,0.3,4.1,1,6c0.6,1.9,1.6,3.6,2.9,5
	c1.3,1.5,2.9,2.6,4.8,3.5s4,1.3,6.3,1.3c4,0,7.4-1.4,10.1-4.2c2.8-2.8,5.5-6.3,8.2-10.4L331.1,1152.5L331.1,1152.5z"/>
<path d="M442.6,1208.2V1091h24.3l34.6,78.1l31.3-78.1h24.4v117.3h-23.4v-65.6l-28.3,66.3h-8.4l-31.1-67v66.3L442.6,1208.2
	L442.6,1208.2z"/>
<path d="M565.5,1208.2l48.2-117.3h16.7l48.9,117.3h-25.5l-9.5-23.6h-45.2l-9.7,23.6H565.5L565.5,1208.2z M606.3,1164.8h30.2
	l-15.1-38.5L606.3,1164.8L606.3,1164.8z"/>
<path d="M687.7,1208.2V1091h47.7c4.9,0,9.8,0.5,14.8,1.6c4.9,1.1,9.3,2.9,13.3,5.5c3.9,2.6,7.2,6.2,9.7,10.6
	c2.5,4.5,3.8,10.1,3.8,17.1c0,4.2-0.5,8.3-1.6,12.1s-2.7,7.4-4.8,10.6c-2.2,3.2-5,6.1-8.4,8.5c-3.5,2.5-7.6,4.4-12.4,5.8l30.1,45.4
	H753l-29-44h-12.8v44H687.7L687.7,1208.2z M711,1144.1h18.1c8.6,0,14.8-1.3,18.6-4c3.9-2.7,5.8-6.7,5.8-12c0-5.6-1.8-9.8-5.5-12.6
	c-3.6-2.8-10-4.1-19-4.1h-18L711,1144.1L711,1144.1z"/>
<path d="M792,1208.2V1091h23.7v44.8l45-44.8h28.1l-46.1,45.7l48.4,71.6h-26.7l-37.8-55.6l-10.9,10.9v44.7L792,1208.2L792,1208.2z"/>
<path d="M899.1,1208.2V1091h80.5v21.3h-56.8v26.7h47v21.3h-47v26.7h60.8v21.3L899.1,1208.2L899.1,1208.2z"/>
<path d="M1019.2,1208.2v-96h-35V1091h93.7v21.3h-34.8v96h-23.9L1019.2,1208.2L1019.2,1208.2z"/>
<path d="M1087.1,1208.2V1091h23.7v117.3h-23.7V1208.2z"/>
<path d="M1132.6,1208.2V1091h24.3l47.5,73.2V1091h23.4v117.3H1207l-51-77.6v77.6h-23.4V1208.2z"/>
<path d="M1297.9,1166.8v-20.2h41.3v56.4c-4.8,2.1-10.6,3.9-17.2,5.4c-6.7,1.5-15.2,2.3-25.5,2.3c-7.5,0-14.5-1.3-20.9-4
	s-12-6.7-16.7-11.9c-4.7-5.2-8.3-11.6-11-19.1s-4-16.1-4-25.7c0-10.6,1.4-19.7,4.2-27.3c2.8-7.7,6.6-14.1,11.3-19.2
	s10.2-8.9,16.4-11.3s12.8-3.7,19.7-3.7c10.6,0,19.1,2.1,25.8,6.3s12,10.7,16.1,19.3l-19.2,10.7c-2.3-4.9-5.3-8.8-8.9-11.5
	c-3.6-2.8-8-4.1-13.3-4.1c-3.5,0-7,0.8-10.4,2.5s-6.4,4.2-9.1,7.6s-4.8,7.7-6.3,12.8s-2.4,11.1-2.4,18c0,6.1,0.8,11.6,2.5,16.4
	c1.6,4.9,3.9,9,6.7,12.5s6.1,6.1,9.8,8c3.8,1.9,7.8,2.8,12.1,2.8c3.8,0,7.2-0.2,10.3-0.5c3.1-0.3,5.7-0.8,7.7-1.4v-21.1
	L1297.9,1166.8L1297.9,1166.8z"/>
<path class="st0" d="M869.4,985.6v-122h71.2v12.6H884v39.1h40.4V928h-40.6v45H945v12.6H869.4L869.4,985.6z"/>
<path class="st0" d="M963.4,985.6v-122H978v122H963.4z"/>
<path class="st0" d="M1008.2,935.1c2.9-5.2,7.3-9.4,13.2-12.4c-4.8-3.2-8.6-7.2-11.4-12.1c-2.9-4.9-4.3-10.1-4.3-15.5
	s1.1-10.2,3.2-14.3c2.1-4,4.9-7.4,8.4-10.2c3.5-2.7,7.4-4.8,11.7-6.1c4.3-1.3,8.8-2,13.3-2s8.9,0.7,13.3,2s8.2,3.3,11.6,5.9
	s6.2,5.9,8.2,9.9s3.1,8.6,3.1,13.8c0,5.8-1.4,11.2-4.1,16s-6.4,8.9-11.1,12.3c5.6,2.8,9.9,6.9,12.8,12.3c2.9,5.4,4.4,11.2,4.4,17.5
	s-1.1,11.2-3.3,15.6c-2.2,4.5-5.1,8.2-8.7,11.2s-7.7,5.2-12.2,6.7c-4.6,1.5-9.2,2.2-14,2.2s-9.4-0.7-14-2.2s-8.7-3.7-12.3-6.7
	s-6.6-6.7-8.8-11.2s-3.3-9.6-3.3-15.5C1003.8,946.1,1005.3,940.4,1008.2,935.1L1008.2,935.1z M1020.1,962.6c1.5,2.8,3.3,5.2,5.7,7
	c2.3,1.9,4.9,3.3,7.9,4.3s5.8,1.5,8.8,1.5s5.8-0.5,8.7-1.4c2.9-0.9,5.4-2.3,7.7-4.2c2.3-1.9,4.1-4.2,5.5-7s2.1-6.2,2.1-10.1
	s-0.7-7.1-2.1-10.1s-3.3-5.4-5.6-7.5c-2.3-2.1-4.9-3.7-7.9-4.8c-2.9-1.1-5.8-1.7-8.8-1.7s-5.8,0.5-8.7,1.7c-2.9,1.1-5.5,2.7-7.8,4.7
	c-2.3,2-4.2,4.5-5.6,7.4s-2.1,6.2-2.1,9.9C1018,956.2,1018.7,959.6,1020.1,962.6L1020.1,962.6z M1021.8,904.6
	c1.3,2.7,3.1,4.9,5.2,6.8s4.5,3.2,7.1,4.1s5.3,1.4,8,1.4s5.4-0.5,8.1-1.5s5.1-2.4,7.1-4.2s3.8-4.1,5.1-6.8c1.3-2.7,2-5.8,2-9.3
	s-0.6-6.4-1.9-9s-3-4.7-5.1-6.4s-4.5-3-7.1-3.8s-5.3-1.2-8-1.2s-5.4,0.4-8.1,1.3c-2.7,0.8-5.1,2.1-7.1,3.8c-2.1,1.7-3.8,3.8-5.1,6.3
	c-1.3,2.6-2,5.5-2,9S1020.6,901.8,1021.8,904.6L1021.8,904.6z"/>
<path class="st0" d="M1106.5,985.6v-122h14.6v52.9h61.1v-52.9h14.4v122h-14.4v-56.2h-61.1v56.2H1106.5z"/>
<path class="st0" d="M1250.9,985.6V876.2H1213v-12.6h90.2v12.6h-37.9v109.4L1250.9,985.6L1250.9,985.6z"/>
</svg>
