<?xml version="1.0" encoding="UTF-8"?><svg id="Layer_1" xmlns="http://www.w3.org/2000/svg" viewBox="0 0 1920 1920"><defs><style>.cls-1{fill:#fff;}.cls-2{fill:#bdc3c7;}.cls-3{fill:#c00;}</style></defs><rect class="cls-2" width="1920" height="1920"/><path d="m235.43,670.91c-34.54,34.4-85.41,94.51-116.6,181.93-76.31,213.65,30.79,406.56,53.15,446.85,26.51,47.79,98.26,161.71,237.48,234.27,48.06,25.03,124.77,65.06,229.18,58.1,112.45-7.36,189.02-64.52,217.54-86.35,71.35-54.75,108.7-118.88,126.24-154.48,11.91,8.7,29.45,20.62,51.54,33.2,49.4,28.25,171.35,97.99,325.57,76.44,129.32-18.07,213.12-90.9,235.88-111.25,113.52-101.34,151.27-239.76,146.18-242.57-2.54-1.47-16.06,32.4-51.54,71.49-82.33,90.76-195.45,112.45-225.84,117.94-110.71,19.68-197.72-9.91-235.88-23.43-74.03-26.24-126.77-64.79-157.83-91.3-6.43,15.13-16.47,35.74-31.59,58.1-10.58,15.66-73.76,106.96-181.12,139.49-69.34,21.02-127.04,5.76-242.7-24.9-110.04-29.18-180.59-47.93-252.61-109.24-91.16-77.64-124.9-172.69-137.62-209.64-57.03-167.74-8.03-315.8,10.58-364.66Z"/><path class="cls-1" d="m1645.34,469.17c-27.31-29.32-251.54-261.85-514.86-177.78-172.42,55.02-252.48,210.84-270.82,249.13-184.34-117-397.32-122.89-521.55-21.55-99.73,81.26-131.99,223.16-136.14,242.57-3.21,14.59-18.07,87.15-3.35,180.99,17.67,112.72,67.6,189.42,93.04,227.58,42.84,64.39,112.58,169.08,250.87,220.88,36.14,13.52,179.79,67.47,332.26-4.95,127.44-60.51,181.39-171.49,195.98-204.28,30.12,26.91,80.46,65.33,151.14,91.3,33.07,12.18,218.21,75.9,387.02-28.25,117.14-72.29,161.18-185.01,172.69-215.93,74.3-198.8-8.3-422.62-136.28-559.71Zm-938.15,652.48c-23.69,3.61-88.76,9.77-152.61-30.39-15.8-10.04-56.09-38.29-80.86-91.83-13.65-29.45-17.8-56.36-19.14-74.03,18.88-9.24,51.41-21.95,93.57-23.83,16.06-.67,71.75-2.41,125.7,30.12,86.75,52.34,101.21,152.61,102.95,166.93-15.53,8.17-39.22,18.34-69.61,23.03Zm581.9-243.37c-25.75,3.56-51.7-12.6-65.79-31.1-9.09-11.93-11.64-23.11-16.75-45.45-2.34-10.22-13.61-59.55,1.2-66.98,5.24-2.63,11.84.95,13.76,1.9,44.12,21.76,202.38-72.27,223.07-49.74,9.96,10.84-29.24,59.86-107.65,157.89-9.76,12.2-24.64,30.29-47.85,33.49Z"/><path d="m454.44,925.53c-1.34-15.26-4.69-71.89,33.87-121.95,39.76-51.81,97.19-61.45,122.36-65.6,110.31-18.21,190.63,55.42,195.05,59.71,45.92,43.64,58.23,94.24,61.98,110.31,3.21,14.32,13.25,60.51-3.08,104.42-21.42,57.43-77.11,82.06-89.02,86.88-1.61-14.46-5.35-34.27-14.06-56.49-14.99-37.75-37.48-63.86-53.68-79.25-50.74-48.33-109.24-57.7-122.76-59.57-63.99-8.97-112.99,12.72-130.66,21.55Z"/><path class="cls-3" d="m1196.31,556.94c3.73,0,7.46,0,11.2,0,1.46.09,2.92.18,4.39.27.65.32,1.29.9,1.94.92,4.75.1,9.36,1.25,13.95,2.58,3.04.88,6.07,1.81,9.08,2.86,1.62.56,3.19,1.39,4.77,2.13,4.09,1.9,8.29,3.54,12.24,5.79,8.36,4.77,16.37,10.29,23.82,16.98,6.63,5.95,13.07,12.13,18.76,19.38.61.78,1.13.93,1.83.05,4.9-6.19,10.19-11.89,16-16.81,5.48-4.63,11.09-9.04,16.76-13.33,2.92-2.2,6.01-4.11,9.16-5.81,4.67-2.53,9.46-4.75,14.2-7.11.86-.34,1.72-.69,2.58-1.03,1.83-.62,3.65-1.33,5.5-1.83,3.64-.99,7.32-1.79,10.95-2.82,2.27-.64,4.52-1.1,6.86-1.01.64.03,1.29-.53,1.94-.82.87-.13,1.74-.25,2.61-.38,4.43,0,8.85,0,13.28,0,1.21.11,2.41.22,3.62.32.65.3,1.31.9,1.94.86,3.59-.23,6.99.98,10.42,1.91,2.68.72,5.31,1.71,7.96,2.57.64.24,1.3.41,1.9.75,5.32,2.97,10.63,5.96,15.93,8.99.85.49,1.68,1.07,2.44,1.74,2.37,2.09,4.72,4.22,7.05,6.38,1.5,1.39,2.95,2.87,4.42,4.32.1.1.2.2.3.31.06.08.13.16.19.23,1.17,1.49,2.35,2.97,3.52,4.46.07.08.13.17.2.25.26.33.51.66.77,1,.97,1.24,2.09,2.36,2.9,3.75,3.46,5.94,7.04,11.8,10.15,18,2.42,4.83,4.26,10.09,6.22,15.24.94,2.47,1.56,5.12,2.33,7.69.29,1.04.58,2.08.86,3.12,1.01,5.7,2.63,11.27,2.6,17.21,0,.61.46,1.21.7,1.82.1,1.05.19,2.1.29,3.15v19.69c-.35.82-.9,1.6-1,2.45-.22,1.99-.05,4.04-.33,6.01-.61,4.3-1.33,8.59-2.13,12.84-.46,2.43-1.14,4.79-1.74,7.18-.76,3.01-1.37,6.08-2.34,8.99-1.68,5.08-3.49,10.12-5.41,15.08-1.66,4.27-3.45,8.49-5.39,12.59-3.07,6.47-6.28,12.85-9.52,19.2-1.21,2.38-2.66,4.59-4.03,6.86-3.5,5.79-6.91,11.67-10.56,17.33-3.97,6.16-8.09,12.2-12.3,18.13-3.31,4.66-6.74,9.21-10.3,13.6-7.83,9.64-15.52,19.46-24.01,28.32-4.77,4.98-9.37,10.18-14.08,15.25-2.67,2.88-5.36,5.75-8.1,8.54-5.77,5.9-11.55,11.79-17.39,17.59-4.7,4.67-9.5,9.2-14.27,13.77-2.03,1.95-4.06,3.88-6.12,5.78-3.6,3.31-7.22,6.58-10.82,9.88-3.44,3.15-6.83,6.37-10.3,9.47-5.17,4.62-10.41,9.13-15.57,13.77-.58.52-.83,1.56-1.24,2.36h-.78c-.68-.94-1.31-1.95-2.07-2.78-.69-.75-1.53-1.3-2.3-1.94-.3-.29-.6-.59-.9-.88-1.56-1.37-3.14-2.72-4.69-4.11-2.6-2.33-5.2-4.65-7.78-7.02-4.3-3.94-8.57-7.93-12.86-11.88-3.95-3.64-7.97-7.16-11.85-10.89-7.61-7.31-15.22-14.62-22.7-22.12-6.54-6.57-12.92-13.39-19.33-20.14-2.77-2.91-5.49-5.9-8.18-8.91-5.29-5.92-10.65-11.77-15.79-17.87-4.96-5.88-9.75-11.98-14.5-18.11-4.81-6.21-9.68-12.37-14.16-18.91-5.88-8.58-11.4-17.52-17.07-26.3-.24-.44-.49-.88-.73-1.32-.98-1.81-1.93-3.64-2.94-5.42-1.06-1.86-2.19-3.66-3.28-5.49-.26-.55-.52-1.09-.78-1.64-.98-2.01-1.99-4.01-2.94-6.04-2.63-5.63-5.4-11.18-7.81-16.94-2.04-4.87-3.72-9.97-5.45-15.02-1.13-3.3-2.12-6.67-3.1-10.05-.77-2.67-1.43-5.39-2.14-8.09-.35-1.56-.7-3.13-1.05-4.69-.05-.65-.05-1.32-.14-1.96-.58-4.06-1.69-8.01-1.69-12.21,0-1.43-.46-2.85-.7-4.28,0-1.19.01-2.38-.03-3.57-.02-.48-.16-.94-.25-1.42,0-4.48,0-8.96,0-13.44.18-.43.49-.85.52-1.29.06-1.02,0-2.05-.03-3.08.1-.54.23-1.07.3-1.62.52-3.8.84-7.66,1.58-11.4.85-4.33,1.99-8.58,3.11-12.82.59-2.23,1.4-4.38,2.12-6.57,1.52-3.57,3.04-7.14,4.55-10.72.11-.26.09-.6.13-.91.14-.12.32-.2.4-.35,2.49-4.66,4.97-9.34,7.45-14.01.42-.63.83-1.26,1.25-1.89,1.71-2.33,3.37-4.73,5.16-6.97,4.47-5.6,9.05-11.04,14.59-15.14,2.86-2.12,5.74-4.22,8.61-6.32,4.02-2.07,8.04-4.14,12.06-6.21,2.87-.97,5.72-2.04,8.62-2.88,3.05-.88,6.09-1.98,9.29-1.9.51.01,1.01-.21,1.52-.32,1.41.07,2.83.1,4.24.22.73.06,1.06-.24.99-1.12Z"/></svg>